#N canvas 635 161 420 391 10;
#X obj 36 30 hradio 15 1 0 7 empty empty empty 0 -8 0 10 -262144 -1
-1 0;
#X obj 36 86 s plot;
#X obj 156 30 hradio 15 1 0 7 empty empty empty 0 -8 0 10 -262144 -1
-1 1;
#X obj 156 86 s plot;
#X obj 276 30 hradio 15 1 0 7 empty empty empty 0 -8 0 10 -262144 -1
-1 2;
#X obj 276 86 s plot;
#N canvas 0 0 450 300 (subpatch) 0;
#X array plotted 6 float 2;
#X coords 0 7 6 0 200 140 1 0 0;
#X restore 180 218 graph;
#X obj 36 120 hradio 15 1 0 7 empty empty empty 0 -8 0 10 -262144 -1
-1 3;
#X obj 36 176 s plot;
#X obj 156 120 hradio 15 1 0 7 empty empty empty 0 -8 0 10 -262144
-1 -1 4;
#X obj 156 176 s plot;
#X obj 276 120 hradio 15 1 0 7 empty empty empty 0 -8 0 10 -262144
-1 -1 6;
#X obj 276 176 s plot;
#X obj 37 268 r plot;
#X obj 37 335 tabwrite plotted;
#X obj 37 296 unpack f f;
#X msg 36 59 \$1 0;
#X msg 156 59 \$1 1;
#X msg 276 59 \$1 2;
#X msg 36 149 \$1 3;
#X msg 156 149 \$1 4;
#X msg 276 149 \$1 5;
#X connect 0 0 16 0;
#X connect 2 0 17 0;
#X connect 4 0 18 0;
#X connect 7 0 19 0;
#X connect 9 0 20 0;
#X connect 11 0 21 0;
#X connect 13 0 15 0;
#X connect 15 0 14 0;
#X connect 15 1 14 1;
#X connect 16 0 1 0;
#X connect 17 0 3 0;
#X connect 18 0 5 0;
#X connect 19 0 8 0;
#X connect 20 0 10 0;
#X connect 21 0 12 0;
