#N canvas 510 77 855 568 10;
#X obj 3 33 hradio 37 1 0 7 empty empty 1 0 -8 0 10 -262144 -1 -1 4
;
#X obj 3 113 pack f f;
#X obj 3 133 s index;
#X obj 93 412 r index;
#X obj 93 432 unpack f f;
#X obj 283 33 hradio 37 1 0 7 empty empty 2 0 -8 0 10 -262144 -1 -1
2;
#X obj 553 33 hradio 37 1 0 7 empty empty empty 0 -8 0 10 -262144 -1
-1 3;
#X obj 3 163 hradio 37 1 0 7 empty empty empty 0 -8 0 10 -262144 -1
-1 4;
#X obj 283 163 hradio 37 1 0 7 empty empty empty 0 -8 0 10 -262144
-1 -1 3;
#X obj 553 163 hradio 37 1 0 7 empty empty empty 0 -8 0 10 -262144
-1 -1 3;
#X msg 53 93 0;
#X obj 193 432 max;
#X obj 223 432 f;
#X msg 303 382 0;
#X obj 193 472 + 1;
#X obj 3 73 t f b;
#X obj 283 113 pack f f;
#X obj 283 133 s index;
#X obj 283 73 t f b;
#X msg 333 93 1;
#X obj 553 113 pack f f;
#X obj 553 133 s index;
#X obj 553 73 t f b;
#X msg 603 93 2;
#X obj 3 243 pack f f;
#X obj 3 263 s index;
#X obj 3 203 t f b;
#X obj 283 243 pack f f;
#X obj 283 263 s index;
#X obj 283 203 t f b;
#X obj 553 243 pack f f;
#X obj 553 263 s index;
#X obj 553 203 t f b;
#X msg 53 223 3;
#X msg 333 223 4;
#X msg 603 223 5;
#X obj 93 452 tabwrite test;
#X msg 193 492 \; test resize \$1;
#X obj 303 362 loadbang;
#X obj 403 492 tabdump test;
#X obj 403 472 bng 15 250 50 0 empty empty empty 17 7 0 10 -262144
-1 -1;
#X obj 403 512 print;
#X obj 93 472 table test;
#X connect 0 0 15 0;
#X connect 1 0 2 0;
#X connect 3 0 4 0;
#X connect 4 0 36 0;
#X connect 4 1 11 0;
#X connect 4 1 36 1;
#X connect 5 0 18 0;
#X connect 6 0 22 0;
#X connect 7 0 26 0;
#X connect 8 0 29 0;
#X connect 9 0 32 0;
#X connect 10 0 1 1;
#X connect 11 0 12 0;
#X connect 11 0 14 0;
#X connect 12 0 11 1;
#X connect 13 0 11 1;
#X connect 13 0 37 0;
#X connect 14 0 37 0;
#X connect 15 0 1 0;
#X connect 15 1 10 0;
#X connect 16 0 17 0;
#X connect 18 0 16 0;
#X connect 18 1 19 0;
#X connect 19 0 16 1;
#X connect 20 0 21 0;
#X connect 22 0 20 0;
#X connect 22 1 23 0;
#X connect 23 0 20 1;
#X connect 24 0 25 0;
#X connect 26 0 24 0;
#X connect 26 1 33 0;
#X connect 27 0 28 0;
#X connect 29 0 27 0;
#X connect 29 1 34 0;
#X connect 30 0 31 0;
#X connect 32 0 30 0;
#X connect 32 1 35 0;
#X connect 33 0 24 1;
#X connect 34 0 27 1;
#X connect 35 0 30 1;
#X connect 38 0 13 0;
#X connect 39 0 41 0;
#X connect 40 0 39 0;
