#N canvas 65 81 450 300 10;
#X obj 34 51 s a1;
#X obj 111 82 r a1;
#X obj 37 14 hsl 128 15 0 100 0 0 empty empty empty -2 -8 0 10 -262144
-1 -1 3100 1;
#X obj 111 172 tabwrite array;
#X obj 111 118 t f b;
#X obj 201 16 hsl 128 15 0 100 0 0 empty empty empty -2 -8 0 10 -262144
-1 -1 4800 1;
#X obj 275 170 tabwrite array;
#X obj 198 53 s a2;
#X obj 275 84 r a2;
#X msg 164 143 1;
#X msg 325 142 2;
#N canvas 0 0 450 300 (subpatch) 0;
#X array array 3 float 3;
#A 0 2 0 37.7953;
#X coords 0 100 3 0 200 140 1 0 0;
#X restore 382 23 graph;
#X obj -113 13 hsl 128 15 0 100 0 0 empty empty empty -2 -8 0 10 -262144
-1 -1 7900 1;
#X obj -39 171 tabwrite array;
#X obj -39 117 t f b;
#X msg 19 144 0;
#X obj -39 81 r a0;
#X obj -116 50 s a0;
#X obj 275 120 t f b;
#X connect 1 0 4 0;
#X connect 2 0 0 0;
#X connect 4 0 3 0;
#X connect 4 1 9 0;
#X connect 5 0 7 0;
#X connect 8 0 18 0;
#X connect 9 0 3 1;
#X connect 10 0 6 1;
#X connect 12 0 17 0;
#X connect 14 0 13 0;
#X connect 14 1 15 0;
#X connect 15 0 13 1;
#X connect 16 0 14 0;
#X connect 18 0 6 0;
#X connect 18 1 10 0;
