#N canvas 0 0 450 300 10;
#X obj 76 64 cnv 15 30 30 empty num2display 49 10 14 0 14 -260097 -66577
0;
#X obj 221 183 s num2display;
#X msg 221 145 label \$1;
#X floatatom 221 76 5 0 0 0 - - -;
#X obj 221 113 l2s;
#X connect 2 0 1 0;
#X connect 3 0 4 0;
#X connect 4 0 2 0;
