#N canvas 621 77 702 413 10;
#N canvas 23 85 1297 683 visual_training 0;
#X obj 12 101 hradio 19 1 0 11 empty empty Brilliant 0 -8 0 11 -262144
-1 -1 0;
#X obj 12 161 hradio 19 1 0 11 empty empty Hollow 0 -8 0 11 -262144
-1 -1 5;
#X obj 12 221 hradio 19 1 0 11 empty empty Clear 0 -8 0 11 -262144
-1 -1 0;
#X obj 12 281 hradio 19 1 0 11 empty empty Rough 0 -8 0 11 -262144
-1 -1 0;
#X obj 12 341 hradio 19 1 0 11 empty empty Metallic 0 -8 0 11 -262144
-1 -1 0;
#X obj 12 401 hradio 19 1 0 11 empty empty Warm 0 -8 0 11 -262144 -1
-1 0;
#X obj 12 461 hradio 19 1 0 11 empty empty Smooth 0 -8 0 11 -262144
-1 -1 0;
#X obj 12 521 hradio 19 1 0 11 empty empty Thick 0 -8 0 11 -262144
-1 -1 0;
#X obj 12 581 hradio 19 1 0 11 empty empty Rounded 0 -8 0 11 -262144
-1 -1 0;
#X obj 12 641 hradio 19 1 0 11 empty empty Harsh 0 -8 0 11 -262144
-1 -1 0;
#X obj 332 101 hradio 19 1 0 11 empty empty Dull 0 -8 0 11 -262144
-1 -1 0;
#X obj 332 161 hradio 19 1 0 11 empty empty Thin 0 -8 0 11 -262144
-1 -1 0;
#X obj 332 221 hradio 19 1 0 11 empty empty Shrill 0 -8 0 11 -262144
-1 -1 0;
#X obj 332 281 hradio 19 1 0 11 empty empty Cold 0 -8 0 11 -262144
-1 -1 0;
#X obj 332 341 hradio 19 1 0 11 empty empty Distinct 0 -8 0 11 -262144
-1 -1 0;
#X obj 332 401 hradio 19 1 0 11 empty empty Sharp 0 -8 0 11 -262144
-1 -1 0;
#X obj 332 461 hradio 19 1 0 11 empty empty Rich 0 -8 0 11 -262144
-1 -1 0;
#X obj 332 521 hradio 19 1 0 11 empty empty Bright 0 -8 0 11 -262144
-1 -1 0;
#X obj 332 581 hradio 19 1 0 11 empty empty Dense 0 -8 0 11 -262144
-1 -1 0;
#X obj 332 641 hradio 19 1 0 11 empty empty Full 0 -8 0 11 -262144
-1 -1 0;
#X obj 642 161 hradio 19 1 0 11 empty empty Soft 0 -8 0 11 -262144
-1 -1 0;
#X obj 642 221 hradio 19 1 0 11 empty empty Dark 0 -8 0 11 -262144
-1 -1 0;
#X obj 642 281 hradio 19 1 0 11 empty empty Compact 0 -8 0 11 -262144
-1 -1 0;
#X obj 642 341 hradio 19 1 0 11 empty empty Dirty 0 -8 0 11 -262144
-1 -1 0;
#X obj 642 401 hradio 19 1 0 11 empty empty Empty 0 -8 0 11 -262144
-1 -1 0;
#X obj 642 461 hradio 19 1 0 11 empty empty Messy 0 -8 0 11 -262144
-1 -1 0;
#X obj 642 521 hradio 19 1 0 11 empty empty Light 0 -8 0 11 -262144
-1 -1 0;
#X obj 642 581 hradio 19 1 0 11 empty empty Dry 0 -8 0 11 -262144 -1
-1 0;
#X obj 642 641 hradio 19 1 0 11 empty empty Deep 0 -8 0 11 -262144
-1 -1 0;
#X obj 1095 1 r close_visual_training;
#X msg 1095 21 \; pd-visual_training vis 0 \;;
#X obj 902 597 bng 40 250 50 0 empty empty Play_next 50 20 1 13 -13381
-215465 -1;
#X obj 902 117 bng 40 250 50 0 empty empty Play_again 50 20 1 12 -67108
-183351 -1;
#X obj 902 347 bng 40 250 50 0 empty empty Play_loop 50 20 1 13 -232576
-1 -1;
#X text 899 163 Plays the current sample again;
#X obj 1 1 cnv 15 1279 83 empty empty empty 20 12 0 14 -203904 -66577
0;
#X text 352 8 These are the scales that are going to be used to evaluate
the sound examples. Rate them according to the appropriateness of each
scale to each of the excerpts heard.;
#X obj 1255 59 bng 23 250 50 0 close_visual_training empty empty 17
7 0 11 -258113 -1 -1;
#X text 1019 63 To Close Rating Session Training;
#X text 899 393 Press to play the sample looped. Press again to stop
looping.;
#X text 900 643 Once you finished rating \, press to proceed to the
next sample;
#X text 11 122 0;
#X text 31 122 1;
#X text 51 122 2;
#X text 71 122 3;
#X text 87 122 4;
#X text 107 122 5;
#X text 127 122 6;
#X text 147 122 7;
#X text 164 122 8;
#X text 184 122 9;
#X text 201 122 10;
#X text 11 182 0;
#X text 31 182 1;
#X text 51 182 2;
#X text 71 182 3;
#X text 87 182 4;
#X text 107 182 5;
#X text 127 182 6;
#X text 147 182 7;
#X text 164 182 8;
#X text 184 182 9;
#X text 201 182 10;
#X text 11 242 0;
#X text 31 242 1;
#X text 51 242 2;
#X text 71 242 3;
#X text 87 242 4;
#X text 107 242 5;
#X text 127 242 6;
#X text 147 242 7;
#X text 164 242 8;
#X text 184 242 9;
#X text 201 242 10;
#X text 11 302 0;
#X text 31 302 1;
#X text 51 302 2;
#X text 71 302 3;
#X text 87 302 4;
#X text 107 302 5;
#X text 127 302 6;
#X text 147 302 7;
#X text 164 302 8;
#X text 184 302 9;
#X text 201 302 10;
#X text 11 362 0;
#X text 31 362 1;
#X text 51 362 2;
#X text 71 362 3;
#X text 87 362 4;
#X text 107 362 5;
#X text 127 362 6;
#X text 147 362 7;
#X text 164 362 8;
#X text 184 362 9;
#X text 201 362 10;
#X text 11 422 0;
#X text 31 422 1;
#X text 51 422 2;
#X text 71 422 3;
#X text 87 422 4;
#X text 107 422 5;
#X text 127 422 6;
#X text 147 422 7;
#X text 164 422 8;
#X text 184 422 9;
#X text 201 422 10;
#X text 11 482 0;
#X text 31 482 1;
#X text 51 482 2;
#X text 71 482 3;
#X text 87 482 4;
#X text 107 482 5;
#X text 127 482 6;
#X text 147 482 7;
#X text 164 482 8;
#X text 184 482 9;
#X text 201 482 10;
#X text 11 542 0;
#X text 31 542 1;
#X text 51 542 2;
#X text 71 542 3;
#X text 87 542 4;
#X text 107 542 5;
#X text 127 542 6;
#X text 147 542 7;
#X text 164 542 8;
#X text 184 542 9;
#X text 201 542 10;
#X text 11 602 0;
#X text 31 602 1;
#X text 51 602 2;
#X text 71 602 3;
#X text 87 602 4;
#X text 107 602 5;
#X text 127 602 6;
#X text 147 602 7;
#X text 164 602 8;
#X text 184 602 9;
#X text 201 602 10;
#X text 11 662 0;
#X text 31 662 1;
#X text 51 662 2;
#X text 71 662 3;
#X text 87 662 4;
#X text 107 662 5;
#X text 127 662 6;
#X text 147 662 7;
#X text 164 662 8;
#X text 184 662 9;
#X text 201 662 10;
#X text 331 122 0;
#X text 351 122 1;
#X text 371 122 2;
#X text 391 122 3;
#X text 407 122 4;
#X text 427 122 5;
#X text 447 122 6;
#X text 467 122 7;
#X text 484 122 8;
#X text 504 122 9;
#X text 521 122 10;
#X text 331 182 0;
#X text 351 182 1;
#X text 371 182 2;
#X text 391 182 3;
#X text 407 182 4;
#X text 427 182 5;
#X text 447 182 6;
#X text 467 182 7;
#X text 484 182 8;
#X text 504 182 9;
#X text 521 182 10;
#X text 331 242 0;
#X text 351 242 1;
#X text 371 242 2;
#X text 391 242 3;
#X text 407 242 4;
#X text 427 242 5;
#X text 447 242 6;
#X text 467 242 7;
#X text 484 242 8;
#X text 504 242 9;
#X text 521 242 10;
#X text 331 302 0;
#X text 351 302 1;
#X text 371 302 2;
#X text 391 302 3;
#X text 407 302 4;
#X text 427 302 5;
#X text 447 302 6;
#X text 467 302 7;
#X text 484 302 8;
#X text 504 302 9;
#X text 521 302 10;
#X text 331 362 0;
#X text 351 362 1;
#X text 371 362 2;
#X text 391 362 3;
#X text 407 362 4;
#X text 427 362 5;
#X text 447 362 6;
#X text 467 362 7;
#X text 484 362 8;
#X text 504 362 9;
#X text 521 362 10;
#X text 331 422 0;
#X text 351 422 1;
#X text 371 422 2;
#X text 391 422 3;
#X text 407 422 4;
#X text 427 422 5;
#X text 447 422 6;
#X text 467 422 7;
#X text 484 422 8;
#X text 504 422 9;
#X text 521 422 10;
#X text 331 482 0;
#X text 351 482 1;
#X text 371 482 2;
#X text 391 482 3;
#X text 407 482 4;
#X text 427 482 5;
#X text 447 482 6;
#X text 467 482 7;
#X text 484 482 8;
#X text 504 482 9;
#X text 521 482 10;
#X text 331 542 0;
#X text 351 542 1;
#X text 371 542 2;
#X text 391 542 3;
#X text 407 542 4;
#X text 427 542 5;
#X text 447 542 6;
#X text 467 542 7;
#X text 484 542 8;
#X text 504 542 9;
#X text 521 542 10;
#X text 331 602 0;
#X text 351 602 1;
#X text 371 602 2;
#X text 391 602 3;
#X text 407 602 4;
#X text 427 602 5;
#X text 447 602 6;
#X text 467 602 7;
#X text 484 602 8;
#X text 504 602 9;
#X text 521 602 10;
#X text 331 662 0;
#X text 351 662 1;
#X text 371 662 2;
#X text 391 662 3;
#X text 407 662 4;
#X text 427 662 5;
#X text 447 662 6;
#X text 467 662 7;
#X text 484 662 8;
#X text 504 662 9;
#X text 521 662 10;
#X text 641 122 0;
#X text 661 122 1;
#X text 681 122 2;
#X text 701 122 3;
#X text 717 122 4;
#X text 737 122 5;
#X text 757 122 6;
#X text 777 122 7;
#X text 794 122 8;
#X text 814 122 9;
#X text 831 122 10;
#X text 641 182 0;
#X text 661 182 1;
#X text 681 182 2;
#X text 701 182 3;
#X text 717 182 4;
#X text 737 182 5;
#X text 757 182 6;
#X text 777 182 7;
#X text 794 182 8;
#X text 814 182 9;
#X text 831 182 10;
#X text 641 242 0;
#X text 661 242 1;
#X text 681 242 2;
#X text 701 242 3;
#X text 717 242 4;
#X text 737 242 5;
#X text 757 242 6;
#X text 777 242 7;
#X text 794 242 8;
#X text 814 242 9;
#X text 831 242 10;
#X text 641 302 0;
#X text 661 302 1;
#X text 681 302 2;
#X text 701 302 3;
#X text 717 302 4;
#X text 737 302 5;
#X text 757 302 6;
#X text 777 302 7;
#X text 794 302 8;
#X text 814 302 9;
#X text 831 302 10;
#X text 641 362 0;
#X text 661 362 1;
#X text 681 362 2;
#X text 701 362 3;
#X text 717 362 4;
#X text 737 362 5;
#X text 757 362 6;
#X text 777 362 7;
#X text 794 362 8;
#X text 814 362 9;
#X text 831 362 10;
#X text 641 422 0;
#X text 661 422 1;
#X text 681 422 2;
#X text 701 422 3;
#X text 717 422 4;
#X text 737 422 5;
#X text 757 422 6;
#X text 777 422 7;
#X text 794 422 8;
#X text 814 422 9;
#X text 831 422 10;
#X text 641 482 0;
#X text 661 482 1;
#X text 681 482 2;
#X text 701 482 3;
#X text 717 482 4;
#X text 737 482 5;
#X text 757 482 6;
#X text 777 482 7;
#X text 794 482 8;
#X text 814 482 9;
#X text 831 482 10;
#X text 641 542 0;
#X text 661 542 1;
#X text 681 542 2;
#X text 701 542 3;
#X text 717 542 4;
#X text 737 542 5;
#X text 757 542 6;
#X text 777 542 7;
#X text 794 542 8;
#X text 814 542 9;
#X text 831 542 10;
#X text 641 602 0;
#X text 661 602 1;
#X text 681 602 2;
#X text 701 602 3;
#X text 717 602 4;
#X text 737 602 5;
#X text 757 602 6;
#X text 777 602 7;
#X text 794 602 8;
#X text 814 602 9;
#X text 831 602 10;
#X text 641 662 0;
#X text 661 662 1;
#X text 681 662 2;
#X text 701 662 3;
#X text 717 662 4;
#X text 737 662 5;
#X text 757 662 6;
#X text 777 662 7;
#X text 794 662 8;
#X text 814 662 9;
#X text 831 662 10;
#X obj 642 101 hradio 19 1 0 11 empty empty Nasal 0 -8 0 11 -262144
-1 -1 0;
#X connect 29 0 30 0;
#X restore 5 152 pd visual_training;
#N canvas 9 78 1037 659 sound_stimuli 0;
#X obj 9 630 dac~;
#X obj 9 330 soundfiler;
#X obj 9 350 bang;
#X obj 159 470 f;
#X obj 159 490 + 1;
#X msg 177 450 0;
#X obj 197 420 delay 12;
#X obj 99 360 delay 400;
#X obj 177 360 loadbang;
#N canvas 1161 601 283 303 sp_lb_ue 0;
#X obj 74 107 loadbang;
#X msg 74 132 1;
#X obj 141 107 r urn_empty;
#X msg 141 133 0;
#X obj 36 220 outlet;
#X obj 36 192 spigot;
#X obj 36 68 inlet;
#X connect 0 0 1 0;
#X connect 1 0 5 1;
#X connect 2 0 3 0;
#X connect 3 0 5 1;
#X connect 5 0 4 0;
#X connect 6 0 5 0;
#X restore 197 400 pd sp_lb_ue;
#X obj 197 380 r pn_1;
#X obj 9 11 r \$11-urn;
#X obj 159 510 s \$17-Rep;
#X obj 48 210 l2s;
#X msg 66 190 symbol;
#X obj 66 170 loadbang;
#X obj 9 230 symbol;
#X obj 9 31 t b;
#X obj 9 290 makefilename %s.wav;
#X obj 9 270 l2s;
#X obj 9 250 pack s f;
#X msg 135 253 symbol;
#X obj 135 230 loadbang;
#X obj 62 230 r \$11-urn;
#X obj 99 340 r play_again;
#X obj 249 460 r play_loop;
#X obj 249 560 spigot;
#X obj 339 490 tgl 15 0 empty empty empty 0 -6 0 10 -262144 -1 -1 0
1;
#X obj 249 490 metro 2100;
#X obj 329 520 r loopoff;
#X msg 329 540 0;
#X msg 48 121;
#X obj 208 71 loadbang;
#X msg 208 91 set;
#X obj 48 31 r select_sdb;
#X obj 589 630 dac~;
#X obj 589 390 soundfiler;
#X obj 589 410 bang;
#X obj 709 241 l2s;
#X msg 729 221 symbol;
#X obj 729 201 loadbang;
#X obj 589 261 symbol;
#X obj 589 241 t b;
#X obj 589 350 makefilename %s.wav;
#X obj 589 330 l2s;
#X obj 589 281 pack s f;
#X msg 659 300 symbol;
#X obj 659 280 loadbang;
#N canvas 14 399 674 358 training_samples 0;
#X obj 62 45 r t01;
#X obj 102 45 r t02;
#X obj 142 45 r t03;
#X obj 182 45 r t04;
#X obj 222 45 r t05;
#X obj 262 45 r t06;
#X obj 302 45 r t07;
#X obj 342 45 r t08;
#X obj 382 45 r t09;
#X obj 422 45 r t10;
#X obj 62 146 outlet;
#X msg 62 79 1;
#X msg 102 79 2;
#X msg 142 79 10;
#X msg 182 79 9;
#X msg 222 79 8;
#X msg 262 79 7;
#X msg 302 79 3;
#X msg 342 79 6;
#X msg 382 79 4;
#X msg 421 78 5;
#X connect 0 0 11 0;
#X connect 1 0 12 0;
#X connect 2 0 13 0;
#X connect 3 0 14 0;
#X connect 4 0 15 0;
#X connect 5 0 16 0;
#X connect 6 0 17 0;
#X connect 7 0 18 0;
#X connect 8 0 19 0;
#X connect 9 0 20 0;
#X connect 11 0 10 0;
#X connect 12 0 10 0;
#X connect 13 0 10 0;
#X connect 14 0 10 0;
#X connect 15 0 10 0;
#X connect 16 0 10 0;
#X connect 17 0 10 0;
#X connect 18 0 10 0;
#X connect 19 0 10 0;
#X connect 20 0 10 0;
#X restore 589 11 pd training_samples;
#X obj 589 221 del 10;
#X msg 709 131;
#X obj 709 41 r select_sdb_training;
#X obj 48 51 tof/folderpanel;
#X msg 9 310 read -resize \$1 experiment;
#X obj 9 600 tabplay~ experiment;
#X obj 49 630 table experiment;
#X msg 589 370 read -resize \$1 trial;
#X obj 589 600 tabplay~ trial;
#X obj 629 630 table trial;
#X msg 48 71 set symbol \$1/;
#X obj 869 61 loadbang;
#X msg 869 81 set;
#X obj 709 61 tof/folderpanel;
#X msg 709 81 set symbol \$1/;
#X obj 48 91 t b a;
#X obj 709 101 t b a;
#X connect 1 0 2 0;
#X connect 2 0 54 0;
#X connect 3 0 4 0;
#X connect 4 0 3 1;
#X connect 4 0 12 0;
#X connect 5 0 3 1;
#X connect 6 0 5 0;
#X connect 7 0 3 0;
#X connect 7 0 54 0;
#X connect 8 0 5 0;
#X connect 9 0 6 0;
#X connect 10 0 9 0;
#X connect 11 0 17 0;
#X connect 13 0 16 1;
#X connect 14 0 13 1;
#X connect 15 0 14 0;
#X connect 16 0 20 0;
#X connect 17 0 16 0;
#X connect 18 0 53 0;
#X connect 19 0 18 0;
#X connect 20 0 19 0;
#X connect 21 0 19 1;
#X connect 22 0 21 0;
#X connect 23 0 20 1;
#X connect 24 0 7 0;
#X connect 25 0 27 0;
#X connect 25 0 28 0;
#X connect 26 0 54 0;
#X connect 27 0 26 1;
#X connect 28 0 26 0;
#X connect 29 0 30 0;
#X connect 30 0 26 1;
#X connect 31 0 13 0;
#X connect 32 0 33 0;
#X connect 33 0 31 0;
#X connect 34 0 52 0;
#X connect 36 0 37 0;
#X connect 37 0 57 0;
#X connect 38 0 41 1;
#X connect 39 0 38 1;
#X connect 40 0 39 0;
#X connect 41 0 45 0;
#X connect 42 0 41 0;
#X connect 43 0 56 0;
#X connect 44 0 43 0;
#X connect 45 0 44 0;
#X connect 46 0 44 1;
#X connect 47 0 46 0;
#X connect 48 0 45 1;
#X connect 48 0 49 0;
#X connect 49 0 42 0;
#X connect 50 0 38 0;
#X connect 51 0 62 0;
#X connect 52 0 59 0;
#X connect 53 0 1 0;
#X connect 54 0 0 0;
#X connect 54 0 0 1;
#X connect 56 0 36 0;
#X connect 57 0 35 0;
#X connect 57 0 35 1;
#X connect 59 0 64 0;
#X connect 60 0 61 0;
#X connect 61 0 50 0;
#X connect 62 0 63 0;
#X connect 63 0 65 0;
#X connect 64 0 31 0;
#X connect 64 1 31 0;
#X connect 65 0 50 0;
#X connect 65 1 50 0;
#X restore 5 262 pd sound_stimuli;
#X obj 5 2 bng 23 250 50 0 select_sdb empty Select_Sound_DataBase 29
11 1 17 -262144 -1 -1;
#X obj 355 102 bng 23 250 50 0 open_visual_training empty To_Open_Rating_Session_Training
29 11 1 17 -262144 -1 -1;
#X msg 355 152 \; pd-visual_training vis 1 \;;
#X obj 355 132 r open_visual_training;
#X obj 355 202 bng 23 250 50 0 open_listening_training empty To_Open_Listening_Session_Training
29 11 1 17 -262144 -1 -1;
#X obj 355 232 r open_listening_training;
#X msg 355 252 \; pd-listening_training vis 1 \;;
#N canvas 242 133 746 499 listening_training 0;
#X obj 535 402 r close_listening_training;
#X msg 535 422 \; pd-listening_training vis 0 \;;
#X obj 1 1 cnv 15 741 493 empty empty Training-->Listening_sounds 20
20 0 14 -166441 -262144 0;
#X obj 24 102 bng 40 250 50 0 t01 nothing_but_different1 Play_sample_1
50 20 1 12 -169046 -215465 -1;
#X obj 24 152 bng 40 250 50 0 t02 nothing_but_different2 Play_sample_2
50 20 1 12 -169046 -215465 -1;
#X obj 24 202 bng 40 250 50 0 t03 nothing_but_different3 Play_sample_3
50 20 1 12 -169046 -215465 -1;
#X obj 24 252 bng 40 250 50 0 t04 nothing_but_different4 Play_sample_4
50 20 1 12 -169046 -215465 -1;
#X obj 24 302 bng 40 250 50 0 t05 nothing_but_different5 Play_sample_5
50 20 1 12 -169046 -215465 -1;
#X obj 24 352 bng 40 250 50 0 t06 nothing_but_different6 Play_sample_6
50 20 1 12 -169046 -215465 -1;
#X obj 214 132 bng 40 250 50 0 t07 nothing_but_different7 Play_sample_7
50 20 1 12 -169046 -215465 -1;
#X obj 214 192 bng 40 250 50 0 t08 nothing_but_different8 Play_sample_8
50 20 1 12 -169046 -215465 -1;
#X obj 214 242 bng 40 250 50 0 t09 nothing_but_different9 Play_sample_9
50 20 1 12 -169046 -215465 -1;
#X obj 214 302 bng 40 250 50 0 t10 nothing_but_different10 Play_sample_10
50 20 1 12 -169046 -215465 -1;
#X text 19 38 This are the kind of samples that you will listen to
during the experiment.;
#X obj 715 462 bng 23 250 50 0 close_listening_training empty empty
17 7 0 11 -258113 -1 -1;
#X text 459 466 To Close Listening Session Training;
#X text 21 72 Listen a couple or all of them.;
#X connect 0 0 1 0;
#X restore 5 172 pd listening_training;
#N canvas 68 106 1183 536 interface 0;
#X obj 1 1 cnv 15 1179 265 empty empty empty 20 12 0 14 -260097 -66577
0;
#X symbolatom 410 45 41 0 0 0 Name:_ r_subj_name s_subj_name, f 41
;
#X text 408 25 (don't use spaces between characters);
#X text 363 5 Please enter participant's name in the square below;
#X obj 1 267 cnv 15 1179 265 empty empty empty 20 12 0 14 -99865 -66577
0;
#X restore 5 192 pd interface;
#X obj 355 302 bng 23 250 50 0 open_interface empty To_Start_Experiment
29 11 1 17 -262144 -1 -1;
#X obj 355 332 r open_interface;
#X msg 355 352 \; pd-interface vis 1 \;;
#X obj 355 2 bng 23 250 50 0 open_interface_training empty To_Start_Experiment_Interface
29 11 1 17 -262144 -1 -1;
#X obj 355 32 r open_interface_training;
#X msg 355 52 \; pd-interface_training vis 1 \;;
#N canvas 31 106 1187 538 interface_training 0;
#X msg 975 392 \; pd-interface_training vis 0 \;;
#X obj 975 372 r close_interface_training;
#X obj 2 1 cnv 15 1179 531 empty empty Training-->Interface_Experiment
20 20 0 15 -166441 -262144 0;
#X symbolatom 427 104 41 0 0 0 Name:_ r_subj_name close_interface_training
, f 41;
#X text 425 84 (don't use spaces between characters);
#X text 380 54 Please enter participant's name in the square below
and Press Enter;
#X connect 1 0 0 0;
#X restore 5 132 pd interface_training;
#X floatatom 5 42 5 0 0 1 Number_of_Audio_Samples reset_nmbr_samp nmbr_of_trials
, f 5;
#N canvas 295 166 767 498 sound_selector 0;
#X obj 8 127 timer;
#X msg 8 157 seed \$1;
#X obj 79 207 delay 100;
#X obj 8 367 + 1;
#X obj 47 367 s urn_empty;
#X obj 79 187 r pn_1;
#X obj 69 157 r sb_1;
#X obj 40 97 r start_button;
#X obj 8 397 s \$11-urn;
#X obj 200 137 r nmbr_of_trials;
#X obj 8 247 s urn_inlet;
#X obj 8 317 r urn_outlet0;
#X obj 47 347 r urn_outlet1;
#X obj 200 227 f;
#X obj 200 157 t b;
#X obj 218 197 r nmbr_of_trials;
#X obj 8 7 r nmbr_of_trials;
#X obj 8 37 t b;
#X msg 200 257 \; pd-define_urn_number obj 2 10 r urn_inlet \; pd-define_urn_number
obj 2 110 s urn_outlet0 \; pd-define_urn_number obj 34 80 s urn_outlet1
\; pd-define_urn_number obj 2 40 urn \$1 \; pd-define_urn_number connect
0 0 3 0 \; pd-define_urn_number connect 3 0 1 0 \; pd-define_urn_number
connect 3 1 2 0 \;;
#X obj 200 177 delay 2;
#X obj 8 67 delay 50;
#X obj 390 27 loadbang;
#X obj 436 97 s set_nmb_trials;
#X msg 436 77 0;
#X msg 413 127 \; pd-define_urn_number vis 1 \; pd-define_urn_number
clear \; pd-define_urn_number vis 0 \;;
#X obj 390 47 t b b b;
#N canvas 1 467 450 300 define_urn_number 1;
#X obj 2 10 r urn_inlet;
#X obj 2 110 s urn_outlet0;
#X obj 34 80 s urn_outlet1;
#X obj 2 40 urn 0;
#X connect 0 0 3 0;
#X connect 3 0 1 0;
#X connect 3 1 2 0;
#X restore 199 41 pd define_urn_number;
#X msg 390 197 pd-sound_selector obj 200 7 pd define_urn_number \;
pd-define_urn_number vis 0 \;;
#X connect 0 0 1 0;
#X connect 1 0 10 0;
#X connect 2 0 10 0;
#X connect 3 0 8 0;
#X connect 5 0 2 0;
#X connect 6 0 10 0;
#X connect 7 0 0 1;
#X connect 9 0 14 0;
#X connect 11 0 3 0;
#X connect 12 0 4 0;
#X connect 13 0 18 0;
#X connect 14 0 19 0;
#X connect 15 0 13 1;
#X connect 16 0 17 0;
#X connect 17 0 20 0;
#X connect 19 0 13 0;
#X connect 20 0 0 0;
#X connect 21 0 25 0;
#X connect 23 0 22 0;
#X connect 25 0 27 0;
#X connect 25 1 24 0;
#X connect 25 2 23 0;
#X restore 5 282 pd sound_selector;
#N canvas 1 88 1011 613 settings 0;
#X obj 601 3 cnv 15 400 100 empty empty initial_message_to_name_field
20 12 0 14 -233017 -66577 0;
#X obj 657 27 loadbang;
#X obj 657 79 s r_subj_name \$1;
#X msg 657 53 set enter_here_your_name_and_press_<enter>;
#X obj 200 3 cnv 15 400 605 empty empty Buttons 20 12 0 14 -233017
-66577 0;
#X obj 467 347 f;
#X obj 497 347 + 1;
#X msg 485 317 1;
#X obj 467 417 + 1;
#X obj 397 517 spigot;
#X obj 397 377 delay 110;
#X msg 347 437 1;
#X msg 447 547 0;
#X obj 397 457 f \$1;
#X obj 437 467 r urn_empty;
#X msg 437 487 0;
#X obj 447 517 loadbang;
#X obj 485 297 loadbang;
#N canvas 1157 597 287 307 sp_lb_ue 0;
#X obj 74 107 loadbang;
#X msg 74 132 1;
#X obj 141 107 r urn_empty;
#X msg 141 133 0;
#X obj 36 220 outlet;
#X obj 36 192 spigot;
#X obj 36 68 inlet;
#X connect 0 0 1 0;
#X connect 1 0 5 1;
#X connect 2 0 3 0;
#X connect 3 0 5 1;
#X connect 5 0 4 0;
#X connect 6 0 5 0;
#X restore 467 267 pd sp_lb_ue;
#X obj 467 247 r pn_1;
#X obj 347 417 r sb_1;
#X obj 227 27 r play_next;
#X obj 227 267 spigot;
#X msg 277 217 1;
#X msg 317 217 0;
#X obj 267 307 delay 13;
#X obj 227 77 delay 400;
#X obj 337 187 loadbang;
#X obj 227 347 s pn_1;
#X obj 437 27 r start_button;
#X obj 437 97 once;
#X obj 437 47 delay 40;
#X obj 437 117 s sb_1;
#X obj 467 77 loadbang;
#X obj 247 327 delay 10000;
#X obj 277 97 r sb_1;
#X obj 317 167 delay 100;
#X obj 317 127 delay 10000;
#N canvas 633 78 638 689 take_a_rest 0;
#X obj 190 16 inlet;
#X obj 36 211 select;
#X obj 75 189 int;
#X obj 75 167 / 2;
#X obj 141 558 outlet;
#X obj 75 145 r nmbr_of_trials;
#X obj 218 208 r returntotimbreexperiment;
#X obj -10 122 r \$553-snd_number;
#X obj -10 145 moses 1;
#X msg 75 233 1;
#X msg 36 233 2;
#X obj 236 311 delay 4000;
#X obj 192 446 s loopoff;
#X msg 237 342 \; pd-take_a_rest_message vis 1 \;;
#X msg 218 237 \; pd-take_a_rest_message vis 0 \;;
#X obj 141 278 cyclone/gate 2;
#X connect 0 0 15 1;
#X connect 1 0 10 0;
#X connect 1 1 9 0;
#X connect 2 0 1 1;
#X connect 3 0 2 0;
#X connect 5 0 3 0;
#X connect 6 0 14 0;
#X connect 6 0 9 0;
#X connect 7 0 8 0;
#X connect 8 1 1 0;
#X connect 9 0 15 0;
#X connect 10 0 15 0;
#X connect 11 0 13 0;
#X connect 15 0 4 0;
#X connect 15 1 11 0;
#X coords 0 -1 1 1 85 20 1 10 10;
#X restore 257 47 pd take_a_rest;
#X obj 397 587 s snd_number;
#X connect 1 0 3 0;
#X connect 3 0 2 0;
#X connect 5 0 6 0;
#X connect 5 0 8 0;
#X connect 6 0 5 1;
#X connect 7 0 5 1;
#X connect 8 0 13 1;
#X connect 9 0 39 0;
#X connect 10 0 13 0;
#X connect 11 0 9 1;
#X connect 11 0 39 0;
#X connect 12 0 39 0;
#X connect 13 0 9 0;
#X connect 14 0 15 0;
#X connect 15 0 9 1;
#X connect 16 0 12 0;
#X connect 17 0 7 0;
#X connect 18 0 5 0;
#X connect 18 0 10 0;
#X connect 19 0 18 0;
#X connect 20 0 11 0;
#X connect 21 0 26 0;
#X connect 22 0 25 0;
#X connect 22 0 28 0;
#X connect 22 0 34 0;
#X connect 23 0 22 1;
#X connect 24 0 22 1;
#X connect 25 0 24 0;
#X connect 26 0 22 0;
#X connect 27 0 24 0;
#X connect 29 0 31 0;
#X connect 30 0 32 0;
#X connect 31 0 30 0;
#X connect 33 0 30 1;
#X connect 34 0 23 0;
#X connect 35 0 36 0;
#X connect 35 0 23 0;
#X connect 35 0 37 0;
#X connect 36 0 24 0;
#X connect 37 0 23 0;
#X restore 5 302 pd settings;
#N canvas 1 77 1247 615 writing_and_saving 0;
#X obj 57 472 f;
#X obj 87 472 f;
#X obj 117 472 f;
#X obj 207 472 f;
#X obj 147 472 f;
#X obj 177 472 f;
#X obj 237 472 f;
#N canvas 1165 605 279 299 sp_lb_ue 0;
#X obj 74 107 loadbang;
#X msg 74 132 1;
#X obj 141 107 r urn_empty;
#X msg 141 133 0;
#X obj 36 220 outlet;
#X obj 36 192 spigot;
#X obj 36 68 inlet;
#X connect 0 0 1 0;
#X connect 1 0 5 1;
#X connect 2 0 3 0;
#X connect 3 0 5 1;
#X connect 5 0 4 0;
#X connect 6 0 5 0;
#X restore 7 22 pd sp_lb_ue;
#X obj 7 2 r pn_1;
#X obj 74 292 r \$11-urn;
#X obj 57 592 s paquete;
#X obj 77 62 r paquete;
#X obj 77 82 l2s;
#X obj 17 102 symbol \$1;
#X msg 277 172 clear;
#X obj 147 152 symbol \$1;
#X obj 147 212 textfile;
#X obj 147 2 r urn_empty;
#X obj 247 102 makefilename %s;
#X msg 147 172 write \$1.txt;
#X obj 247 82 l2s;
#X obj 247 2 r s_subj_name;
#X msg 247 22 list output/ID_ \$1;
#X msg 265 62 symbol;
#X obj 265 42 loadbang;
#X obj 277 152 loadbang;
#X msg 17 122 add \$1;
#X obj 147 22 delay 1000;
#X obj 17 42 delay 100;
#X obj 57 512 delay 20;
#X obj 57 532 f;
#X obj 57 492 t b;
#X obj 267 472 f;
#X obj 297 472 f;
#X obj 105 312 r \$1-Sc1;
#X obj 135 332 r \$2-Sc2;
#X obj 165 352 r \$3-Sc3;
#X obj 195 372 r \$4-Sc4;
#X obj 225 392 r \$5-Sc5;
#X obj 255 412 r \$6-Sc6;
#X obj 285 432 r \$7-Sc7;
#X obj 315 452 r \$8-Sc8;
#X obj 545 13 bng 15 250 50 0 empty empty write-STfeature 0 -5 0 10
-262144 -1 -1;
#N canvas 288 75 388 277 save-analysis-1 0;
#X obj 2 2 inlet;
#N canvas 423 77 675 538 write-analysis 0;
#X obj 2 2 inlet;
#X obj 142 512 textfile;
#X msg 142 422 add \$1;
#X obj 142 382 l2s;
#X msg 612 82 clear;
#N canvas 121 126 1106 553 write-statistics 0;
#X obj 384 13 inlet;
#X obj 384 490 outlet;
#N canvas 763 75 450 300 stdev-1_as_symbol 0;
#X obj 35 5 inlet;
#X obj 35 226 outlet;
#X obj 35 178 symbol;
#X msg 35 49 stdev-1;
#X msg 35 153 stdev-1_0;
#X obj 35 101 pack s f;
#X msg 35 120 set \$1_\$2;
#X obj 5 111 t b;
#X symbolatom 35 203 23 0 0 0 - - -, f 23;
#X floatatom 80 74 5 0 0 0 - - -, f 5;
#X obj 35 27 t b;
#X obj 80 7 r data-stdev1;
#X connect 0 0 10 0;
#X connect 2 0 8 0;
#X connect 3 0 5 0;
#X connect 3 0 7 0;
#X connect 4 0 2 0;
#X connect 5 0 6 0;
#X connect 6 0 4 0;
#X connect 7 0 4 0;
#X connect 8 0 1 0;
#X connect 9 0 5 1;
#X connect 10 0 3 0;
#X connect 11 0 9 0;
#X restore 400 85 pd stdev-1_as_symbol;
#N canvas 763 75 450 300 data-mean1_as_symbol 0;
#X obj 35 5 inlet;
#X obj 35 226 outlet;
#X obj 35 178 symbol;
#X msg 35 153 data-mean1_0;
#X obj 35 101 pack s f;
#X msg 35 120 set \$1_\$2;
#X obj 5 111 t b;
#X symbolatom 35 203 23 0 0 0 - - -, f 23;
#X floatatom 80 74 5 0 0 0 - - -, f 5;
#X obj 35 27 t b;
#X obj 80 7 r data-mean1;
#X msg 35 49 data-mean1;
#X connect 0 0 9 0;
#X connect 2 0 7 0;
#X connect 3 0 2 0;
#X connect 4 0 5 0;
#X connect 5 0 3 0;
#X connect 6 0 3 0;
#X connect 7 0 1 0;
#X connect 8 0 4 1;
#X connect 9 0 11 0;
#X connect 10 0 8 0;
#X connect 11 0 4 0;
#X connect 11 0 6 0;
#X restore 417 134 pd data-mean1_as_symbol;
#X obj 417 162 t s;
#X obj 400 113 t s;
#X obj 434 210 t s;
#N canvas 766 50 450 300 data-median1_as_symbol 0;
#X obj 35 5 inlet;
#X obj 35 226 outlet;
#X obj 35 178 symbol;
#X msg 35 153 data-median1_0;
#X obj 35 101 pack s f;
#X msg 35 120 set \$1_\$2;
#X obj 5 111 t b;
#X symbolatom 35 203 23 0 0 0 - - -, f 23;
#X floatatom 80 74 5 0 0 0 - - -, f 5;
#X obj 35 27 t b;
#X obj 80 6 r data-median1;
#X msg 35 49 data-median1;
#X connect 0 0 9 0;
#X connect 2 0 7 0;
#X connect 3 0 2 0;
#X connect 4 0 5 0;
#X connect 5 0 3 0;
#X connect 6 0 3 0;
#X connect 7 0 1 0;
#X connect 8 0 4 1;
#X connect 9 0 11 0;
#X connect 10 0 8 0;
#X connect 11 0 4 0;
#X connect 11 0 6 0;
#X restore 434 182 pd data-median1_as_symbol;
#X obj 450 258 t s;
#N canvas 766 50 450 300 data-1stq1_as_symbol 0;
#X obj 35 5 inlet;
#X obj 35 226 outlet;
#X obj 35 178 symbol;
#X msg 35 153 data-1stq1_0;
#X obj 35 101 pack s f;
#X msg 35 120 set \$1_\$2;
#X obj 5 111 t b;
#X symbolatom 35 203 23 0 0 0 - - -, f 23;
#X floatatom 80 74 5 0 0 0 - - -, f 5;
#X obj 35 27 t b;
#X obj 80 6 r data-1stq1;
#X msg 35 49 data-1stq1;
#X connect 0 0 9 0;
#X connect 2 0 7 0;
#X connect 3 0 2 0;
#X connect 4 0 5 0;
#X connect 5 0 3 0;
#X connect 6 0 3 0;
#X connect 7 0 1 0;
#X connect 8 0 4 1;
#X connect 9 0 11 0;
#X connect 10 0 8 0;
#X connect 11 0 4 0;
#X connect 11 0 6 0;
#X restore 450 230 pd data-1stq1_as_symbol;
#X obj 468 306 t s;
#N canvas 766 50 450 300 data-3rdq1_as_symbol 0;
#X obj 35 5 inlet;
#X obj 35 226 outlet;
#X obj 35 178 symbol;
#X msg 35 153 data-3rdq1_0;
#X obj 35 101 pack s f;
#X msg 35 120 set \$1_\$2;
#X obj 5 111 t b;
#X symbolatom 35 203 23 0 0 0 - - -, f 23;
#X floatatom 80 74 5 0 0 0 - - -, f 5;
#X obj 35 27 t b;
#X obj 80 6 r data-3rdq1;
#X msg 35 49 data-3rdq1;
#X connect 0 0 9 0;
#X connect 2 0 7 0;
#X connect 3 0 2 0;
#X connect 4 0 5 0;
#X connect 5 0 3 0;
#X connect 6 0 3 0;
#X connect 7 0 1 0;
#X connect 8 0 4 1;
#X connect 9 0 11 0;
#X connect 10 0 8 0;
#X connect 11 0 4 0;
#X connect 11 0 6 0;
#X restore 468 278 pd data-3rdq1_as_symbol;
#X obj 484 354 t s;
#N canvas 766 50 450 300 data-dispersion1_as_symbol 0;
#X obj 35 5 inlet;
#X obj 35 226 outlet;
#X obj 35 178 symbol;
#X msg 35 153 data-dispersion1_0;
#X obj 35 101 pack s f;
#X msg 35 120 set \$1_\$2;
#X obj 5 111 t b;
#X symbolatom 35 203 23 0 0 0 - - -, f 23;
#X floatatom 80 74 5 0 0 0 - - -, f 5;
#X obj 35 27 t b;
#X obj 80 6 r data-dispersion1;
#X msg 35 49 data-dispersion1;
#X connect 0 0 9 0;
#X connect 2 0 7 0;
#X connect 3 0 2 0;
#X connect 4 0 5 0;
#X connect 5 0 3 0;
#X connect 6 0 3 0;
#X connect 7 0 1 0;
#X connect 8 0 4 1;
#X connect 9 0 11 0;
#X connect 10 0 8 0;
#X connect 11 0 4 0;
#X connect 11 0 6 0;
#X restore 484 326 pd data-dispersion1_as_symbol;
#X obj 501 402 t s;
#N canvas 766 50 450 300 data-assimetry1_as_symbol 0;
#X obj 35 5 inlet;
#X obj 35 226 outlet;
#X obj 35 178 symbol;
#X msg 35 153 data-assimetry1_0;
#X obj 35 101 pack s f;
#X msg 35 120 set \$1_\$2;
#X obj 5 111 t b;
#X symbolatom 35 203 23 0 0 0 - - -, f 23;
#X floatatom 80 74 5 0 0 0 - - -, f 5;
#X obj 35 27 t b;
#X obj 80 6 r data-assimetry1;
#X msg 35 49 data-assimetry1;
#X connect 0 0 9 0;
#X connect 2 0 7 0;
#X connect 3 0 2 0;
#X connect 4 0 5 0;
#X connect 5 0 3 0;
#X connect 6 0 3 0;
#X connect 7 0 1 0;
#X connect 8 0 4 1;
#X connect 9 0 11 0;
#X connect 10 0 8 0;
#X connect 11 0 4 0;
#X connect 11 0 6 0;
#X restore 501 374 pd data-assimetry1_as_symbol;
#X obj 384 468 pack f s s s s s s s;
#X obj 384 41 t b;
#X connect 0 0 17 0;
#X connect 2 0 5 0;
#X connect 3 0 4 0;
#X connect 4 0 16 2;
#X connect 5 0 16 1;
#X connect 6 0 16 3;
#X connect 7 0 6 0;
#X connect 8 0 16 4;
#X connect 9 0 8 0;
#X connect 10 0 16 5;
#X connect 11 0 10 0;
#X connect 12 0 16 6;
#X connect 13 0 12 0;
#X connect 14 0 16 7;
#X connect 15 0 14 0;
#X connect 16 0 1 0;
#X connect 17 0 2 0;
#X connect 17 0 3 0;
#X connect 17 0 7 0;
#X connect 17 0 9 0;
#X connect 17 0 11 0;
#X connect 17 0 13 0;
#X connect 17 0 15 0;
#X connect 17 0 16 0;
#X restore 142 242 pd write-statistics;
#X obj 412 132 pack f f f;
#X obj 412 92 date ------;
#X obj 322 212 pack s s s;
#X obj 412 182 l2s;
#X msg 2 202 write \$1;
#X obj 142 2 inlet;
#X msg 162 92 stats-feature_1;
#X obj 292 92 r st_feature_1;
#X text 156 158 aqui vc organiza o que vai colocar arquivo de texto
;
#X obj 142 32 t b b b b;
#X connect 0 0 15 0;
#X connect 2 0 1 0;
#X connect 3 0 2 0;
#X connect 4 0 1 0;
#X connect 5 0 3 0;
#X connect 6 0 9 0;
#X connect 7 0 6 2;
#X connect 7 1 6 1;
#X connect 7 2 6 0;
#X connect 8 0 3 0;
#X connect 9 0 8 2;
#X connect 10 0 1 0;
#X connect 11 0 10 0;
#X connect 12 0 8 0;
#X connect 13 0 8 1;
#X connect 15 0 5 0;
#X connect 15 1 12 0;
#X connect 15 2 7 0;
#X connect 15 3 4 0;
#X restore 2 201 pd write-analysis;
#X symbolatom 101 116 17 0 0 0 - - -, f 17;
#X obj 101 179 spigot;
#X obj 134 159 tgl 15 0 empty empty empty 17 7 0 10 -262144 -1 -1 0
1;
#X obj 2 26 t b b b b;
#X obj 101 45 r st_feature;
#X obj 101 138 makefilename acoustic_analysis%s.txt;
#X connect 0 0 5 0;
#X connect 2 0 7 0;
#X connect 3 0 1 1;
#X connect 4 0 3 1;
#X connect 5 0 4 0;
#X connect 5 1 2 0;
#X connect 5 2 4 0;
#X connect 5 3 1 0;
#X connect 6 0 2 0;
#X connect 7 0 3 0;
#X restore 545 33 pd save-analysis-1;
#X obj 57 552 pack f f f f f f f f f f f f f f f f f f f f f f f f
f f f f f f f;
#X obj 327 472 f;
#X obj 357 472 f;
#X obj 447 472 f;
#X obj 387 472 f;
#X obj 417 472 f;
#X obj 477 472 f;
#X obj 507 472 f;
#X obj 537 472 f;
#X obj 567 472 f;
#X obj 597 472 f;
#X obj 687 472 f;
#X obj 627 472 f;
#X obj 657 472 f;
#X obj 717 472 f;
#X obj 747 472 f;
#X obj 777 472 f;
#X obj 807 472 f;
#X obj 837 472 f;
#X obj 927 472 f;
#X obj 867 472 f;
#X obj 897 472 f;
#X obj 957 472 f;
#X obj 345 312 r \$9-Sc9;
#X obj 375 332 r \$10-Sc10;
#X obj 405 352 r \$11-Sc11;
#X obj 435 372 r \$12-Sc12;
#X obj 465 392 r \$13-Sc13;
#X obj 495 412 r \$14-Sc14;
#X obj 525 432 r \$15-Sc15;
#X obj 555 452 r \$16-Sc16;
#X obj 585 312 r \$17-Sc17;
#X obj 615 332 r \$18-Sc18;
#X obj 645 352 r \$19-Sc19;
#X obj 675 372 r \$20-Sc20;
#X obj 705 392 r \$21-Sc21;
#X obj 735 412 r \$22-Sc22;
#X obj 765 432 r \$23-Sc23;
#X obj 795 452 r \$24-Sc24;
#X obj 825 312 r \$25-Sc25;
#X obj 855 332 r \$26-Sc26;
#X obj 885 352 r \$27-Sc27;
#X obj 915 372 r \$28-Sc28;
#X obj 945 392 r \$29-Sc29;
#X obj 975 412 r \$30-Sc30;
#X obj 7 232 t b b b b b b b b b b b b b b b b b b b b b b b b b b
b b b b b b;
#X obj 147 592 print;
#X obj 796 202 tabdump test;
#X obj 796 182 bng 15 250 50 0 empty empty empty 17 7 0 10 -262144
-1 -1;
#X obj 796 222 list;
#X obj 756 252 list append;
#X obj 756 152 t f b;
#X connect 0 0 30 1;
#X connect 0 0 31 0;
#X connect 1 0 44 1;
#X connect 2 0 44 2;
#X connect 3 0 44 5;
#X connect 4 0 44 3;
#X connect 5 0 44 4;
#X connect 6 0 44 6;
#X connect 7 0 28 0;
#X connect 7 0 89 0;
#X connect 8 0 7 0;
#X connect 9 0 0 1;
#X connect 11 0 12 0;
#X connect 12 0 13 1;
#X connect 13 0 26 0;
#X connect 14 0 16 0;
#X connect 15 0 19 0;
#X connect 17 0 27 0;
#X connect 18 0 15 1;
#X connect 19 0 16 0;
#X connect 20 0 18 0;
#X connect 21 0 22 0;
#X connect 22 0 20 0;
#X connect 23 0 20 1;
#X connect 24 0 23 0;
#X connect 25 0 14 0;
#X connect 26 0 16 0;
#X connect 27 0 15 0;
#X connect 28 0 13 0;
#X connect 29 0 30 0;
#X connect 30 0 44 0;
#X connect 31 0 29 0;
#X connect 32 0 44 7;
#X connect 33 0 44 8;
#X connect 34 0 1 1;
#X connect 35 0 2 1;
#X connect 36 0 4 1;
#X connect 37 0 5 1;
#X connect 38 0 3 1;
#X connect 39 0 6 1;
#X connect 40 0 32 1;
#X connect 41 0 33 1;
#X connect 42 0 43 0;
#X connect 44 0 10 0;
#X connect 44 0 90 0;
#X connect 45 0 44 9;
#X connect 46 0 44 10;
#X connect 47 0 44 13;
#X connect 48 0 44 11;
#X connect 49 0 44 12;
#X connect 50 0 44 14;
#X connect 51 0 44 15;
#X connect 52 0 44 16;
#X connect 53 0 44 17;
#X connect 54 0 44 18;
#X connect 55 0 44 21;
#X connect 56 0 44 19;
#X connect 57 0 44 20;
#X connect 58 0 44 22;
#X connect 59 0 44 23;
#X connect 60 0 44 24;
#X connect 61 0 44 25;
#X connect 62 0 44 26;
#X connect 63 0 44 29;
#X connect 64 0 44 27;
#X connect 65 0 44 28;
#X connect 66 0 44 30;
#X connect 67 0 45 1;
#X connect 68 0 46 1;
#X connect 69 0 48 1;
#X connect 70 0 49 1;
#X connect 71 0 47 1;
#X connect 72 0 50 1;
#X connect 73 0 51 1;
#X connect 74 0 52 1;
#X connect 75 0 53 1;
#X connect 76 0 54 1;
#X connect 77 0 56 1;
#X connect 78 0 57 1;
#X connect 79 0 55 1;
#X connect 80 0 58 1;
#X connect 81 0 59 1;
#X connect 82 0 60 1;
#X connect 83 0 61 1;
#X connect 84 0 62 1;
#X connect 85 0 64 1;
#X connect 86 0 65 1;
#X connect 87 0 63 1;
#X connect 88 0 66 1;
#X connect 89 1 66 0;
#X connect 89 2 63 0;
#X connect 89 3 65 0;
#X connect 89 4 64 0;
#X connect 89 5 62 0;
#X connect 89 6 61 0;
#X connect 89 7 60 0;
#X connect 89 8 59 0;
#X connect 89 9 58 0;
#X connect 89 10 55 0;
#X connect 89 11 57 0;
#X connect 89 12 56 0;
#X connect 89 13 54 0;
#X connect 89 14 53 0;
#X connect 89 15 52 0;
#X connect 89 16 51 0;
#X connect 89 17 50 0;
#X connect 89 18 47 0;
#X connect 89 19 49 0;
#X connect 89 20 48 0;
#X connect 89 21 46 0;
#X connect 89 22 45 0;
#X connect 89 23 33 0;
#X connect 89 24 32 0;
#X connect 89 25 6 0;
#X connect 89 26 3 0;
#X connect 89 27 5 0;
#X connect 89 28 4 0;
#X connect 89 29 2 0;
#X connect 89 30 1 0;
#X connect 89 31 0 0;
#X connect 91 0 93 0;
#X connect 92 0 91 0;
#X connect 93 0 94 1;
#X connect 95 0 94 0;
#X connect 95 1 92 0;
#X restore 5 322 pd writing_and_saving;
#N canvas 66 83 1126 461 rating_sliders 0;
#X obj 676 555 s \$555-returnzero;
#X obj 716 485 loadbang;
#X obj 676 455 delay 150;
#X obj 676 375 r pn_1;
#N canvas 1673 606 275 295 sp_lb_ue 0;
#X obj 74 107 loadbang;
#X msg 74 132 1;
#X obj 141 107 r urn_empty;
#X msg 141 133 0;
#X obj 36 220 outlet;
#X obj 36 192 spigot;
#X obj 36 68 inlet;
#X connect 0 0 1 0;
#X connect 1 0 5 1;
#X connect 2 0 3 0;
#X connect 3 0 5 1;
#X connect 5 0 4 0;
#X connect 6 0 5 0;
#X restore 696 425 pd sp_lb_ue;
#X obj 696 405 r pn_1;
#X obj 26 5 r \$1-Scale1;
#X obj 136 5 r \$2-Scale2;
#X obj 246 5 r \$3-Scale3;
#X obj 796 5 r \$8-Scale8;
#X obj 686 5 r \$7-Scale7;
#X obj 576 5 r \$6-Scale6;
#X obj 466 5 r \$5-Scale5;
#X obj 356 5 r \$4-Scale4;
#X obj 906 5 r \$9-Scale9;
#X obj 1016 5 r \$10-Scale10;
#X obj 26 125 r \$11-Scale11;
#X obj 136 125 r \$12-Scale12;
#X obj 246 125 r \$13-Scale13;
#X obj 356 125 r \$14-Scale14;
#X obj 466 125 r \$15-Scale15;
#X obj 576 125 r \$16-Scale16;
#X obj 686 125 r \$17-Scale17;
#X obj 796 125 r \$18-Scale18;
#X obj 906 125 r \$19-Scale19;
#X obj 1016 125 r \$20-Scale20;
#X obj 26 245 r \$21-Scale21;
#X obj 136 245 r \$22-Scale22;
#X obj 246 245 r \$23-Scale23;
#X obj 356 245 r \$24-Scale24;
#X obj 466 245 r \$25-Scale25;
#X obj 576 245 r \$26-Scale26;
#X obj 686 245 r \$27-Scale27;
#X obj 796 245 r \$28-Scale28;
#X obj 906 245 r \$29-Scale29;
#X obj 1016 245 r \$30-Scale30;
#X msg 676 515 0;
#X obj 26 65 pack f f;
#X obj 26 85 s index;
#X obj 184 463 r index;
#X obj 184 483 unpack f f;
#X msg 76 45 0;
#X obj 294 483 max;
#X obj 324 483 f;
#X msg 404 453 0;
#X obj 294 523 + 1;
#X obj 26 25 t f b;
#X obj 184 503 tabwrite test;
#X msg 294 543 \; test resize \$1;
#X obj 404 433 loadbang;
#X obj 184 523 table test;
#X obj 136 65 pack f f;
#X obj 136 85 s index;
#X obj 136 25 t f b;
#X obj 246 65 pack f f;
#X obj 246 85 s index;
#X obj 246 25 t f b;
#X obj 356 65 pack f f;
#X obj 356 85 s index;
#X obj 356 25 t f b;
#X obj 466 65 pack f f;
#X obj 466 85 s index;
#X obj 466 25 t f b;
#X obj 576 65 pack f f;
#X obj 576 85 s index;
#X obj 576 25 t f b;
#X obj 686 65 pack f f;
#X obj 686 85 s index;
#X obj 686 25 t f b;
#X obj 796 65 pack f f;
#X obj 796 85 s index;
#X obj 796 25 t f b;
#X obj 906 65 pack f f;
#X obj 906 85 s index;
#X obj 906 25 t f b;
#X obj 1016 65 pack f f;
#X obj 1016 85 s index;
#X obj 1016 25 t f b;
#X obj 26 185 pack f f;
#X obj 26 205 s index;
#X obj 26 145 t f b;
#X obj 136 185 pack f f;
#X obj 136 205 s index;
#X obj 136 145 t f b;
#X obj 246 185 pack f f;
#X obj 246 205 s index;
#X obj 246 145 t f b;
#X obj 356 185 pack f f;
#X obj 356 205 s index;
#X obj 356 145 t f b;
#X obj 466 185 pack f f;
#X obj 466 205 s index;
#X obj 466 145 t f b;
#X obj 576 185 pack f f;
#X obj 576 205 s index;
#X obj 576 145 t f b;
#X obj 686 185 pack f f;
#X obj 686 205 s index;
#X obj 686 145 t f b;
#X obj 796 185 pack f f;
#X obj 796 205 s index;
#X obj 796 145 t f b;
#X obj 1016 185 pack f f;
#X obj 1016 205 s index;
#X obj 1016 145 t f b;
#X obj 26 305 pack f f;
#X obj 26 325 s index;
#X obj 26 265 t f b;
#X obj 136 305 pack f f;
#X obj 136 325 s index;
#X obj 136 265 t f b;
#X obj 246 305 pack f f;
#X obj 246 325 s index;
#X obj 246 265 t f b;
#X obj 356 305 pack f f;
#X obj 356 325 s index;
#X obj 356 265 t f b;
#X obj 466 305 pack f f;
#X obj 466 325 s index;
#X obj 466 265 t f b;
#X obj 576 305 pack f f;
#X obj 576 325 s index;
#X obj 576 265 t f b;
#X obj 686 305 pack f f;
#X obj 686 325 s index;
#X obj 686 265 t f b;
#X obj 796 305 pack f f;
#X obj 796 325 s index;
#X obj 796 265 t f b;
#X obj 906 305 pack f f;
#X obj 906 325 s index;
#X obj 906 265 t f b;
#X obj 1016 305 pack f f;
#X obj 1016 325 s index;
#X obj 1016 265 t f b;
#X msg 186 45 1;
#X msg 296 45 2;
#X msg 406 45 3;
#X msg 516 45 4;
#X msg 626 45 5;
#X msg 736 45 6;
#X msg 846 45 7;
#X msg 956 45 8;
#X msg 1066 45 9;
#X msg 76 165 10;
#X msg 186 165 11;
#X msg 296 165 12;
#X msg 406 165 13;
#X msg 516 165 14;
#X msg 626 165 15, f 2;
#X msg 736 165 16;
#X msg 846 165 17;
#X obj 906 185 pack f f;
#X obj 906 205 s index;
#X obj 906 145 t f b;
#X msg 956 165 18;
#X msg 1066 165 19;
#X msg 76 285 20;
#X msg 186 285 21;
#X msg 296 285 22;
#X msg 406 285 23;
#X msg 516 285 24;
#X msg 626 285 25;
#X msg 736 285 26;
#X msg 846 285 27;
#X msg 956 285 28;
#X msg 1066 285 39;
#X connect 1 0 36 0;
#X connect 2 0 36 0;
#X connect 3 0 2 0;
#X connect 4 0 2 0;
#X connect 5 0 4 0;
#X connect 6 0 46 0;
#X connect 7 0 53 0;
#X connect 8 0 56 0;
#X connect 9 0 71 0;
#X connect 10 0 68 0;
#X connect 11 0 65 0;
#X connect 12 0 62 0;
#X connect 13 0 59 0;
#X connect 14 0 74 0;
#X connect 15 0 77 0;
#X connect 16 0 80 0;
#X connect 17 0 83 0;
#X connect 18 0 86 0;
#X connect 19 0 89 0;
#X connect 20 0 92 0;
#X connect 21 0 95 0;
#X connect 22 0 98 0;
#X connect 23 0 101 0;
#X connect 24 0 154 0;
#X connect 25 0 104 0;
#X connect 26 0 107 0;
#X connect 27 0 110 0;
#X connect 28 0 113 0;
#X connect 29 0 116 0;
#X connect 30 0 119 0;
#X connect 31 0 122 0;
#X connect 32 0 125 0;
#X connect 33 0 128 0;
#X connect 34 0 131 0;
#X connect 35 0 134 0;
#X connect 36 0 0 0;
#X connect 37 0 38 0;
#X connect 39 0 40 0;
#X connect 40 0 47 0;
#X connect 40 1 42 0;
#X connect 40 1 47 1;
#X connect 41 0 37 1;
#X connect 42 0 43 0;
#X connect 42 0 45 0;
#X connect 43 0 42 1;
#X connect 44 0 42 1;
#X connect 44 0 48 0;
#X connect 45 0 48 0;
#X connect 46 0 37 0;
#X connect 46 1 41 0;
#X connect 49 0 44 0;
#X connect 51 0 52 0;
#X connect 53 0 51 0;
#X connect 53 1 135 0;
#X connect 54 0 55 0;
#X connect 56 0 54 0;
#X connect 56 1 136 0;
#X connect 57 0 58 0;
#X connect 59 0 57 0;
#X connect 59 1 137 0;
#X connect 60 0 61 0;
#X connect 62 0 60 0;
#X connect 62 1 138 0;
#X connect 63 0 64 0;
#X connect 65 0 63 0;
#X connect 65 1 139 0;
#X connect 66 0 67 0;
#X connect 68 0 66 0;
#X connect 68 1 140 0;
#X connect 69 0 70 0;
#X connect 71 0 69 0;
#X connect 71 1 141 0;
#X connect 72 0 73 0;
#X connect 74 0 72 0;
#X connect 74 1 142 0;
#X connect 75 0 76 0;
#X connect 77 0 75 0;
#X connect 77 1 143 0;
#X connect 78 0 79 0;
#X connect 80 0 78 0;
#X connect 80 1 144 0;
#X connect 81 0 82 0;
#X connect 83 0 81 0;
#X connect 83 1 145 0;
#X connect 84 0 85 0;
#X connect 86 0 84 0;
#X connect 86 1 146 0;
#X connect 87 0 88 0;
#X connect 89 0 87 0;
#X connect 89 1 147 0;
#X connect 90 0 91 0;
#X connect 92 0 90 0;
#X connect 92 1 148 0;
#X connect 93 0 94 0;
#X connect 95 0 93 0;
#X connect 95 1 149 0;
#X connect 96 0 97 0;
#X connect 98 0 96 0;
#X connect 98 1 150 0;
#X connect 99 0 100 0;
#X connect 101 0 99 0;
#X connect 101 1 151 0;
#X connect 102 0 103 0;
#X connect 104 0 102 0;
#X connect 104 1 156 0;
#X connect 105 0 106 0;
#X connect 107 0 105 0;
#X connect 107 1 157 0;
#X connect 108 0 109 0;
#X connect 110 0 108 0;
#X connect 110 1 158 0;
#X connect 111 0 112 0;
#X connect 113 0 111 0;
#X connect 113 1 159 0;
#X connect 114 0 115 0;
#X connect 116 0 114 0;
#X connect 116 1 160 0;
#X connect 117 0 118 0;
#X connect 119 0 117 0;
#X connect 119 1 161 0;
#X connect 120 0 121 0;
#X connect 122 0 120 0;
#X connect 122 1 162 0;
#X connect 123 0 124 0;
#X connect 125 0 123 0;
#X connect 125 1 163 0;
#X connect 126 0 127 0;
#X connect 128 0 126 0;
#X connect 128 1 164 0;
#X connect 129 0 130 0;
#X connect 131 0 129 0;
#X connect 131 1 165 0;
#X connect 132 0 133 0;
#X connect 134 0 132 0;
#X connect 134 1 166 0;
#X connect 135 0 51 1;
#X connect 136 0 54 1;
#X connect 137 0 57 1;
#X connect 138 0 60 1;
#X connect 139 0 63 1;
#X connect 140 0 66 1;
#X connect 141 0 69 1;
#X connect 142 0 72 1;
#X connect 143 0 75 1;
#X connect 144 0 78 1;
#X connect 145 0 81 1;
#X connect 146 0 84 1;
#X connect 147 0 87 1;
#X connect 148 0 90 1;
#X connect 149 0 93 1;
#X connect 150 0 96 1;
#X connect 151 0 99 1;
#X connect 152 0 153 0;
#X connect 154 0 152 0;
#X connect 154 1 155 0;
#X connect 155 0 152 1;
#X connect 156 0 102 1;
#X connect 157 0 105 1;
#X connect 158 0 108 1;
#X connect 159 0 111 1;
#X connect 160 0 114 1;
#X connect 161 0 117 1;
#X connect 162 0 120 1;
#X connect 163 0 123 1;
#X connect 164 0 126 1;
#X connect 165 0 129 1;
#X connect 166 0 132 1;
#X restore 5 342 pd rating_sliders;
#X obj 105 72 bng 20 250 50 0 reset_all empty Reset_and_clear_duplicates!
-60 30 0 10 -258113 -260097 -1;
#N canvas 1 77 572 387 reset_all 1;
#X obj 9 2 r reset_all;
#X obj 9 42 t b b b b b b;
#X msg 79 142 \; pd-training.pd editmode 1 \, mouse -201 219 0 0 \,
mouseup -199 221 0 \, cut \, editmode 0 \;;
#X msg 61 192 \; pd-training.pd editmode 1 \, mouse -201 199 0 0 \,
mouseup -199 201 0 \, cut \, editmode 0 \;;
#X msg 97 62 \; pd-interface vis 1 \; pd-interface editmode 1 \, mouse
184 22 0 0 \, mouseup 186 24 0 \, cut \, editmode 0 \; pd-interface
vis 0 \;;
#X msg 26 282 \; pd-define_urn_number clear \;;
#X msg 44 242 \; reset_nmbr_samp 0 \;;
#X connect 0 0 1 0;
#X connect 1 1 5 0;
#X connect 1 2 6 0;
#X connect 1 3 3 0;
#X connect 1 4 2 0;
#X connect 1 5 4 0;
#X restore 5 362 pd reset_all;
#N canvas 30 78 1312 689 visual_experiment 0;
#X obj 1 91 cnv 15 1293 595 empty empty empty 20 12 0 14 -128992 -66577
0;
#X obj 12 107 hradio 19 1 0 11 \$1-Scale1 \$555-returnzero 1-Brilliant
0 -8 0 11 -262144 -1 -1 0;
#X obj 12 167 hradio 19 1 0 11 \$2-Scale2 \$555-returnzero 2-Hollow
0 -8 0 11 -262144 -1 -1 0;
#X obj 12 227 hradio 19 1 0 11 \$3-Scale3 \$555-returnzero 3-Clear
0 -8 0 11 -262144 -1 -1 0;
#X obj 12 287 hradio 19 1 0 11 \$4-Scale4 \$555-returnzero 4-Rough
0 -8 0 11 -262144 -1 -1 0;
#X obj 12 347 hradio 19 1 0 11 \$5-Scale5 \$555-returnzero 5-Metallic
0 -8 0 11 -262144 -1 -1 0;
#X obj 12 407 hradio 19 1 0 11 \$6-Scale6 \$555-returnzero 6-Warm 0
-8 0 11 -262144 -1 -1 0;
#X obj 12 467 hradio 19 1 0 11 \$7-Scale7 \$555-returnzero 7-Smooth
0 -8 0 11 -262144 -1 -1 0;
#X obj 12 527 hradio 19 1 0 11 \$8-Scale8 \$555-returnzero 8-Thick
0 -8 0 11 -262144 -1 -1 0;
#X obj 12 587 hradio 19 1 0 11 \$9-Scale9 \$555-returnzero 9-Rounded
0 -8 0 11 -262144 -1 -1 0;
#X obj 12 647 hradio 19 1 0 11 \$10-Scale10 \$555-returnzero 10-Harsh
0 -8 0 11 -262144 -1 -1 0;
#X obj 322 107 hradio 19 1 0 11 \$11-Scale11 \$555-returnzero 11-Dull
0 -8 0 11 -262144 -1 -1 0;
#X obj 322 167 hradio 19 1 0 11 \$12-Scale12 \$555-returnzero 12-Thin
0 -8 0 11 -262144 -1 -1 0;
#X obj 322 227 hradio 19 1 0 11 \$13-Scale13 \$555-returnzero 13-Shrill
0 -8 0 11 -262144 -1 -1 0;
#X obj 322 287 hradio 19 1 0 11 \$14-Scale14 \$555-returnzero 14-Cold
0 -8 0 11 -262144 -1 -1 0;
#X obj 322 347 hradio 19 1 0 11 \$15-Scale15 \$555-returnzero 15-Distinct
0 -8 0 11 -262144 -1 -1 0;
#X obj 322 407 hradio 19 1 0 11 \$16-Scale16 \$555-returnzero 16-Sharp
0 -8 0 11 -262144 -1 -1 0;
#X obj 322 467 hradio 19 1 0 11 \$17-Scale17 \$555-returnzero 17-Rich
0 -8 0 11 -262144 -1 -1 0;
#X obj 322 527 hradio 19 1 0 11 \$18-Scale18 \$555-returnzero 18-Bright
0 -8 0 11 -262144 -1 -1 0;
#X obj 322 587 hradio 19 1 0 11 \$19-Scale19 \$555-returnzero 19-Dense
0 -8 0 11 -262144 -1 -1 0;
#X obj 322 647 hradio 19 1 0 11 \$20-Scale20 \$555-returnzero 20-Full
0 -8 0 11 -262144 -1 -1 0;
#X obj 632 107 hradio 19 1 0 11 \$21-Scale21 \$555-returnzero 21-Nasal
0 -8 0 11 -262144 -1 -1 0;
#X obj 632 167 hradio 19 1 0 11 \$22-Scale22 \$555-returnzero 22-Soft
0 -8 0 11 -262144 -1 -1 0;
#X obj 632 227 hradio 19 1 0 11 \$23-Scale23 \$555-returnzero 23-Dark
0 -8 0 11 -262144 -1 -1 0;
#X obj 632 287 hradio 19 1 0 11 \$24-Scale24 \$555-returnzero 24-Compact
0 -8 0 11 -262144 -1 -1 0;
#X obj 632 347 hradio 19 1 0 11 \$25-Scale25 \$555-returnzero 25-Dirty
0 -8 0 11 -262144 -1 -1 0;
#X obj 632 407 hradio 19 1 0 11 \$26-Scale26 \$555-returnzero 26-Empty
0 -8 0 11 -262144 -1 -1 0;
#X obj 632 467 hradio 19 1 0 11 \$27-Scale27 \$555-returnzero 27-Messy
0 -8 0 11 -262144 -1 -1 0;
#X obj 632 527 hradio 19 1 0 11 \$28-Scale28 \$555-returnzero 28-Light
0 -8 0 11 -262144 -1 -1 0;
#X obj 632 587 hradio 19 1 0 11 \$29-Scale29 \$555-returnzero 29-Dry
0 -8 0 11 -262144 -1 -1 0;
#X obj 632 647 hradio 19 1 0 11 \$30-Scale30 \$555-returnzero 30-Deep
0 -8 0 11 -262144 -1 -1 0;
#X obj 912 567 bng 40 250 50 0 play_next next_example Play_next 50
20 1 13 -13381 -215465 -1;
#X obj 912 117 bng 40 250 50 0 play_again nothing_but_take_away_the_slash
Play_again 50 20 1 12 -67108 -183351 -1;
#X text 909 163 Plays the current sample again;
#X text 909 373 Press to play the sample looped. Press again to stop
looping.;
#X text 910 613 Once you finished rating \, press to proceed to the
next sample;
#X text 14 128 0;
#X text 34 128 1;
#X text 54 128 2;
#X text 74 128 3;
#X text 90 128 4;
#X text 110 128 5;
#X text 130 128 6;
#X text 150 128 7;
#X text 167 128 8;
#X text 187 128 9;
#X text 204 128 10;
#X text 14 188 0;
#X text 34 188 1;
#X text 54 188 2;
#X text 74 188 3;
#X text 90 188 4;
#X text 110 188 5;
#X text 130 188 6;
#X text 150 188 7;
#X text 167 188 8;
#X text 187 188 9;
#X text 204 188 10;
#X text 14 248 0;
#X text 34 248 1;
#X text 54 248 2;
#X text 74 248 3;
#X text 90 248 4;
#X text 110 248 5;
#X text 130 248 6;
#X text 150 248 7;
#X text 167 248 8;
#X text 187 248 9;
#X text 204 248 10;
#X text 14 308 0;
#X text 34 308 1;
#X text 54 308 2;
#X text 74 308 3;
#X text 90 308 4;
#X text 110 308 5;
#X text 130 308 6;
#X text 150 308 7;
#X text 167 308 8;
#X text 187 308 9;
#X text 204 308 10;
#X text 14 368 0;
#X text 34 368 1;
#X text 54 368 2;
#X text 74 368 3;
#X text 90 368 4;
#X text 110 368 5;
#X text 130 368 6;
#X text 150 368 7;
#X text 167 368 8;
#X text 187 368 9;
#X text 204 368 10;
#X text 14 428 0;
#X text 34 428 1;
#X text 54 428 2;
#X text 74 428 3;
#X text 90 428 4;
#X text 110 428 5;
#X text 130 428 6;
#X text 150 428 7;
#X text 167 428 8;
#X text 187 428 9;
#X text 204 428 10;
#X text 14 488 0;
#X text 34 488 1;
#X text 54 488 2;
#X text 74 488 3;
#X text 90 488 4;
#X text 110 488 5;
#X text 130 488 6;
#X text 150 488 7;
#X text 167 488 8;
#X text 187 488 9;
#X text 204 488 10;
#X text 14 548 0;
#X text 34 548 1;
#X text 54 548 2;
#X text 74 548 3;
#X text 90 548 4;
#X text 110 548 5;
#X text 130 548 6;
#X text 150 548 7;
#X text 167 548 8;
#X text 187 548 9;
#X text 204 548 10;
#X text 14 608 0;
#X text 34 608 1;
#X text 54 608 2;
#X text 74 608 3;
#X text 90 608 4;
#X text 110 608 5;
#X text 130 608 6;
#X text 150 608 7;
#X text 167 608 8;
#X text 187 608 9;
#X text 204 608 10;
#X text 14 668 0;
#X text 34 668 1;
#X text 54 668 2;
#X text 74 668 3;
#X text 90 668 4;
#X text 110 668 5;
#X text 130 668 6;
#X text 150 668 7;
#X text 167 668 8;
#X text 187 668 9;
#X text 204 668 10;
#X text 324 128 0;
#X text 344 128 1;
#X text 364 128 2;
#X text 384 128 3;
#X text 400 128 4;
#X text 420 128 5;
#X text 440 128 6;
#X text 460 128 7;
#X text 477 128 8;
#X text 497 128 9;
#X text 514 128 10;
#X text 324 188 0;
#X text 344 188 1;
#X text 364 188 2;
#X text 384 188 3;
#X text 400 188 4;
#X text 420 188 5;
#X text 440 188 6;
#X text 460 188 7;
#X text 477 188 8;
#X text 497 188 9;
#X text 514 188 10;
#X text 324 248 0;
#X text 344 248 1;
#X text 364 248 2;
#X text 384 248 3;
#X text 400 248 4;
#X text 420 248 5;
#X text 440 248 6;
#X text 460 248 7;
#X text 477 248 8;
#X text 497 248 9;
#X text 514 248 10;
#X text 324 308 0;
#X text 344 308 1;
#X text 364 308 2;
#X text 384 308 3;
#X text 400 308 4;
#X text 420 308 5;
#X text 440 308 6;
#X text 460 308 7;
#X text 477 308 8;
#X text 497 308 9;
#X text 514 308 10;
#X text 324 368 0;
#X text 344 368 1;
#X text 364 368 2;
#X text 384 368 3;
#X text 400 368 4;
#X text 420 368 5;
#X text 440 368 6;
#X text 460 368 7;
#X text 477 368 8;
#X text 497 368 9;
#X text 514 368 10;
#X text 324 428 0;
#X text 344 428 1;
#X text 364 428 2;
#X text 384 428 3;
#X text 400 428 4;
#X text 420 428 5;
#X text 440 428 6;
#X text 460 428 7;
#X text 477 428 8;
#X text 497 428 9;
#X text 514 428 10;
#X text 324 488 0;
#X text 344 488 1;
#X text 364 488 2;
#X text 384 488 3;
#X text 400 488 4;
#X text 420 488 5;
#X text 440 488 6;
#X text 460 488 7;
#X text 477 488 8;
#X text 497 488 9;
#X text 514 488 10;
#X text 324 548 0;
#X text 344 548 1;
#X text 364 548 2;
#X text 384 548 3;
#X text 400 548 4;
#X text 420 548 5;
#X text 440 548 6;
#X text 460 548 7;
#X text 477 548 8;
#X text 497 548 9;
#X text 514 548 10;
#X text 324 608 0;
#X text 344 608 1;
#X text 364 608 2;
#X text 384 608 3;
#X text 400 608 4;
#X text 420 608 5;
#X text 440 608 6;
#X text 460 608 7;
#X text 477 608 8;
#X text 497 608 9;
#X text 514 608 10;
#X text 324 668 0;
#X text 344 668 1;
#X text 364 668 2;
#X text 384 668 3;
#X text 400 668 4;
#X text 420 668 5;
#X text 440 668 6;
#X text 460 668 7;
#X text 477 668 8;
#X text 497 668 9;
#X text 514 668 10;
#X text 634 128 0;
#X text 654 128 1;
#X text 674 128 2;
#X text 694 128 3;
#X text 710 128 4;
#X text 730 128 5;
#X text 750 128 6;
#X text 770 128 7;
#X text 787 128 8;
#X text 807 128 9;
#X text 824 128 10;
#X text 634 188 0;
#X text 654 188 1;
#X text 674 188 2;
#X text 694 188 3;
#X text 710 188 4;
#X text 730 188 5;
#X text 750 188 6;
#X text 770 188 7;
#X text 787 188 8;
#X text 807 188 9;
#X text 824 188 10;
#X text 634 248 0;
#X text 654 248 1;
#X text 674 248 2;
#X text 694 248 3;
#X text 710 248 4;
#X text 730 248 5;
#X text 750 248 6;
#X text 770 248 7;
#X text 787 248 8;
#X text 807 248 9;
#X text 824 248 10;
#X text 634 308 0;
#X text 654 308 1;
#X text 674 308 2;
#X text 694 308 3;
#X text 710 308 4;
#X text 730 308 5;
#X text 750 308 6;
#X text 770 308 7;
#X text 787 308 8;
#X text 807 308 9;
#X text 824 308 10;
#X text 634 368 0;
#X text 654 368 1;
#X text 674 368 2;
#X text 694 368 3;
#X text 710 368 4;
#X text 730 368 5;
#X text 750 368 6;
#X text 770 368 7;
#X text 787 368 8;
#X text 807 368 9;
#X text 824 368 10;
#X text 634 428 0;
#X text 654 428 1;
#X text 674 428 2;
#X text 694 428 3;
#X text 710 428 4;
#X text 730 428 5;
#X text 750 428 6;
#X text 770 428 7;
#X text 787 428 8;
#X text 807 428 9;
#X text 824 428 10;
#X text 634 488 0;
#X text 654 488 1;
#X text 674 488 2;
#X text 694 488 3;
#X text 710 488 4;
#X text 730 488 5;
#X text 750 488 6;
#X text 770 488 7;
#X text 787 488 8;
#X text 807 488 9;
#X text 824 488 10;
#X text 634 548 0;
#X text 654 548 1;
#X text 674 548 2;
#X text 694 548 3;
#X text 710 548 4;
#X text 730 548 5;
#X text 750 548 6;
#X text 770 548 7;
#X text 787 548 8;
#X text 807 548 9;
#X text 824 548 10;
#X text 634 608 0;
#X text 654 608 1;
#X text 674 608 2;
#X text 694 608 3;
#X text 710 608 4;
#X text 730 608 5;
#X text 750 608 6;
#X text 770 608 7;
#X text 787 608 8;
#X text 807 608 9;
#X text 824 608 10;
#X text 634 668 0;
#X text 654 668 1;
#X text 674 668 2;
#X text 694 668 3;
#X text 710 668 4;
#X text 730 668 5;
#X text 750 668 6;
#X text 770 668 7;
#X text 787 668 8;
#X text 807 668 9;
#X text 824 668 10;
#X obj 1123 68 bang;
#X obj 1123 68 s start_button;
#X obj 1123 1 r reset_start_button;
#X msg 1123 1 0;
#X obj 1 1 cnv 15 1293 89 empty empty empty 20 12 0 14 -203904 -66577
0;
#X obj 6 26 nbx 7 47 -1e+37 1e+37 0 0 empty snd_number Sequence_Of_The_Experiment
0 -8 1 13 -262144 -1 -1 0 256;
#X obj 206 26 nbx 7 47 -1e+37 1e+37 0 0 empty nmbr_of_trials Number_Of_Trials
0 -8 1 13 -262144 -1 -1 0 256;
#X text 138 43 OF;
#X obj 1123 18 tgl 59 0 start_button empty To_Start_Experiment_Session
-191 29 1 13 -258113 -1 -1 0 1;
#X obj 912 327 tgl 40 0 play_loop loop Play_Loop 49 19 1 13 -4032 -1
-1 0 1;
#X connect 366 0 367 0;
#X connect 368 0 369 0;
#X connect 369 0 374 0;
#X connect 374 0 366 0;
#X restore 5 212 pd visual_experiment;
#X connect 5 0 4 0;
#X connect 7 0 8 0;
#X connect 12 0 13 0;
#X connect 15 0 16 0;
