#N canvas 577 77 702 502 10;
#N canvas 15 84 1297 683 visual_training 0;
#X obj 12 101 hradio 19 1 0 11 empty empty Brilliant 0 -8 0 11 -262144
-1 -1 0;
#X obj 12 161 hradio 19 1 0 11 empty empty Hollow 0 -8 0 11 -262144
-1 -1 5;
#X obj 12 221 hradio 19 1 0 11 empty empty Clear 0 -8 0 11 -262144
-1 -1 0;
#X obj 12 281 hradio 19 1 0 11 empty empty Rough 0 -8 0 11 -262144
-1 -1 0;
#X obj 12 341 hradio 19 1 0 11 empty empty Metallic 0 -8 0 11 -262144
-1 -1 0;
#X obj 12 401 hradio 19 1 0 11 empty empty Warm 0 -8 0 11 -262144 -1
-1 0;
#X obj 12 461 hradio 19 1 0 11 empty empty Smooth 0 -8 0 11 -262144
-1 -1 0;
#X obj 12 521 hradio 19 1 0 11 empty empty Thick 0 -8 0 11 -262144
-1 -1 0;
#X obj 12 581 hradio 19 1 0 11 empty empty Rounded 0 -8 0 11 -262144
-1 -1 0;
#X obj 12 641 hradio 19 1 0 11 empty empty Harsh 0 -8 0 11 -262144
-1 -1 0;
#X obj 332 101 hradio 19 1 0 11 empty empty Dull 0 -8 0 11 -262144
-1 -1 0;
#X obj 332 161 hradio 19 1 0 11 empty empty Thin 0 -8 0 11 -262144
-1 -1 0;
#X obj 332 221 hradio 19 1 0 11 empty empty Shrill 0 -8 0 11 -262144
-1 -1 0;
#X obj 332 281 hradio 19 1 0 11 empty empty Cold 0 -8 0 11 -262144
-1 -1 0;
#X obj 332 341 hradio 19 1 0 11 empty empty Distinct 0 -8 0 11 -262144
-1 -1 0;
#X obj 332 401 hradio 19 1 0 11 empty empty Sharp 0 -8 0 11 -262144
-1 -1 0;
#X obj 332 461 hradio 19 1 0 11 empty empty Rich 0 -8 0 11 -262144
-1 -1 0;
#X obj 332 521 hradio 19 1 0 11 empty empty Bright 0 -8 0 11 -262144
-1 -1 0;
#X obj 332 581 hradio 19 1 0 11 empty empty Dense 0 -8 0 11 -262144
-1 -1 0;
#X obj 332 641 hradio 19 1 0 11 empty empty Full 0 -8 0 11 -262144
-1 -1 0;
#X obj 642 161 hradio 19 1 0 11 empty empty Soft 0 -8 0 11 -262144
-1 -1 0;
#X obj 642 221 hradio 19 1 0 11 empty empty Dark 0 -8 0 11 -262144
-1 -1 0;
#X obj 642 281 hradio 19 1 0 11 empty empty Compact 0 -8 0 11 -262144
-1 -1 0;
#X obj 642 341 hradio 19 1 0 11 empty empty Dirty 0 -8 0 11 -262144
-1 -1 0;
#X obj 642 401 hradio 19 1 0 11 empty empty Empty 0 -8 0 11 -262144
-1 -1 0;
#X obj 642 461 hradio 19 1 0 11 empty empty Messy 0 -8 0 11 -262144
-1 -1 0;
#X obj 642 521 hradio 19 1 0 11 empty empty Light 0 -8 0 11 -262144
-1 -1 0;
#X obj 642 581 hradio 19 1 0 11 empty empty Dry 0 -8 0 11 -262144 -1
-1 0;
#X obj 642 641 hradio 19 1 0 11 empty empty Deep 0 -8 0 11 -262144
-1 -1 0;
#X obj 1095 1 r close_visual_training;
#X msg 1095 21 \; pd-visual_training vis 0 \;;
#X obj 902 597 bng 40 250 50 0 empty empty Play_next 50 20 1 13 -13381
-215465 -1;
#X obj 902 117 bng 40 250 50 0 empty empty Play_again 50 20 1 12 -67108
-183351 -1;
#X obj 902 347 bng 40 250 50 0 empty empty Play_loop 50 20 1 13 -232576
-1 -1;
#X text 899 163 Plays the current sample again;
#X obj 1 1 cnv 15 1279 83 empty empty empty 20 12 0 14 -203904 -66577
0;
#X text 352 8 These are the scales that are going to be used to evaluate
the sound examples. Rate them according to the appropriateness of each
scale to each of the excerpts heard.;
#X obj 1255 59 bng 23 250 50 0 close_visual_training empty empty 17
7 0 11 -258113 -1 -1;
#X text 1019 63 To Close Rating Session Training;
#X text 899 393 Press to play the sample looped. Press again to stop
looping.;
#X text 900 643 Once you finished rating \, press to proceed to the
next sample;
#X text 11 122 0;
#X text 31 122 1;
#X text 51 122 2;
#X text 71 122 3;
#X text 87 122 4;
#X text 107 122 5;
#X text 127 122 6;
#X text 147 122 7;
#X text 164 122 8;
#X text 184 122 9;
#X text 201 122 10;
#X text 11 182 0;
#X text 31 182 1;
#X text 51 182 2;
#X text 71 182 3;
#X text 87 182 4;
#X text 107 182 5;
#X text 127 182 6;
#X text 147 182 7;
#X text 164 182 8;
#X text 184 182 9;
#X text 201 182 10;
#X text 11 242 0;
#X text 31 242 1;
#X text 51 242 2;
#X text 71 242 3;
#X text 87 242 4;
#X text 107 242 5;
#X text 127 242 6;
#X text 147 242 7;
#X text 164 242 8;
#X text 184 242 9;
#X text 201 242 10;
#X text 11 302 0;
#X text 31 302 1;
#X text 51 302 2;
#X text 71 302 3;
#X text 87 302 4;
#X text 107 302 5;
#X text 127 302 6;
#X text 147 302 7;
#X text 164 302 8;
#X text 184 302 9;
#X text 201 302 10;
#X text 11 362 0;
#X text 31 362 1;
#X text 51 362 2;
#X text 71 362 3;
#X text 87 362 4;
#X text 107 362 5;
#X text 127 362 6;
#X text 147 362 7;
#X text 164 362 8;
#X text 184 362 9;
#X text 201 362 10;
#X text 11 422 0;
#X text 31 422 1;
#X text 51 422 2;
#X text 71 422 3;
#X text 87 422 4;
#X text 107 422 5;
#X text 127 422 6;
#X text 147 422 7;
#X text 164 422 8;
#X text 184 422 9;
#X text 201 422 10;
#X text 11 482 0;
#X text 31 482 1;
#X text 51 482 2;
#X text 71 482 3;
#X text 87 482 4;
#X text 107 482 5;
#X text 127 482 6;
#X text 147 482 7;
#X text 164 482 8;
#X text 184 482 9;
#X text 201 482 10;
#X text 11 542 0;
#X text 31 542 1;
#X text 51 542 2;
#X text 71 542 3;
#X text 87 542 4;
#X text 107 542 5;
#X text 127 542 6;
#X text 147 542 7;
#X text 164 542 8;
#X text 184 542 9;
#X text 201 542 10;
#X text 11 602 0;
#X text 31 602 1;
#X text 51 602 2;
#X text 71 602 3;
#X text 87 602 4;
#X text 107 602 5;
#X text 127 602 6;
#X text 147 602 7;
#X text 164 602 8;
#X text 184 602 9;
#X text 201 602 10;
#X text 11 662 0;
#X text 31 662 1;
#X text 51 662 2;
#X text 71 662 3;
#X text 87 662 4;
#X text 107 662 5;
#X text 127 662 6;
#X text 147 662 7;
#X text 164 662 8;
#X text 184 662 9;
#X text 201 662 10;
#X text 331 122 0;
#X text 351 122 1;
#X text 371 122 2;
#X text 391 122 3;
#X text 407 122 4;
#X text 427 122 5;
#X text 447 122 6;
#X text 467 122 7;
#X text 484 122 8;
#X text 504 122 9;
#X text 521 122 10;
#X text 331 182 0;
#X text 351 182 1;
#X text 371 182 2;
#X text 391 182 3;
#X text 407 182 4;
#X text 427 182 5;
#X text 447 182 6;
#X text 467 182 7;
#X text 484 182 8;
#X text 504 182 9;
#X text 521 182 10;
#X text 331 242 0;
#X text 351 242 1;
#X text 371 242 2;
#X text 391 242 3;
#X text 407 242 4;
#X text 427 242 5;
#X text 447 242 6;
#X text 467 242 7;
#X text 484 242 8;
#X text 504 242 9;
#X text 521 242 10;
#X text 331 302 0;
#X text 351 302 1;
#X text 371 302 2;
#X text 391 302 3;
#X text 407 302 4;
#X text 427 302 5;
#X text 447 302 6;
#X text 467 302 7;
#X text 484 302 8;
#X text 504 302 9;
#X text 521 302 10;
#X text 331 362 0;
#X text 351 362 1;
#X text 371 362 2;
#X text 391 362 3;
#X text 407 362 4;
#X text 427 362 5;
#X text 447 362 6;
#X text 467 362 7;
#X text 484 362 8;
#X text 504 362 9;
#X text 521 362 10;
#X text 331 422 0;
#X text 351 422 1;
#X text 371 422 2;
#X text 391 422 3;
#X text 407 422 4;
#X text 427 422 5;
#X text 447 422 6;
#X text 467 422 7;
#X text 484 422 8;
#X text 504 422 9;
#X text 521 422 10;
#X text 331 482 0;
#X text 351 482 1;
#X text 371 482 2;
#X text 391 482 3;
#X text 407 482 4;
#X text 427 482 5;
#X text 447 482 6;
#X text 467 482 7;
#X text 484 482 8;
#X text 504 482 9;
#X text 521 482 10;
#X text 331 542 0;
#X text 351 542 1;
#X text 371 542 2;
#X text 391 542 3;
#X text 407 542 4;
#X text 427 542 5;
#X text 447 542 6;
#X text 467 542 7;
#X text 484 542 8;
#X text 504 542 9;
#X text 521 542 10;
#X text 331 602 0;
#X text 351 602 1;
#X text 371 602 2;
#X text 391 602 3;
#X text 407 602 4;
#X text 427 602 5;
#X text 447 602 6;
#X text 467 602 7;
#X text 484 602 8;
#X text 504 602 9;
#X text 521 602 10;
#X text 331 662 0;
#X text 351 662 1;
#X text 371 662 2;
#X text 391 662 3;
#X text 407 662 4;
#X text 427 662 5;
#X text 447 662 6;
#X text 467 662 7;
#X text 484 662 8;
#X text 504 662 9;
#X text 521 662 10;
#X text 641 122 0;
#X text 661 122 1;
#X text 681 122 2;
#X text 701 122 3;
#X text 717 122 4;
#X text 737 122 5;
#X text 757 122 6;
#X text 777 122 7;
#X text 794 122 8;
#X text 814 122 9;
#X text 831 122 10;
#X text 641 182 0;
#X text 661 182 1;
#X text 681 182 2;
#X text 701 182 3;
#X text 717 182 4;
#X text 737 182 5;
#X text 757 182 6;
#X text 777 182 7;
#X text 794 182 8;
#X text 814 182 9;
#X text 831 182 10;
#X text 641 242 0;
#X text 661 242 1;
#X text 681 242 2;
#X text 701 242 3;
#X text 717 242 4;
#X text 737 242 5;
#X text 757 242 6;
#X text 777 242 7;
#X text 794 242 8;
#X text 814 242 9;
#X text 831 242 10;
#X text 641 302 0;
#X text 661 302 1;
#X text 681 302 2;
#X text 701 302 3;
#X text 717 302 4;
#X text 737 302 5;
#X text 757 302 6;
#X text 777 302 7;
#X text 794 302 8;
#X text 814 302 9;
#X text 831 302 10;
#X text 641 362 0;
#X text 661 362 1;
#X text 681 362 2;
#X text 701 362 3;
#X text 717 362 4;
#X text 737 362 5;
#X text 757 362 6;
#X text 777 362 7;
#X text 794 362 8;
#X text 814 362 9;
#X text 831 362 10;
#X text 641 422 0;
#X text 661 422 1;
#X text 681 422 2;
#X text 701 422 3;
#X text 717 422 4;
#X text 737 422 5;
#X text 757 422 6;
#X text 777 422 7;
#X text 794 422 8;
#X text 814 422 9;
#X text 831 422 10;
#X text 641 482 0;
#X text 661 482 1;
#X text 681 482 2;
#X text 701 482 3;
#X text 717 482 4;
#X text 737 482 5;
#X text 757 482 6;
#X text 777 482 7;
#X text 794 482 8;
#X text 814 482 9;
#X text 831 482 10;
#X text 641 542 0;
#X text 661 542 1;
#X text 681 542 2;
#X text 701 542 3;
#X text 717 542 4;
#X text 737 542 5;
#X text 757 542 6;
#X text 777 542 7;
#X text 794 542 8;
#X text 814 542 9;
#X text 831 542 10;
#X text 641 602 0;
#X text 661 602 1;
#X text 681 602 2;
#X text 701 602 3;
#X text 717 602 4;
#X text 737 602 5;
#X text 757 602 6;
#X text 777 602 7;
#X text 794 602 8;
#X text 814 602 9;
#X text 831 602 10;
#X text 641 662 0;
#X text 661 662 1;
#X text 681 662 2;
#X text 701 662 3;
#X text 717 662 4;
#X text 737 662 5;
#X text 757 662 6;
#X text 777 662 7;
#X text 794 662 8;
#X text 814 662 9;
#X text 831 662 10;
#X obj 642 101 hradio 19 1 0 11 empty empty Nasal 0 -8 0 11 -262144
-1 -1 0;
#X connect 29 0 30 0;
#X restore 5 212 pd visual_training;
#N canvas 95 77 1162 659 sound_stimuli 0;
#X obj 39 630 dac~;
#X obj 39 330 soundfiler;
#X obj 39 350 bang;
#X obj 209 480 f;
#X obj 209 500 + 1;
#X msg 227 460 0;
#X obj 247 430 delay 12;
#X obj 227 370 loadbang;
#N canvas 1161 601 283 303 sp_lb_ue 0;
#X obj 74 107 loadbang;
#X msg 74 132 1;
#X obj 141 107 r urn_empty;
#X msg 141 133 0;
#X obj 36 220 outlet;
#X obj 36 192 spigot;
#X obj 36 68 inlet;
#X connect 0 0 1 0;
#X connect 1 0 5 1;
#X connect 2 0 3 0;
#X connect 3 0 5 1;
#X connect 5 0 4 0;
#X connect 6 0 5 0;
#X restore 247 410 pd sp_lb_ue;
#X obj 247 390 r pn_1;
#X obj 39 11 r \$11-urn;
#X obj 209 520 s \$17-Rep;
#X obj 78 210 l2s;
#X msg 96 190 symbol;
#X obj 96 170 loadbang;
#X obj 39 230 symbol;
#X obj 39 290 makefilename %s.wav;
#X obj 39 270 l2s;
#X obj 39 250 pack s f;
#X msg 165 253 symbol;
#X obj 165 230 loadbang;
#X obj 92 230 r \$11-urn;
#X obj 149 350 r play_again;
#X obj 279 460 r play_loop;
#X obj 279 560 spigot;
#X obj 369 490 tgl 15 0 empty empty empty 0 -6 0 10 -262144 -1 -1 0
1;
#X obj 359 520 r loopoff;
#X msg 359 540 0;
#X msg 78 121 /home/ieysimurra/Documents/posdoc-2016/pilot_experiment/stimuli-wav/wav-numbers/
;
#X obj 268 71 loadbang;
#X msg 268 91 set;
#X obj 78 31 r select_sdb;
#X obj 619 630 dac~;
#X obj 619 390 soundfiler;
#X obj 619 410 bang;
#X obj 739 241 l2s;
#X msg 759 221 symbol;
#X obj 759 201 loadbang;
#X obj 619 261 symbol;
#X obj 619 241 t b;
#X obj 619 350 makefilename %s.wav;
#X obj 619 330 l2s;
#X obj 619 281 pack s f;
#X msg 689 300 symbol;
#X obj 689 280 loadbang;
#N canvas 12 399 674 358 training_samples 0;
#X obj 62 45 r t01;
#X obj 102 45 r t02;
#X obj 142 45 r t03;
#X obj 182 45 r t04;
#X obj 222 45 r t05;
#X obj 262 45 r t06;
#X obj 302 45 r t07;
#X obj 342 45 r t08;
#X obj 382 45 r t09;
#X obj 422 45 r t10;
#X obj 62 146 outlet;
#X msg 62 79 1;
#X msg 102 79 2;
#X msg 142 79 10;
#X msg 182 79 9;
#X msg 222 79 8;
#X msg 262 79 7;
#X msg 302 79 3;
#X msg 342 79 6;
#X msg 382 79 4;
#X msg 421 78 5;
#X connect 0 0 11 0;
#X connect 1 0 12 0;
#X connect 2 0 13 0;
#X connect 3 0 14 0;
#X connect 4 0 15 0;
#X connect 5 0 16 0;
#X connect 6 0 17 0;
#X connect 7 0 18 0;
#X connect 8 0 19 0;
#X connect 9 0 20 0;
#X connect 11 0 10 0;
#X connect 12 0 10 0;
#X connect 13 0 10 0;
#X connect 14 0 10 0;
#X connect 15 0 10 0;
#X connect 16 0 10 0;
#X connect 17 0 10 0;
#X connect 18 0 10 0;
#X connect 19 0 10 0;
#X connect 20 0 10 0;
#X restore 619 11 pd training_samples;
#X obj 619 221 del 10;
#X msg 739 131;
#X obj 739 41 r select_sdb_training;
#X obj 78 51 tof/folderpanel;
#X msg 39 310 read -resize \$1 experiment;
#X obj 39 600 tabplay~ experiment;
#X obj 79 630 table experiment;
#X msg 619 370 read -resize \$1 trial;
#X obj 619 600 tabplay~ trial;
#X obj 659 630 table trial;
#X obj 899 61 loadbang;
#X msg 899 81 set;
#X obj 739 61 tof/folderpanel;
#X msg 739 81 set symbol \$1/;
#X obj 78 91 t b a;
#X obj 739 101 t b a;
#X obj 77 351 s snd_tab;
#X obj 39 31 t b;
#X obj 149 370 delay 400;
#X msg 78 71 set \$1/;
#X obj 148 71 splitfilename;
#X obj 148 91 s db_display;
#X obj 279 490 metro 6500;
#X connect 1 0 2 0;
#X connect 1 0 62 0;
#X connect 2 0 51 0;
#X connect 3 0 4 0;
#X connect 4 0 3 1;
#X connect 4 0 11 0;
#X connect 5 0 3 1;
#X connect 6 0 5 0;
#X connect 7 0 5 0;
#X connect 8 0 6 0;
#X connect 9 0 8 0;
#X connect 10 0 63 0;
#X connect 12 0 15 1;
#X connect 13 0 12 1;
#X connect 14 0 13 0;
#X connect 15 0 18 0;
#X connect 16 0 50 0;
#X connect 17 0 16 0;
#X connect 18 0 17 0;
#X connect 19 0 17 1;
#X connect 20 0 19 0;
#X connect 21 0 18 1;
#X connect 22 0 64 0;
#X connect 23 0 25 0;
#X connect 23 0 68 0;
#X connect 24 0 51 0;
#X connect 25 0 24 1;
#X connect 26 0 27 0;
#X connect 27 0 24 1;
#X connect 28 0 12 0;
#X connect 28 0 35 0;
#X connect 29 0 30 0;
#X connect 30 0 28 0;
#X connect 31 0 49 0;
#X connect 33 0 34 0;
#X connect 34 0 54 0;
#X connect 35 0 38 1;
#X connect 36 0 35 1;
#X connect 37 0 36 0;
#X connect 38 0 42 0;
#X connect 39 0 38 0;
#X connect 40 0 53 0;
#X connect 41 0 40 0;
#X connect 42 0 41 0;
#X connect 43 0 41 1;
#X connect 44 0 43 0;
#X connect 45 0 42 1;
#X connect 45 0 46 0;
#X connect 46 0 39 0;
#X connect 48 0 58 0;
#X connect 49 0 65 0;
#X connect 49 0 66 0;
#X connect 50 0 1 0;
#X connect 51 0 0 0;
#X connect 51 0 0 1;
#X connect 53 0 33 0;
#X connect 54 0 32 0;
#X connect 54 0 32 1;
#X connect 56 0 57 0;
#X connect 57 0 47 0;
#X connect 58 0 59 0;
#X connect 59 0 61 0;
#X connect 60 0 28 0;
#X connect 60 1 28 0;
#X connect 61 0 47 0;
#X connect 61 1 47 0;
#X connect 63 0 15 0;
#X connect 64 0 3 0;
#X connect 64 0 51 0;
#X connect 65 0 60 0;
#X connect 66 1 67 0;
#X connect 68 0 24 0;
#X restore 5 312 pd sound_stimuli;
#X obj 5 2 bng 23 250 50 0 select_sdb empty Select_Sound_DataBase 29
11 1 17 -262144 -1 -1;
#X obj 355 102 bng 23 250 50 0 open_visual_training empty To_Open_Rating_Session_Training
29 11 1 17 -262144 -1 -1;
#X msg 355 152 \; pd-visual_training vis 1 \;;
#X obj 355 132 r open_visual_training;
#X obj 355 202 bng 23 250 50 0 open_listening_training empty To_Open_Listening_Session_Training
29 11 1 17 -262144 -1 -1;
#X obj 355 232 r open_listening_training;
#X msg 355 252 \; pd-listening_training vis 1 \;;
#N canvas 232 133 746 499 listening_training 0;
#X obj 535 402 r close_listening_training;
#X msg 535 422 \; pd-listening_training vis 0 \;;
#X obj 1 1 cnv 15 741 493 empty empty Training-->Listening_sounds 20
20 0 14 -166441 -262144 0;
#X obj 24 102 bng 40 250 50 0 t01 nothing_but_different1 Play_sample_1
50 20 1 12 -169046 -215465 -1;
#X obj 24 152 bng 40 250 50 0 t02 nothing_but_different2 Play_sample_2
50 20 1 12 -169046 -215465 -1;
#X obj 24 202 bng 40 250 50 0 t03 nothing_but_different3 Play_sample_3
50 20 1 12 -169046 -215465 -1;
#X obj 24 252 bng 40 250 50 0 t04 nothing_but_different4 Play_sample_4
50 20 1 12 -169046 -215465 -1;
#X obj 24 302 bng 40 250 50 0 t05 nothing_but_different5 Play_sample_5
50 20 1 12 -169046 -215465 -1;
#X obj 24 352 bng 40 250 50 0 t06 nothing_but_different6 Play_sample_6
50 20 1 12 -169046 -215465 -1;
#X obj 214 132 bng 40 250 50 0 t07 nothing_but_different7 Play_sample_7
50 20 1 12 -169046 -215465 -1;
#X obj 214 192 bng 40 250 50 0 t08 nothing_but_different8 Play_sample_8
50 20 1 12 -169046 -215465 -1;
#X obj 214 242 bng 40 250 50 0 t09 nothing_but_different9 Play_sample_9
50 20 1 12 -169046 -215465 -1;
#X obj 214 302 bng 40 250 50 0 t10 nothing_but_different10 Play_sample_10
50 20 1 12 -169046 -215465 -1;
#X text 19 38 This are the kind of samples that you will listen to
during the experiment.;
#X obj 715 462 bng 23 250 50 0 close_listening_training empty empty
17 7 0 11 -258113 -1 -1;
#X text 459 466 To Close Listening Session Training;
#X text 21 72 Listen a couple or all of them.;
#X connect 0 0 1 0;
#X restore 5 232 pd listening_training;
#X obj 355 302 bng 23 250 50 0 open_experiment empty To_Start_Experiment
29 11 1 17 -262144 -1 -1;
#X obj 355 2 bng 23 250 50 0 open_interface_training empty To_Start_Experiment_Interface
29 11 1 17 -262144 -1 -1;
#X obj 355 32 r open_interface_training;
#X msg 355 52 \; pd-interface_training vis 1 \;;
#N canvas 256 109 820 598 interface_training 0;
#X msg 585 542 \; pd-interface_training vis 0 \;;
#X obj 585 522 r close_interface_training;
#X obj 2 2 cnv 15 801 151 empty empty Training-->Interface_Experiment
20 12 0 14 -204786 -66577 0;
#X symbolatom 254 96 38 0 0 0 Name:_ r_subj_name s_subj_name, f 38
;
#X text 255 60 (don't use spaces between characters);
#X obj 1 132 cnv 15 800 450 empty researcher_gui empty 170 120 0 14
-166441 -1 0;
#X obj 377 514 bng 47 250 50 0 tostartexperiment empty Press_to_Start
-23 57 1 13 -227203 -244640 -1;
#X obj 802 133 cnv 1 1 450 empty empty empty 20 12 0 14 -1 -1 0;
#X obj 2 131 cnv 1 800 1 empty lines empty 20 12 0 14 -1 -262144 0
;
#X obj 1 132 cnv 1 1 450 empty empty empty 20 12 0 14 -1 -1 0;
#X obj 2 582 cnv 1 800 1 empty empty empty 20 12 0 14 -1 -1 0;
#X text 210 40 Please enter participant's ID in the square below;
#X obj 9 165 nbx 11 43 -1e+37 1e+37 0 0 s_subj_age empty empty 0 -8
1 13 -261682 -1 -1 0 256;
#X obj 59 255 tgl 47 0 music-no empty NO 10 24 1 19 -159808 -1 -1 0
1;
#X obj 9 255 tgl 47 0 music-yes empty YES 4 24 1 19 -159808 -1 -1 0
1;
#X obj 9 355 nbx 11 43 -1e+37 1e+37 0 0 years-music empty empty 0 -8
1 13 -261234 -1 -1 0 256;
#X text 8 226 Do you have any professional music experience?;
#X text 8 316 If YES \, how long professional music experience do you
have?;
#X text 7 135 What is your age?;
#X obj 777 106 bng 23 250 50 0 close_interface_training empty empty
17 7 0 11 -258113 -1 -1;
#X text 526 110 To Close Interface Training Session;
#X text 8 336 (in years - an integer number);
#X text 222 336 (If NO \, put number 0 below;
#X connect 1 0 0 0;
#X restore 5 192 pd interface_training;
#X floatatom 5 72 5 0 0 1 Number_of_Audio_Samples empty_nas nmbr_of_trials
, f 5;
#N canvas 1 269 767 498 sound_selector 0;
#X obj 8 127 timer;
#X msg 8 157 seed \$1;
#X obj 79 207 delay 100;
#X obj 8 367 + 1;
#X obj 47 367 s urn_empty;
#X obj 79 187 r pn_1;
#X obj 69 157 r sb_1;
#X obj 40 97 r start_button;
#X obj 8 397 s \$11-urn;
#X obj 200 137 r nmbr_of_trials;
#X obj 8 247 s urn_inlet;
#X obj 8 317 r urn_outlet0;
#X obj 47 347 r urn_outlet1;
#X obj 200 227 f;
#X obj 200 157 t b;
#X obj 218 197 r nmbr_of_trials;
#X obj 8 7 r nmbr_of_trials;
#X obj 8 37 t b;
#X msg 200 257 \; pd-define_urn_number obj 2 10 r urn_inlet \; pd-define_urn_number
obj 2 110 s urn_outlet0 \; pd-define_urn_number obj 34 80 s urn_outlet1
\; pd-define_urn_number obj 2 40 urn \$1 \; pd-define_urn_number connect
0 0 3 0 \; pd-define_urn_number connect 3 0 1 0 \; pd-define_urn_number
connect 3 1 2 0 \;;
#X obj 200 177 delay 2;
#X obj 8 67 delay 50;
#X obj 390 27 loadbang;
#X obj 436 97 s set_nmb_trials;
#X msg 436 77 0;
#X msg 413 127 \; pd-define_urn_number vis 1 \; pd-define_urn_number
clear \; pd-define_urn_number vis 0 \;;
#X obj 390 47 t b b b;
#N canvas 517 438 450 300 define_urn_number 0;
#X obj 2 10 r urn_inlet;
#X obj 2 110 s urn_outlet0;
#X obj 34 80 s urn_outlet1;
#X obj 2 40 urn 5;
#X connect 0 0 3 0;
#X connect 3 0 1 0;
#X connect 3 1 2 0;
#X restore 199 31 pd define_urn_number;
#X msg 390 197 pd-sound_selector obj 200 7 pd define_urn_number \;
pd-define_urn_number vis 0 \;;
#X connect 0 0 1 0;
#X connect 1 0 10 0;
#X connect 2 0 10 0;
#X connect 3 0 8 0;
#X connect 5 0 2 0;
#X connect 6 0 10 0;
#X connect 7 0 0 1;
#X connect 9 0 14 0;
#X connect 11 0 3 0;
#X connect 12 0 4 0;
#X connect 13 0 18 0;
#X connect 14 0 19 0;
#X connect 15 0 13 1;
#X connect 16 0 17 0;
#X connect 17 0 20 0;
#X connect 19 0 13 0;
#X connect 20 0 0 0;
#X connect 21 0 25 0;
#X connect 23 0 22 0;
#X connect 25 0 27 0;
#X connect 25 1 24 0;
#X connect 25 2 23 0;
#X restore 5 332 pd sound_selector;
#N canvas 1 91 1243 626 settings 0;
#X obj 682 508 cnv 15 489 100 empty empty initial_message_to_name_field
20 12 1 13 -262130 -66577 0;
#X obj 688 532 loadbang;
#X obj 688 584 s r_subj_name \$1;
#X msg 688 558 set enter_here_your_name_and_press_<enter>;
#X obj 281 3 cnv 15 400 605 empty empty Buttons 20 12 1 13 -232576
-66577 0;
#X obj 528 347 f;
#X obj 558 347 + 1;
#X msg 546 317 1;
#X obj 528 417 + 1;
#X obj 458 517 spigot;
#X obj 458 377 delay 110;
#X msg 408 437 1;
#X msg 508 547 0;
#X obj 458 457 f \$1;
#X obj 498 467 r urn_empty;
#X msg 498 487 0;
#X obj 508 517 loadbang;
#X obj 546 297 loadbang;
#N canvas 1076 460 287 307 sp_lb_ue 0;
#X obj 74 107 loadbang;
#X msg 74 132 1;
#X obj 141 107 r urn_empty;
#X msg 141 133 0;
#X obj 36 220 outlet;
#X obj 36 192 spigot;
#X obj 36 68 inlet;
#X connect 0 0 1 0;
#X connect 1 0 5 1;
#X connect 2 0 3 0;
#X connect 3 0 5 1;
#X connect 5 0 4 0;
#X connect 6 0 5 0;
#X restore 528 267 pd sp_lb_ue;
#X obj 528 247 r pn_1;
#X obj 408 417 r sb_1;
#X obj 288 27 r play_next;
#X obj 288 267 spigot;
#X msg 338 217 1;
#X msg 378 217 0;
#X obj 328 307 delay 13;
#X obj 288 87 delay 400;
#X obj 398 187 loadbang;
#X obj 288 347 s pn_1;
#X obj 498 27 r start_button;
#X obj 498 97 once;
#X obj 498 47 delay 40;
#X obj 498 117 s sb_1;
#X obj 528 77 loadbang;
#X obj 338 117 r sb_1;
#X obj 378 167 delay 100;
#N canvas 625 77 638 690 take_a_rest 0;
#X obj 210 16 inlet;
#X obj 56 211 select;
#X obj 95 189 int;
#X obj 95 167 / 2;
#X obj 171 558 outlet;
#X obj 95 145 r nmbr_of_trials;
#X obj 238 208 r returntotimbreexperiment;
#X obj 10 122 r \$553-snd_number;
#X obj 10 145 moses 1;
#X msg 95 233 1;
#X msg 56 233 2;
#X obj 256 311 delay 4000;
#X obj 212 446 s loopoff;
#X msg 257 342 \; pd-take_a_rest_message vis 1 \;;
#X msg 238 237 \; pd-take_a_rest_message vis 0 \;;
#X obj 171 278 cyclone/gate 2;
#X connect 0 0 15 1;
#X connect 1 0 10 0;
#X connect 1 1 9 0;
#X connect 2 0 1 1;
#X connect 3 0 2 0;
#X connect 5 0 3 0;
#X connect 6 0 14 0;
#X connect 6 0 9 0;
#X connect 7 0 8 0;
#X connect 8 1 1 0;
#X connect 9 0 15 0;
#X connect 10 0 15 0;
#X connect 11 0 13 0;
#X connect 15 0 4 0;
#X connect 15 1 11 0;
#X connect 15 1 12 0;
#X coords 0 -1 1 1 85 20 1 10 10;
#X restore 288 47 pd take_a_rest;
#X obj 458 587 s \$553-snd_number;
#X obj 378 137 delay 2000;
#X obj 308 327 delay 2000;
#X obj 682 3 cnv 15 489 299 empty empty experiment 20 12 1 13 -4032
-66577 0;
#X obj 682 303 cnv 15 489 204 empty empty manage_visibility_of_frames
20 12 1 13 -204786 -66577 0;
#X obj 695 208 spigot;
#X obj 865 78 loadbang;
#X obj 825 133 tgl 15 0 empty empty empty 0 -6 0 10 -262144 -1 -1 1
1;
#X msg 865 103 0;
#X msg 825 103 1;
#X obj 825 48 r s_subj_name;
#X obj 825 153 once;
#X obj 865 153 loadbang;
#X obj 695 128 once;
#X obj 720 48 loadbang;
#X obj 740 68 key;
#X obj 740 88 select 10;
#X msg 718 338 \; pd-visual_experiment vis 1 \;;
#X obj 695 28 r tostartexperiment;
#X obj 695 268 delay 50;
#X msg 695 378 \; pd-tostartexperiment vis 0 \;;
#X obj 5 3 cnv 15 275 100 empty empty initialize 20 12 1 13 -261234
-66577 0;
#X msg 47 49 \; pd dsp 1;
#X obj 47 26 loadbang;
#X obj 123 28 loadbang;
#X msg 124 52 \; pd-training.pd vis 1 \;;
#X obj 935 308 r urn_empty;
#X obj 935 328 t b b;
#X obj 935 408 delay 2503;
#X msg 935 428 \; pd-training.pd menuclose \;;
#X msg 965 348 \; pd-visual_experiment vis 0 \; pd-thanks_message vis
1 \; pd dsp 0 \;;
#X obj 695 228 t b b b;
#X obj 739 248 s date;
#X obj 538 97 r reset_all;
#X obj 740 108 r reset_all;
#X obj 935 78 r reset_all;
#X connect 1 0 3 0;
#X connect 3 0 2 0;
#X connect 5 0 6 0;
#X connect 5 0 8 0;
#X connect 6 0 5 1;
#X connect 7 0 5 1;
#X connect 8 0 13 1;
#X connect 9 0 37 0;
#X connect 10 0 13 0;
#X connect 11 0 9 1;
#X connect 11 0 37 0;
#X connect 12 0 37 0;
#X connect 13 0 9 0;
#X connect 14 0 15 0;
#X connect 15 0 9 1;
#X connect 16 0 12 0;
#X connect 17 0 7 0;
#X connect 18 0 5 0;
#X connect 18 0 10 0;
#X connect 19 0 18 0;
#X connect 20 0 11 0;
#X connect 21 0 36 0;
#X connect 22 0 25 0;
#X connect 22 0 28 0;
#X connect 22 0 39 0;
#X connect 23 0 22 1;
#X connect 24 0 22 1;
#X connect 25 0 24 0;
#X connect 26 0 22 0;
#X connect 27 0 24 0;
#X connect 29 0 31 0;
#X connect 30 0 32 0;
#X connect 31 0 30 0;
#X connect 33 0 30 1;
#X connect 34 0 35 0;
#X connect 34 0 23 0;
#X connect 34 0 38 0;
#X connect 35 0 24 0;
#X connect 36 0 26 0;
#X connect 38 0 23 0;
#X connect 39 0 23 0;
#X connect 42 0 68 0;
#X connect 43 0 45 0;
#X connect 44 0 48 0;
#X connect 45 0 44 0;
#X connect 46 0 44 0;
#X connect 47 0 46 0;
#X connect 48 0 42 1;
#X connect 49 0 48 1;
#X connect 50 0 42 0;
#X connect 51 0 50 1;
#X connect 52 0 53 0;
#X connect 53 0 50 1;
#X connect 55 0 50 0;
#X connect 56 0 57 0;
#X connect 60 0 59 0;
#X connect 61 0 62 0;
#X connect 63 0 64 0;
#X connect 64 0 65 0;
#X connect 64 1 67 0;
#X connect 65 0 66 0;
#X connect 68 0 56 0;
#X connect 68 1 54 0;
#X connect 68 2 69 0;
#X connect 70 0 30 1;
#X connect 71 0 50 1;
#X connect 72 0 48 1;
#X connect 72 0 45 0;
#X restore 5 352 pd settings;
#N canvas 347 98 784 605 writing_and_saving 0;
#N canvas 1165 605 279 299 sp_lb_ue 0;
#X obj 74 107 loadbang;
#X msg 74 132 1;
#X obj 141 107 r urn_empty;
#X msg 141 133 0;
#X obj 36 220 outlet;
#X obj 36 192 spigot;
#X obj 36 68 inlet;
#X connect 0 0 1 0;
#X connect 1 0 5 1;
#X connect 2 0 3 0;
#X connect 3 0 5 1;
#X connect 5 0 4 0;
#X connect 6 0 5 0;
#X restore 7 22 pd sp_lb_ue;
#X obj 7 2 r pn_1;
#X obj 37 582 s paquete;
#X obj 77 62 r paquete;
#X obj 77 82 l2s;
#X obj 17 102 symbol \$1;
#X msg 257 202 clear;
#X obj 157 182 symbol \$1;
#X obj 157 292 textfile;
#X obj 157 2 r urn_empty;
#X obj 257 142 makefilename %s;
#X msg 157 202 write \$1.txt;
#X obj 257 122 l2s;
#X obj 257 2 r s_subj_name;
#X msg 275 102 symbol;
#X obj 275 82 loadbang;
#X obj 257 182 loadbang;
#X obj 157 52 delay 1000;
#X obj 17 42 delay 100;
#X obj 575 13 bng 15 250 50 0 empty empty write-STfeature 0 -5 0 10
-262144 -1 -1;
#N canvas 288 75 388 277 save-analysis-1 0;
#X obj 2 2 inlet;
#N canvas 423 77 675 538 write-analysis 0;
#X obj 2 2 inlet;
#X obj 142 512 textfile;
#X msg 142 422 add \$1;
#X obj 142 382 l2s;
#X msg 612 82 clear;
#N canvas 121 126 1106 553 write-statistics 0;
#X obj 384 13 inlet;
#X obj 384 490 outlet;
#N canvas 763 75 450 300 stdev-1_as_symbol 0;
#X obj 35 5 inlet;
#X obj 35 226 outlet;
#X obj 35 178 symbol;
#X msg 35 49 stdev-1;
#X msg 35 153 stdev-1_0;
#X obj 35 101 pack s f;
#X msg 35 120 set \$1_\$2;
#X obj 5 111 t b;
#X symbolatom 35 203 23 0 0 0 - - -, f 23;
#X floatatom 80 74 5 0 0 0 - - -, f 5;
#X obj 35 27 t b;
#X obj 80 7 r data-stdev1;
#X connect 0 0 10 0;
#X connect 2 0 8 0;
#X connect 3 0 5 0;
#X connect 3 0 7 0;
#X connect 4 0 2 0;
#X connect 5 0 6 0;
#X connect 6 0 4 0;
#X connect 7 0 4 0;
#X connect 8 0 1 0;
#X connect 9 0 5 1;
#X connect 10 0 3 0;
#X connect 11 0 9 0;
#X restore 400 85 pd stdev-1_as_symbol;
#N canvas 763 75 450 300 data-mean1_as_symbol 0;
#X obj 35 5 inlet;
#X obj 35 226 outlet;
#X obj 35 178 symbol;
#X msg 35 153 data-mean1_0;
#X obj 35 101 pack s f;
#X msg 35 120 set \$1_\$2;
#X obj 5 111 t b;
#X symbolatom 35 203 23 0 0 0 - - -, f 23;
#X floatatom 80 74 5 0 0 0 - - -, f 5;
#X obj 35 27 t b;
#X obj 80 7 r data-mean1;
#X msg 35 49 data-mean1;
#X connect 0 0 9 0;
#X connect 2 0 7 0;
#X connect 3 0 2 0;
#X connect 4 0 5 0;
#X connect 5 0 3 0;
#X connect 6 0 3 0;
#X connect 7 0 1 0;
#X connect 8 0 4 1;
#X connect 9 0 11 0;
#X connect 10 0 8 0;
#X connect 11 0 4 0;
#X connect 11 0 6 0;
#X restore 417 134 pd data-mean1_as_symbol;
#X obj 417 162 t s;
#X obj 400 113 t s;
#X obj 434 210 t s;
#N canvas 766 50 450 300 data-median1_as_symbol 0;
#X obj 35 5 inlet;
#X obj 35 226 outlet;
#X obj 35 178 symbol;
#X msg 35 153 data-median1_0;
#X obj 35 101 pack s f;
#X msg 35 120 set \$1_\$2;
#X obj 5 111 t b;
#X symbolatom 35 203 23 0 0 0 - - -, f 23;
#X floatatom 80 74 5 0 0 0 - - -, f 5;
#X obj 35 27 t b;
#X obj 80 6 r data-median1;
#X msg 35 49 data-median1;
#X connect 0 0 9 0;
#X connect 2 0 7 0;
#X connect 3 0 2 0;
#X connect 4 0 5 0;
#X connect 5 0 3 0;
#X connect 6 0 3 0;
#X connect 7 0 1 0;
#X connect 8 0 4 1;
#X connect 9 0 11 0;
#X connect 10 0 8 0;
#X connect 11 0 4 0;
#X connect 11 0 6 0;
#X restore 434 182 pd data-median1_as_symbol;
#X obj 450 258 t s;
#N canvas 766 50 450 300 data-1stq1_as_symbol 0;
#X obj 35 5 inlet;
#X obj 35 226 outlet;
#X obj 35 178 symbol;
#X msg 35 153 data-1stq1_0;
#X obj 35 101 pack s f;
#X msg 35 120 set \$1_\$2;
#X obj 5 111 t b;
#X symbolatom 35 203 23 0 0 0 - - -, f 23;
#X floatatom 80 74 5 0 0 0 - - -, f 5;
#X obj 35 27 t b;
#X obj 80 6 r data-1stq1;
#X msg 35 49 data-1stq1;
#X connect 0 0 9 0;
#X connect 2 0 7 0;
#X connect 3 0 2 0;
#X connect 4 0 5 0;
#X connect 5 0 3 0;
#X connect 6 0 3 0;
#X connect 7 0 1 0;
#X connect 8 0 4 1;
#X connect 9 0 11 0;
#X connect 10 0 8 0;
#X connect 11 0 4 0;
#X connect 11 0 6 0;
#X restore 450 230 pd data-1stq1_as_symbol;
#X obj 468 306 t s;
#N canvas 766 50 450 300 data-3rdq1_as_symbol 0;
#X obj 35 5 inlet;
#X obj 35 226 outlet;
#X obj 35 178 symbol;
#X msg 35 153 data-3rdq1_0;
#X obj 35 101 pack s f;
#X msg 35 120 set \$1_\$2;
#X obj 5 111 t b;
#X symbolatom 35 203 23 0 0 0 - - -, f 23;
#X floatatom 80 74 5 0 0 0 - - -, f 5;
#X obj 35 27 t b;
#X obj 80 6 r data-3rdq1;
#X msg 35 49 data-3rdq1;
#X connect 0 0 9 0;
#X connect 2 0 7 0;
#X connect 3 0 2 0;
#X connect 4 0 5 0;
#X connect 5 0 3 0;
#X connect 6 0 3 0;
#X connect 7 0 1 0;
#X connect 8 0 4 1;
#X connect 9 0 11 0;
#X connect 10 0 8 0;
#X connect 11 0 4 0;
#X connect 11 0 6 0;
#X restore 468 278 pd data-3rdq1_as_symbol;
#X obj 484 354 t s;
#N canvas 766 50 450 300 data-dispersion1_as_symbol 0;
#X obj 35 5 inlet;
#X obj 35 226 outlet;
#X obj 35 178 symbol;
#X msg 35 153 data-dispersion1_0;
#X obj 35 101 pack s f;
#X msg 35 120 set \$1_\$2;
#X obj 5 111 t b;
#X symbolatom 35 203 23 0 0 0 - - -, f 23;
#X floatatom 80 74 5 0 0 0 - - -, f 5;
#X obj 35 27 t b;
#X obj 80 6 r data-dispersion1;
#X msg 35 49 data-dispersion1;
#X connect 0 0 9 0;
#X connect 2 0 7 0;
#X connect 3 0 2 0;
#X connect 4 0 5 0;
#X connect 5 0 3 0;
#X connect 6 0 3 0;
#X connect 7 0 1 0;
#X connect 8 0 4 1;
#X connect 9 0 11 0;
#X connect 10 0 8 0;
#X connect 11 0 4 0;
#X connect 11 0 6 0;
#X restore 484 326 pd data-dispersion1_as_symbol;
#X obj 501 402 t s;
#N canvas 766 50 450 300 data-assimetry1_as_symbol 0;
#X obj 35 5 inlet;
#X obj 35 226 outlet;
#X obj 35 178 symbol;
#X msg 35 153 data-assimetry1_0;
#X obj 35 101 pack s f;
#X msg 35 120 set \$1_\$2;
#X obj 5 111 t b;
#X symbolatom 35 203 23 0 0 0 - - -, f 23;
#X floatatom 80 74 5 0 0 0 - - -, f 5;
#X obj 35 27 t b;
#X obj 80 6 r data-assimetry1;
#X msg 35 49 data-assimetry1;
#X connect 0 0 9 0;
#X connect 2 0 7 0;
#X connect 3 0 2 0;
#X connect 4 0 5 0;
#X connect 5 0 3 0;
#X connect 6 0 3 0;
#X connect 7 0 1 0;
#X connect 8 0 4 1;
#X connect 9 0 11 0;
#X connect 10 0 8 0;
#X connect 11 0 4 0;
#X connect 11 0 6 0;
#X restore 501 374 pd data-assimetry1_as_symbol;
#X obj 384 468 pack f s s s s s s s;
#X obj 384 41 t b;
#X connect 0 0 17 0;
#X connect 2 0 5 0;
#X connect 3 0 4 0;
#X connect 4 0 16 2;
#X connect 5 0 16 1;
#X connect 6 0 16 3;
#X connect 7 0 6 0;
#X connect 8 0 16 4;
#X connect 9 0 8 0;
#X connect 10 0 16 5;
#X connect 11 0 10 0;
#X connect 12 0 16 6;
#X connect 13 0 12 0;
#X connect 14 0 16 7;
#X connect 15 0 14 0;
#X connect 16 0 1 0;
#X connect 17 0 2 0;
#X connect 17 0 3 0;
#X connect 17 0 7 0;
#X connect 17 0 9 0;
#X connect 17 0 11 0;
#X connect 17 0 13 0;
#X connect 17 0 15 0;
#X connect 17 0 16 0;
#X restore 142 242 pd write-statistics;
#X obj 412 132 pack f f f;
#X obj 412 92 date ------;
#X obj 322 212 pack s s s;
#X obj 412 182 l2s;
#X msg 2 202 write \$1;
#X obj 142 2 inlet;
#X msg 162 92 stats-feature_1;
#X obj 292 92 r st_feature_1;
#X text 156 158 aqui vc organiza o que vai colocar arquivo de texto
;
#X obj 142 32 t b b b b;
#X connect 0 0 15 0;
#X connect 2 0 1 0;
#X connect 3 0 2 0;
#X connect 4 0 1 0;
#X connect 5 0 3 0;
#X connect 6 0 9 0;
#X connect 7 0 6 2;
#X connect 7 1 6 1;
#X connect 7 2 6 0;
#X connect 8 0 3 0;
#X connect 9 0 8 2;
#X connect 10 0 1 0;
#X connect 11 0 10 0;
#X connect 12 0 8 0;
#X connect 13 0 8 1;
#X connect 15 0 5 0;
#X connect 15 1 12 0;
#X connect 15 2 7 0;
#X connect 15 3 4 0;
#X restore 2 201 pd write-analysis;
#X symbolatom 101 116 17 0 0 0 - - -, f 17;
#X obj 101 179 spigot;
#X obj 134 159 tgl 15 0 empty empty empty 17 7 0 10 -262144 -1 -1 0
1;
#X obj 2 26 t b b b b;
#X obj 101 45 r st_feature;
#X obj 101 138 makefilename acoustic_analysis%s.txt;
#X connect 0 0 5 0;
#X connect 2 0 7 0;
#X connect 3 0 1 1;
#X connect 4 0 3 1;
#X connect 5 0 4 0;
#X connect 5 1 2 0;
#X connect 5 2 4 0;
#X connect 5 3 1 0;
#X connect 6 0 2 0;
#X connect 7 0 3 0;
#X restore 575 33 pd save-analysis-1;
#X obj 37 562 pack f s;
#X obj 7 422 l2s;
#X obj 57 422 r \$11-urn;
#X obj 37 442 f;
#X obj 37 522 delay 20;
#X obj 37 542 f;
#X obj 37 492 t b;
#X msg 257 62 list output-ID_ \$1;
#X msg 17 124 add \$1;
#X obj 434 122 l2s;
#X msg 434 102 ID-\$1;
#X obj 417 182 pack s s s s s;
#X obj 434 82 r s_subj_name;
#N canvas 1 77 450 300 years-experience 0;
#X obj 105 96 spigot;
#X obj 105 46 r years-music;
#X obj 165 66 r music-yes;
#X obj 165 87 tgl 15 0 empty empty empty 17 7 0 10 -262144 -1 -1 0
1;
#X obj 105 136 l2s;
#X msg 105 116 years-experience-\$1;
#X obj 135 176 l2s;
#X msg 135 156 years-experience-0;
#X obj 135 136 r music-no;
#X obj 105 206 once;
#X obj 105 227 l2s;
#X obj 165 176 loadbang;
#X obj 105 247 outlet;
#X obj 145 206 r reset_all;
#X connect 0 0 5 0;
#X connect 1 0 0 0;
#X connect 2 0 3 0;
#X connect 3 0 0 1;
#X connect 4 0 9 0;
#X connect 5 0 4 0;
#X connect 6 0 9 0;
#X connect 7 0 6 0;
#X connect 9 0 10 0;
#X connect 10 0 12 0;
#X connect 11 0 9 1;
#X connect 13 0 9 1;
#X restore 512 162 pd years-experience;
#N canvas 1 77 450 300 date 0;
#X obj 163 132 pack f f f;
#X obj 163 112 date ------;
#X obj 163 152 l2s;
#X obj 163 92 r date;
#X obj 163 172 outlet;
#X connect 0 0 2 0;
#X connect 1 0 0 2;
#X connect 1 1 0 1;
#X connect 1 2 0 0;
#X connect 2 0 4 0;
#X connect 3 0 1 0;
#X restore 377 142 pd date;
#N canvas 1 77 450 300 music-experience 0;
#X obj 153 212 l2s;
#X msg 153 192 pro_experience-\$1;
#X msg 153 112 YES;
#X msg 193 112 NO;
#X obj 153 152 once;
#X obj 183 132 loadbang;
#X obj 153 172 l2s;
#X obj 153 72 r music-yes;
#X obj 193 92 r music-no;
#X obj 153 232 outlet;
#X obj 193 152 r reset_all;
#X connect 0 0 9 0;
#X connect 1 0 0 0;
#X connect 2 0 4 0;
#X connect 3 0 4 0;
#X connect 4 0 6 0;
#X connect 5 0 4 1;
#X connect 6 0 1 0;
#X connect 7 0 2 0;
#X connect 8 0 3 0;
#X connect 10 0 4 1;
#X restore 488 142 pd music-experience;
#N canvas 1 77 450 300 subj_age 0;
#X obj 143 77 r s_subj_age;
#X msg 143 97 age-\$1;
#X obj 143 117 l2s;
#X obj 143 137 outlet;
#X connect 0 0 1 0;
#X connect 1 0 2 0;
#X connect 2 0 3 0;
#X restore 464 122 pd subj_age;
#X msg 417 227 add \$1;
#X obj 417 202 l2s;
#X obj 7 402 tabdump rating;
#X obj 7 382 t b b b;
#N canvas 1 77 450 300 norm_tabs 0;
#X obj 8 10 inlet;
#X obj 8 80 list-drip;
#X msg 8 40 chroma inharmonicity Odd-to-Even_Ratio SpectralIrregularity
zeroCrossing;
#X obj 8 100 symbol;
#X msg 8 129 \; \$1 normalize 1 \;, f 12;
#X connect 0 0 2 0;
#X connect 1 0 3 0;
#X connect 2 0 1 0;
#X connect 3 0 4 0;
#X restore 67 382 pd norm_tabs;
#X obj 287 452 tabdump \$1;
#X obj 287 402 list-drip;
#X obj 287 472 print;
#X obj 307 424 print;
#X msg 287 362 chroma inharmonicity Odd-to-Even_Ratio SpectralIrregularity
zerCrossing;
#X connect 0 0 18 0;
#X connect 0 0 41 0;
#X connect 1 0 0 0;
#X connect 3 0 4 0;
#X connect 4 0 5 1;
#X connect 5 0 29 0;
#X connect 6 0 8 0;
#X connect 7 0 11 0;
#X connect 9 0 17 0;
#X connect 10 0 7 1;
#X connect 11 0 8 0;
#X connect 12 0 10 0;
#X connect 13 0 28 0;
#X connect 14 0 12 1;
#X connect 15 0 14 0;
#X connect 16 0 6 0;
#X connect 17 0 7 0;
#X connect 18 0 5 0;
#X connect 19 0 20 0;
#X connect 21 0 2 0;
#X connect 22 0 21 1;
#X connect 23 0 24 1;
#X connect 24 0 26 1;
#X connect 24 0 27 0;
#X connect 25 0 26 0;
#X connect 26 0 21 0;
#X connect 27 0 25 0;
#X connect 28 0 12 0;
#X connect 29 0 8 0;
#X connect 30 0 32 1;
#X connect 31 0 30 0;
#X connect 32 0 39 0;
#X connect 33 0 31 0;
#X connect 34 0 32 4;
#X connect 35 0 32 0;
#X connect 36 0 32 3;
#X connect 37 0 32 2;
#X connect 38 0 8 0;
#X connect 39 0 38 0;
#X connect 40 0 22 0;
#X connect 41 0 40 0;
#X connect 41 1 24 0;
#X connect 41 2 42 0;
#X connect 44 0 43 0;
#X connect 44 0 46 0;
#X connect 47 0 44 0;
#X restore 5 372 pd writing_and_saving;
#N canvas 223 77 1126 638 rating_sliders 0;
#X obj 536 525 s \$555-returnzero;
#X obj 576 455 loadbang;
#X obj 536 425 delay 150;
#X obj 536 345 r pn_1;
#N canvas 1673 606 275 295 sp_lb_ue 0;
#X obj 74 107 loadbang;
#X msg 74 132 1;
#X obj 141 107 r urn_empty;
#X msg 141 133 0;
#X obj 36 220 outlet;
#X obj 36 192 spigot;
#X obj 36 68 inlet;
#X connect 0 0 1 0;
#X connect 1 0 5 1;
#X connect 2 0 3 0;
#X connect 3 0 5 1;
#X connect 5 0 4 0;
#X connect 6 0 5 0;
#X restore 556 395 pd sp_lb_ue;
#X obj 556 375 r pn_1;
#X obj 26 5 r \$1-Scale1;
#X obj 136 5 r \$2-Scale2;
#X obj 246 5 r \$3-Scale3;
#X obj 796 5 r \$8-Scale8;
#X obj 686 5 r \$7-Scale7;
#X obj 576 5 r \$6-Scale6;
#X obj 466 5 r \$5-Scale5;
#X obj 356 5 r \$4-Scale4;
#X obj 906 5 r \$9-Scale9;
#X obj 1016 5 r \$10-Scale10;
#X obj 26 115 r \$11-Scale11;
#X obj 136 115 r \$12-Scale12;
#X obj 246 115 r \$13-Scale13;
#X obj 356 115 r \$14-Scale14;
#X obj 466 115 r \$15-Scale15;
#X obj 576 115 r \$16-Scale16;
#X obj 686 115 r \$17-Scale17;
#X obj 796 115 r \$18-Scale18;
#X obj 906 115 r \$19-Scale19;
#X obj 1016 115 r \$20-Scale20;
#X obj 26 225 r \$21-Scale21;
#X obj 136 225 r \$22-Scale22;
#X obj 246 225 r \$23-Scale23;
#X obj 356 225 r \$24-Scale24;
#X obj 466 225 r \$25-Scale25;
#X obj 576 225 r \$26-Scale26;
#X obj 686 225 r \$27-Scale27;
#X obj 796 225 r \$28-Scale28;
#X obj 906 225 r \$29-Scale29;
#X obj 1016 225 r \$30-Scale30;
#X msg 536 485 0;
#X obj 26 65 pack f f;
#X obj 26 85 s index;
#X obj 102 395 r index;
#X obj 102 415 unpack f f;
#X msg 77 45 0;
#X obj 232 425 max;
#X obj 262 425 f;
#X msg 372 375 0;
#X obj 232 455 + 1;
#X obj 26 25 t f b;
#X obj 372 355 loadbang;
#X obj 136 65 pack f f;
#X obj 136 85 s index;
#X obj 136 25 t f b;
#X obj 246 65 pack f f;
#X obj 246 85 s index;
#X obj 246 25 t f b;
#X obj 356 65 pack f f;
#X obj 356 85 s index;
#X obj 356 25 t f b;
#X obj 466 65 pack f f;
#X obj 466 85 s index;
#X obj 466 25 t f b;
#X obj 576 65 pack f f;
#X obj 576 85 s index;
#X obj 576 25 t f b;
#X obj 686 65 pack f f;
#X obj 686 85 s index;
#X obj 686 25 t f b;
#X obj 796 65 pack f f;
#X obj 796 85 s index;
#X obj 796 25 t f b;
#X obj 906 65 pack f f;
#X obj 906 85 s index;
#X obj 906 25 t f b;
#X obj 1016 65 pack f f;
#X obj 1016 85 s index;
#X obj 1016 25 t f b;
#X msg 187 45 1;
#X msg 297 45 2;
#X msg 407 45 3;
#X msg 517 45 4;
#X msg 627 45 5;
#X msg 737 45 6;
#X msg 849 45 7;
#X msg 957 45 8;
#X msg 1067 45 9;
#X obj 26 175 pack f f;
#X obj 26 195 s index;
#X obj 26 135 t f b;
#X obj 136 175 pack f f;
#X obj 136 195 s index;
#X obj 136 135 t f b;
#X obj 246 175 pack f f;
#X obj 246 195 s index;
#X obj 246 135 t f b;
#X obj 356 175 pack f f;
#X obj 356 195 s index;
#X obj 356 135 t f b;
#X obj 466 175 pack f f;
#X obj 466 195 s index;
#X obj 466 135 t f b;
#X obj 576 175 pack f f;
#X obj 576 195 s index;
#X obj 576 135 t f b;
#X obj 686 175 pack f f;
#X obj 686 195 s index;
#X obj 686 135 t f b;
#X obj 796 175 pack f f;
#X obj 796 195 s index;
#X obj 796 135 t f b;
#X obj 906 175 pack f f;
#X obj 906 195 s index;
#X obj 906 135 t f b;
#X obj 1016 175 pack f f;
#X obj 1016 195 s index;
#X obj 1016 135 t f b;
#X msg 77 155 10;
#X msg 187 155 11;
#X msg 297 155 12;
#X msg 407 155 13;
#X msg 517 155 14;
#X msg 627 155 15;
#X msg 737 155 16;
#X msg 847 155 17;
#X msg 957 155 18;
#X msg 1067 155 19;
#X obj 26 285 pack f f;
#X obj 26 305 s index;
#X obj 26 245 t f b;
#X obj 136 285 pack f f;
#X obj 136 305 s index;
#X obj 136 245 t f b;
#X obj 246 285 pack f f;
#X obj 246 305 s index;
#X obj 246 245 t f b;
#X obj 356 285 pack f f;
#X obj 356 305 s index;
#X obj 356 245 t f b;
#X obj 466 285 pack f f;
#X obj 466 305 s index;
#X obj 466 245 t f b;
#X obj 576 285 pack f f;
#X obj 576 305 s index;
#X obj 576 245 t f b;
#X obj 686 285 pack f f;
#X obj 686 305 s index;
#X obj 686 245 t f b;
#X obj 796 285 pack f f;
#X obj 796 305 s index;
#X obj 796 245 t f b;
#X obj 906 285 pack f f;
#X obj 906 305 s index;
#X obj 906 245 t f b;
#X obj 1016 285 pack f f;
#X obj 1016 305 s index;
#X obj 1016 245 t f b;
#X msg 77 265 20;
#X msg 187 265 21;
#X msg 297 265 22;
#X msg 407 265 23;
#X msg 517 265 24;
#X msg 627 265 25;
#X msg 737 265 26;
#X msg 847 265 27;
#X msg 957 265 28;
#X msg 1067 265 29;
#X obj 102 445 tabwrite rating;
#X obj 102 465 table rating;
#X msg 232 475 \; rating resize \$1;
#X connect 1 0 36 0;
#X connect 2 0 36 0;
#X connect 3 0 2 0;
#X connect 4 0 2 0;
#X connect 5 0 4 0;
#X connect 6 0 46 0;
#X connect 7 0 50 0;
#X connect 8 0 53 0;
#X connect 9 0 68 0;
#X connect 10 0 65 0;
#X connect 11 0 62 0;
#X connect 12 0 59 0;
#X connect 13 0 56 0;
#X connect 14 0 71 0;
#X connect 15 0 74 0;
#X connect 16 0 86 0;
#X connect 17 0 89 0;
#X connect 18 0 92 0;
#X connect 19 0 95 0;
#X connect 20 0 98 0;
#X connect 21 0 101 0;
#X connect 22 0 104 0;
#X connect 23 0 107 0;
#X connect 24 0 110 0;
#X connect 25 0 113 0;
#X connect 26 0 126 0;
#X connect 27 0 129 0;
#X connect 28 0 132 0;
#X connect 29 0 135 0;
#X connect 30 0 138 0;
#X connect 31 0 141 0;
#X connect 32 0 144 0;
#X connect 33 0 147 0;
#X connect 34 0 150 0;
#X connect 35 0 153 0;
#X connect 36 0 0 0;
#X connect 37 0 38 0;
#X connect 39 0 40 0;
#X connect 40 0 164 0;
#X connect 40 1 42 0;
#X connect 40 1 164 1;
#X connect 41 0 37 1;
#X connect 42 0 43 0;
#X connect 42 0 45 0;
#X connect 43 0 42 1;
#X connect 44 0 42 1;
#X connect 44 0 166 0;
#X connect 45 0 166 0;
#X connect 46 0 37 0;
#X connect 46 1 41 0;
#X connect 47 0 44 0;
#X connect 48 0 49 0;
#X connect 50 0 48 0;
#X connect 50 1 75 0;
#X connect 51 0 52 0;
#X connect 53 0 51 0;
#X connect 53 1 76 0;
#X connect 54 0 55 0;
#X connect 56 0 54 0;
#X connect 56 1 77 0;
#X connect 57 0 58 0;
#X connect 59 0 57 0;
#X connect 59 1 78 0;
#X connect 60 0 61 0;
#X connect 62 0 60 0;
#X connect 62 1 79 0;
#X connect 63 0 64 0;
#X connect 65 0 63 0;
#X connect 65 1 80 0;
#X connect 66 0 67 0;
#X connect 68 0 66 0;
#X connect 68 1 81 0;
#X connect 69 0 70 0;
#X connect 71 0 69 0;
#X connect 71 1 82 0;
#X connect 72 0 73 0;
#X connect 74 0 72 0;
#X connect 74 1 83 0;
#X connect 75 0 48 1;
#X connect 76 0 51 1;
#X connect 77 0 54 1;
#X connect 78 0 57 1;
#X connect 79 0 60 1;
#X connect 80 0 63 1;
#X connect 81 0 66 1;
#X connect 82 0 69 1;
#X connect 83 0 72 1;
#X connect 84 0 85 0;
#X connect 86 0 84 0;
#X connect 86 1 114 0;
#X connect 87 0 88 0;
#X connect 89 0 87 0;
#X connect 89 1 115 0;
#X connect 90 0 91 0;
#X connect 92 0 90 0;
#X connect 92 1 116 0;
#X connect 93 0 94 0;
#X connect 95 0 93 0;
#X connect 95 1 117 0;
#X connect 96 0 97 0;
#X connect 98 0 96 0;
#X connect 98 1 118 0;
#X connect 99 0 100 0;
#X connect 101 0 99 0;
#X connect 101 1 119 0;
#X connect 102 0 103 0;
#X connect 104 0 102 0;
#X connect 104 1 120 0;
#X connect 105 0 106 0;
#X connect 107 0 105 0;
#X connect 107 1 121 0;
#X connect 108 0 109 0;
#X connect 110 0 108 0;
#X connect 110 1 122 0;
#X connect 111 0 112 0;
#X connect 113 0 111 0;
#X connect 113 1 123 0;
#X connect 114 0 84 1;
#X connect 115 0 87 1;
#X connect 116 0 90 1;
#X connect 117 0 93 1;
#X connect 118 0 96 1;
#X connect 119 0 99 1;
#X connect 120 0 102 1;
#X connect 121 0 105 1;
#X connect 122 0 108 1;
#X connect 123 0 111 1;
#X connect 124 0 125 0;
#X connect 126 0 124 0;
#X connect 126 1 154 0;
#X connect 127 0 128 0;
#X connect 129 0 127 0;
#X connect 129 1 155 0;
#X connect 130 0 131 0;
#X connect 132 0 130 0;
#X connect 132 1 156 0;
#X connect 133 0 134 0;
#X connect 135 0 133 0;
#X connect 135 1 157 0;
#X connect 136 0 137 0;
#X connect 138 0 136 0;
#X connect 138 1 158 0;
#X connect 139 0 140 0;
#X connect 141 0 139 0;
#X connect 141 1 159 0;
#X connect 142 0 143 0;
#X connect 144 0 142 0;
#X connect 144 1 160 0;
#X connect 145 0 146 0;
#X connect 147 0 145 0;
#X connect 147 1 161 0;
#X connect 148 0 149 0;
#X connect 150 0 148 0;
#X connect 150 1 162 0;
#X connect 151 0 152 0;
#X connect 153 0 151 0;
#X connect 153 1 163 0;
#X connect 154 0 124 1;
#X connect 155 0 127 1;
#X connect 156 0 130 1;
#X connect 157 0 133 1;
#X connect 158 0 136 1;
#X connect 159 0 139 1;
#X connect 160 0 142 1;
#X connect 161 0 145 1;
#X connect 162 0 148 1;
#X connect 163 0 151 1;
#X restore 5 392 pd rating_sliders;
#X obj 65 132 bng 20 250 50 0 reset_all empty Reset_and_clear_duplicates!
-60 30 0 10 -258113 -260097 -1;
#N canvas 1 77 572 387 reset_all 1;
#X obj 9 2 r reset_all;
#X obj 9 42 t b b b b b b;
#X msg 79 142 \; pd-training.pd editmode 1 \, mouse -201 219 0 0 \,
mouseup -199 221 0 \, cut \, editmode 0 \;;
#X msg 44 232 \; pd-training.pd editmode 1 \, mouse -201 199 0 0 \,
mouseup -199 201 0 \, cut \, editmode 0 \;;
#X msg 26 282 \; pd-define_urn_number vis 1 \; pd-define_urn_number
clear \; pd-define_urn_number vis 0 \;;
#X msg 9 342 \; logoff_experiment 0 \;;
#X msg 61 192 \; empty_nas 0 \;;
#X msg 97 62 \; pd-tostartexperiment vis 1 \; pd-tostartexperiment
editmode 1 \, mouse 184 22 0 0 \, mouseup 186 24 0 \, cut \, editmode
0 \; pd-tostartexperiment vis 0 \;;
#X connect 0 0 1 0;
#X connect 1 1 4 0;
#X connect 1 2 3 0;
#X connect 1 4 2 0;
#X connect 1 5 7 0;
#X restore 5 412 pd reset_all;
#N canvas 36 77 1311 690 visual_experiment 0;
#X obj 1 91 cnv 15 1293 595 empty empty empty 20 12 0 14 -128992 -66577
0;
#X obj 12 107 hradio 19 1 0 11 \$1-Scale1 \$555-returnzero 1-Brilliant
0 -8 0 11 -262144 -1 -1 0;
#X obj 12 167 hradio 19 1 0 11 \$2-Scale2 \$555-returnzero 2-Hollow
0 -8 0 11 -262144 -1 -1 0;
#X obj 12 227 hradio 19 1 0 11 \$3-Scale3 \$555-returnzero 3-Clear
0 -8 0 11 -262144 -1 -1 0;
#X obj 12 287 hradio 19 1 0 11 \$4-Scale4 \$555-returnzero 4-Rough
0 -8 0 11 -262144 -1 -1 0;
#X obj 12 347 hradio 19 1 0 11 \$5-Scale5 \$555-returnzero 5-Metallic
0 -8 0 11 -262144 -1 -1 0;
#X obj 12 407 hradio 19 1 0 11 \$6-Scale6 \$555-returnzero 6-Warm 0
-8 0 11 -262144 -1 -1 0;
#X obj 12 467 hradio 19 1 0 11 \$7-Scale7 \$555-returnzero 7-Smooth
0 -8 0 11 -262144 -1 -1 0;
#X obj 12 527 hradio 19 1 0 11 \$8-Scale8 \$555-returnzero 8-Thick
0 -8 0 11 -262144 -1 -1 0;
#X obj 12 587 hradio 19 1 0 11 \$9-Scale9 \$555-returnzero 9-Rounded
0 -8 0 11 -262144 -1 -1 0;
#X obj 12 647 hradio 19 1 0 11 \$10-Scale10 \$555-returnzero 10-Harsh
0 -8 0 11 -262144 -1 -1 0;
#X obj 322 107 hradio 19 1 0 11 \$11-Scale11 \$555-returnzero 11-Dull
0 -8 0 11 -262144 -1 -1 0;
#X obj 322 167 hradio 19 1 0 11 \$12-Scale12 \$555-returnzero 12-Thin
0 -8 0 11 -262144 -1 -1 0;
#X obj 322 227 hradio 19 1 0 11 \$13-Scale13 \$555-returnzero 13-Shrill
0 -8 0 11 -262144 -1 -1 0;
#X obj 322 287 hradio 19 1 0 11 \$14-Scale14 \$555-returnzero 14-Cold
0 -8 0 11 -262144 -1 -1 0;
#X obj 322 347 hradio 19 1 0 11 \$15-Scale15 \$555-returnzero 15-Distinct
0 -8 0 11 -262144 -1 -1 0;
#X obj 322 407 hradio 19 1 0 11 \$16-Scale16 \$555-returnzero 16-Sharp
0 -8 0 11 -262144 -1 -1 0;
#X obj 322 467 hradio 19 1 0 11 \$17-Scale17 \$555-returnzero 17-Rich
0 -8 0 11 -262144 -1 -1 0;
#X obj 322 527 hradio 19 1 0 11 \$18-Scale18 \$555-returnzero 18-Bright
0 -8 0 11 -262144 -1 -1 0;
#X obj 322 587 hradio 19 1 0 11 \$19-Scale19 \$555-returnzero 19-Dense
0 -8 0 11 -262144 -1 -1 0;
#X obj 322 647 hradio 19 1 0 11 \$20-Scale20 \$555-returnzero 20-Full
0 -8 0 11 -262144 -1 -1 0;
#X obj 632 107 hradio 19 1 0 11 \$21-Scale21 \$555-returnzero 21-Nasal
0 -8 0 11 -262144 -1 -1 0;
#X obj 632 167 hradio 19 1 0 11 \$22-Scale22 \$555-returnzero 22-Soft
0 -8 0 11 -262144 -1 -1 0;
#X obj 632 227 hradio 19 1 0 11 \$23-Scale23 \$555-returnzero 23-Dark
0 -8 0 11 -262144 -1 -1 0;
#X obj 632 287 hradio 19 1 0 11 \$24-Scale24 \$555-returnzero 24-Compact
0 -8 0 11 -262144 -1 -1 0;
#X obj 632 347 hradio 19 1 0 11 \$25-Scale25 \$555-returnzero 25-Dirty
0 -8 0 11 -262144 -1 -1 0;
#X obj 632 407 hradio 19 1 0 11 \$26-Scale26 \$555-returnzero 26-Empty
0 -8 0 11 -262144 -1 -1 0;
#X obj 632 467 hradio 19 1 0 11 \$27-Scale27 \$555-returnzero 27-Messy
0 -8 0 11 -262144 -1 -1 0;
#X obj 632 527 hradio 19 1 0 11 \$28-Scale28 \$555-returnzero 28-Light
0 -8 0 11 -262144 -1 -1 0;
#X obj 632 587 hradio 19 1 0 11 \$29-Scale29 \$555-returnzero 29-Dry
0 -8 0 11 -262144 -1 -1 0;
#X obj 632 647 hradio 19 1 0 11 \$30-Scale30 \$555-returnzero 30-Deep
0 -8 0 11 -262144 -1 -1 0;
#X obj 912 567 bng 40 250 50 0 play_next next_example Play_next 50
20 1 13 -13381 -215465 -1;
#X obj 912 117 bng 40 250 50 0 play_again nothing_but_take_away_the_slash
Play_again 50 20 1 12 -67108 -183351 -1;
#X text 909 163 Plays the current sample again;
#X text 909 373 Press to play the sample looped. Press again to stop
looping.;
#X text 910 613 Once you finished rating \, press to proceed to the
next sample;
#X text 14 128 0;
#X text 34 128 1;
#X text 54 128 2;
#X text 74 128 3;
#X text 90 128 4;
#X text 110 128 5;
#X text 130 128 6;
#X text 150 128 7;
#X text 167 128 8;
#X text 187 128 9;
#X text 204 128 10;
#X text 14 188 0;
#X text 34 188 1;
#X text 54 188 2;
#X text 74 188 3;
#X text 90 188 4;
#X text 110 188 5;
#X text 130 188 6;
#X text 150 188 7;
#X text 167 188 8;
#X text 187 188 9;
#X text 204 188 10;
#X text 14 248 0;
#X text 34 248 1;
#X text 54 248 2;
#X text 74 248 3;
#X text 90 248 4;
#X text 110 248 5;
#X text 130 248 6;
#X text 150 248 7;
#X text 167 248 8;
#X text 187 248 9;
#X text 204 248 10;
#X text 14 308 0;
#X text 34 308 1;
#X text 54 308 2;
#X text 74 308 3;
#X text 90 308 4;
#X text 110 308 5;
#X text 130 308 6;
#X text 150 308 7;
#X text 167 308 8;
#X text 187 308 9;
#X text 204 308 10;
#X text 14 368 0;
#X text 34 368 1;
#X text 54 368 2;
#X text 74 368 3;
#X text 90 368 4;
#X text 110 368 5;
#X text 130 368 6;
#X text 150 368 7;
#X text 167 368 8;
#X text 187 368 9;
#X text 204 368 10;
#X text 14 428 0;
#X text 34 428 1;
#X text 54 428 2;
#X text 74 428 3;
#X text 90 428 4;
#X text 110 428 5;
#X text 130 428 6;
#X text 150 428 7;
#X text 167 428 8;
#X text 187 428 9;
#X text 204 428 10;
#X text 14 488 0;
#X text 34 488 1;
#X text 54 488 2;
#X text 74 488 3;
#X text 90 488 4;
#X text 110 488 5;
#X text 130 488 6;
#X text 150 488 7;
#X text 167 488 8;
#X text 187 488 9;
#X text 204 488 10;
#X text 14 548 0;
#X text 34 548 1;
#X text 54 548 2;
#X text 74 548 3;
#X text 90 548 4;
#X text 110 548 5;
#X text 130 548 6;
#X text 150 548 7;
#X text 167 548 8;
#X text 187 548 9;
#X text 204 548 10;
#X text 14 608 0;
#X text 34 608 1;
#X text 54 608 2;
#X text 74 608 3;
#X text 90 608 4;
#X text 110 608 5;
#X text 130 608 6;
#X text 150 608 7;
#X text 167 608 8;
#X text 187 608 9;
#X text 204 608 10;
#X text 14 668 0;
#X text 34 668 1;
#X text 54 668 2;
#X text 74 668 3;
#X text 90 668 4;
#X text 110 668 5;
#X text 130 668 6;
#X text 150 668 7;
#X text 167 668 8;
#X text 187 668 9;
#X text 204 668 10;
#X text 324 128 0;
#X text 344 128 1;
#X text 364 128 2;
#X text 384 128 3;
#X text 400 128 4;
#X text 420 128 5;
#X text 440 128 6;
#X text 460 128 7;
#X text 477 128 8;
#X text 497 128 9;
#X text 514 128 10;
#X text 324 188 0;
#X text 344 188 1;
#X text 364 188 2;
#X text 384 188 3;
#X text 400 188 4;
#X text 420 188 5;
#X text 440 188 6;
#X text 460 188 7;
#X text 477 188 8;
#X text 497 188 9;
#X text 514 188 10;
#X text 324 248 0;
#X text 344 248 1;
#X text 364 248 2;
#X text 384 248 3;
#X text 400 248 4;
#X text 420 248 5;
#X text 440 248 6;
#X text 460 248 7;
#X text 477 248 8;
#X text 497 248 9;
#X text 514 248 10;
#X text 324 308 0;
#X text 344 308 1;
#X text 364 308 2;
#X text 384 308 3;
#X text 400 308 4;
#X text 420 308 5;
#X text 440 308 6;
#X text 460 308 7;
#X text 477 308 8;
#X text 497 308 9;
#X text 514 308 10;
#X text 324 368 0;
#X text 344 368 1;
#X text 364 368 2;
#X text 384 368 3;
#X text 400 368 4;
#X text 420 368 5;
#X text 440 368 6;
#X text 460 368 7;
#X text 477 368 8;
#X text 497 368 9;
#X text 514 368 10;
#X text 324 428 0;
#X text 344 428 1;
#X text 364 428 2;
#X text 384 428 3;
#X text 400 428 4;
#X text 420 428 5;
#X text 440 428 6;
#X text 460 428 7;
#X text 477 428 8;
#X text 497 428 9;
#X text 514 428 10;
#X text 324 488 0;
#X text 344 488 1;
#X text 364 488 2;
#X text 384 488 3;
#X text 400 488 4;
#X text 420 488 5;
#X text 440 488 6;
#X text 460 488 7;
#X text 477 488 8;
#X text 497 488 9;
#X text 514 488 10;
#X text 324 548 0;
#X text 344 548 1;
#X text 364 548 2;
#X text 384 548 3;
#X text 400 548 4;
#X text 420 548 5;
#X text 440 548 6;
#X text 460 548 7;
#X text 477 548 8;
#X text 497 548 9;
#X text 514 548 10;
#X text 324 608 0;
#X text 344 608 1;
#X text 364 608 2;
#X text 384 608 3;
#X text 400 608 4;
#X text 420 608 5;
#X text 440 608 6;
#X text 460 608 7;
#X text 477 608 8;
#X text 497 608 9;
#X text 514 608 10;
#X text 324 668 0;
#X text 344 668 1;
#X text 364 668 2;
#X text 384 668 3;
#X text 400 668 4;
#X text 420 668 5;
#X text 440 668 6;
#X text 460 668 7;
#X text 477 668 8;
#X text 497 668 9;
#X text 514 668 10;
#X text 634 128 0;
#X text 654 128 1;
#X text 674 128 2;
#X text 694 128 3;
#X text 710 128 4;
#X text 730 128 5;
#X text 750 128 6;
#X text 770 128 7;
#X text 787 128 8;
#X text 807 128 9;
#X text 824 128 10;
#X text 634 188 0;
#X text 654 188 1;
#X text 674 188 2;
#X text 694 188 3;
#X text 710 188 4;
#X text 730 188 5;
#X text 750 188 6;
#X text 770 188 7;
#X text 787 188 8;
#X text 807 188 9;
#X text 824 188 10;
#X text 634 248 0;
#X text 654 248 1;
#X text 674 248 2;
#X text 694 248 3;
#X text 710 248 4;
#X text 730 248 5;
#X text 750 248 6;
#X text 770 248 7;
#X text 787 248 8;
#X text 807 248 9;
#X text 824 248 10;
#X text 634 308 0;
#X text 654 308 1;
#X text 674 308 2;
#X text 694 308 3;
#X text 710 308 4;
#X text 730 308 5;
#X text 750 308 6;
#X text 770 308 7;
#X text 787 308 8;
#X text 807 308 9;
#X text 824 308 10;
#X text 634 368 0;
#X text 654 368 1;
#X text 674 368 2;
#X text 694 368 3;
#X text 710 368 4;
#X text 730 368 5;
#X text 750 368 6;
#X text 770 368 7;
#X text 787 368 8;
#X text 807 368 9;
#X text 824 368 10;
#X text 634 428 0;
#X text 654 428 1;
#X text 674 428 2;
#X text 694 428 3;
#X text 710 428 4;
#X text 730 428 5;
#X text 750 428 6;
#X text 770 428 7;
#X text 787 428 8;
#X text 807 428 9;
#X text 824 428 10;
#X text 634 488 0;
#X text 654 488 1;
#X text 674 488 2;
#X text 694 488 3;
#X text 710 488 4;
#X text 730 488 5;
#X text 750 488 6;
#X text 770 488 7;
#X text 787 488 8;
#X text 807 488 9;
#X text 824 488 10;
#X text 634 548 0;
#X text 654 548 1;
#X text 674 548 2;
#X text 694 548 3;
#X text 710 548 4;
#X text 730 548 5;
#X text 750 548 6;
#X text 770 548 7;
#X text 787 548 8;
#X text 807 548 9;
#X text 824 548 10;
#X text 634 608 0;
#X text 654 608 1;
#X text 674 608 2;
#X text 694 608 3;
#X text 710 608 4;
#X text 730 608 5;
#X text 750 608 6;
#X text 770 608 7;
#X text 787 608 8;
#X text 807 608 9;
#X text 824 608 10;
#X text 634 668 0;
#X text 654 668 1;
#X text 674 668 2;
#X text 694 668 3;
#X text 710 668 4;
#X text 730 668 5;
#X text 750 668 6;
#X text 770 668 7;
#X text 787 668 8;
#X text 807 668 9;
#X text 824 668 10;
#X obj 1123 68 bang;
#X obj 1123 68 s start_button;
#X obj 1123 1 r reset_start_button;
#X msg 1123 1 0;
#X obj 1 1 cnv 15 1293 89 empty empty empty 20 12 0 14 -203904 -66577
0;
#X obj 6 26 nbx 7 47 -1e+37 1e+37 0 0 empty \$553-snd_number Sequence_Of_The_Experiment
0 -8 1 13 -262144 -1 -1 1 256;
#X obj 206 26 nbx 7 47 -1e+37 1e+37 0 0 empty nmbr_of_trials Number_Of_Trials
0 -8 1 13 -262144 -1 -1 5 256;
#X text 138 43 OF;
#X obj 1123 18 tgl 59 0 start_button logoff_experiment To_Start_Experiment_Session
-191 29 1 13 -258113 -1 -1 0 1;
#X obj 912 326 tgl 41 0 play_loop loop Play_Loop 49 19 1 13 -4032 -1
-1 0 1;
#X connect 366 0 367 0;
#X connect 368 0 369 0;
#X connect 369 0 374 0;
#X connect 374 0 366 0;
#X restore 5 272 pd visual_experiment;
#N canvas 534 172 827 595 tostartexperiment 0;
#X obj 1 1 cnv 15 801 151 empty empty empty 20 12 0 14 -204786 -66577
0;
#X symbolatom 255 74 38 0 0 0 Name:_ r_subj_name s_subj_name, f 38
;
#X text 256 38 (don't use spaces between characters);
#X obj 2 110 cnv 15 800 450 empty researcher_gui empty 170 120 0 14
-166441 -1 0;
#X obj 378 492 bng 47 250 50 0 tostartexperiment empty Press_to_Start
-23 57 1 13 -227203 -244640 -1;
#X obj 803 111 cnv 1 1 450 empty empty empty 20 12 0 14 -1 -1 0;
#X obj 3 109 cnv 1 800 1 empty lines empty 20 12 0 14 -1 -262144 0
;
#X obj 2 110 cnv 1 1 450 empty empty empty 20 12 0 14 -1 -1 0;
#X obj 4 561 cnv 1 800 1 empty empty empty 20 12 0 14 -1 -1 0;
#X text 211 18 Please enter participant's ID in the square below;
#X obj 10 143 nbx 11 43 -1e+37 1e+37 0 0 s_subj_age empty empty 0 -8
1 13 -261682 -1 -1 3 256;
#X obj 60 233 tgl 47 0 music-no empty NO 10 24 1 19 -159808 -1 -1 1
1;
#X obj 10 233 tgl 47 0 music-yes empty YES 4 24 1 19 -159808 -1 -1
0 1;
#X obj 10 333 nbx 11 43 -1e+37 1e+37 0 0 years-music empty empty 0
-8 1 13 -261234 -1 -1 0 256;
#X text 9 314 (in years);
#X text 9 204 Do you have any professional music experience?;
#X text 9 294 If YES \, how long professional music experience do you
have?;
#X text 9 114 What is your age?;
#X restore 5 252 pd tostartexperiment;
#X obj 355 332 r open_experiment;
#X msg 355 352 \; pd-tostartexperiment vis 1 \;;
#N canvas 121 77 1220 690 thanks_message 0;
#X obj -13 -13 cnv 15 1500 1000 empty empty empty 100 100 0 24 -195568
-1 0;
#X text 132 147 Thanks for your participation!!;
#X text 124 125 This is the end of the experiment.;
#X restore 5 432 pd thanks_message;
#N canvas 38 77 1274 690 take_a_rest_message 0;
#X obj 3 1 cnv 15 1500 1000 empty rest1 empty 100 100 1 23 -162280
-1 0;
#X obj 588 373 bng 40 250 50 0 returntotimbreexperiment empty Press_to_Continue
-23 50 1 10 -260097 -244640 -1;
#X text 524 191 please take few minutes to relax;
#X text 458 162 You have reached the second half of the experiment
;
#X restore 5 452 pd take_a_rest_message;
#N canvas 63 96 1291 671 sound_analysis 0;
#X obj 3 5 r snd_tab;
#X obj 3 25 t b b;
#N canvas 596 208 450 419 loadbang 0;
#X obj 7 12 loadbang;
#X msg 7 74 \; chroma resize 13 \;;
#X msg 7 34 \; chroma normalize 1 \;;
#X msg 7 114 \; inharmonicity normalize 1 \;;
#X msg 7 154 \; Odd-to-Even_Ratio normalize 1 \;;
#X msg 7 194 \; SpectralIrregularity normalize 1 \;;
#X msg 7 234 \; zeroCrossing normalize 1 \;;
#X obj 7 272 tgl 15 0 on_pdescriptors empty on/off 17 7 0 10 -262144
-1 -1 1 1;
#X connect 0 0 1 0;
#X connect 0 0 3 0;
#X connect 0 0 4 0;
#X connect 0 0 5 0;
#X connect 0 0 6 0;
#X connect 0 0 2 0;
#X connect 0 0 7 0;
#X restore 1193 5 pd loadbang;
#X obj 63 165 HPCP12~ 8192 1024 5000 20;
#X obj 63 205 s chroma;
#X obj 63 185 list prepend 0;
#X obj 183 185 table chroma;
#N canvas 1 77 330 343 rec 0;
#X obj 6 2 inlet;
#X obj 6 21 sig~;
#X obj 86 46 r rec;
#X obj 86 86 tabwrite~ inharmonicity;
#X connect 0 0 1 0;
#X connect 1 0 3 0;
#X connect 2 0 3 0;
#X restore 63 256 pd rec;
#X obj 63 235 Inharmonicity~ 512 20;
#X obj 113 255 table inharmonicity;
#N canvas 900 77 330 129 rec 0;
#X obj 36 21 inlet;
#X obj 85 41 sig~;
#X obj 96 64 r rec;
#X obj 86 86 tabwrite~ Odd-to-Even_Ratio;
#X connect 0 0 1 0;
#X connect 1 0 3 0;
#X connect 2 0 3 0;
#X restore 63 315 pd rec;
#X obj 63 295 odd-evenRatio~ 2048 10;
#X obj 113 315 table Odd-to-Even_Ratio;
#N canvas 598 77 308 149 rec 0;
#X obj 36 21 inlet;
#X obj 85 41 sig~;
#X obj 96 64 r rec;
#X obj 86 86 tabwrite~ SpectralIrregularity;
#X connect 0 0 1 0;
#X connect 1 0 3 0;
#X connect 2 0 3 0;
#X restore 63 375 pd rec;
#X obj 63 355 Sirregularity2~ 2048 4;
#X obj 113 375 table SpectralIrregularity;
#N canvas 326 185 264 132 rec 0;
#X obj 36 21 inlet;
#X obj 85 41 sig~;
#X obj 96 64 r rec;
#X obj 86 86 tabwrite~ zeroCrossing;
#X connect 0 0 1 0;
#X connect 1 0 3 0;
#X connect 2 0 3 0;
#X restore 63 436 pd rec;
#X obj 63 415 zeroCrossing~ 2048 4;
#X obj 113 435 table zeroCrossing;
#N canvas 126 77 668 568 player 0;
#X obj 7 264 outlet~;
#X obj 8 2 inlet;
#X obj 31 212 s rec;
#X obj 8 242 tabplay~ experiment;
#X obj 54 42 arraysize experiment;
#X msg 54 83 inharmonicity Odd-to-Even_Ratio SpectralIrregularity zeroCrossing
;
#X obj 54 62 t b f;
#X msg 54 172 \; \$1 resize \$2 \;;
#X obj 54 122 list-drip;
#X obj 54 148 pack s f;
#X floatatom 104 63 5 0 0 0 - - -, f 5;
#X obj 8 22 t b b b;
#X connect 1 0 11 0;
#X connect 3 0 0 0;
#X connect 4 0 6 0;
#X connect 4 0 10 0;
#X connect 5 0 8 0;
#X connect 6 0 5 0;
#X connect 6 1 9 1;
#X connect 8 0 9 0;
#X connect 9 0 7 0;
#X connect 11 0 3 0;
#X connect 11 1 2 0;
#X connect 11 2 4 0;
#X restore 3 135 pd player;
#X obj 235 145 tgl 15 0 empty on_pdescriptors empty 17 7 0 10 -262144
-1 -1 1 1;
#X msg 255 165 normalize \$1;
#X obj 207 215 tgl 15 0 empty on_pdescriptors empty 17 7 0 10 -262144
-1 -1 1 1;
#X obj 214 275 tgl 15 0 empty on_pdescriptors empty 17 7 0 10 -262144
-1 -1 1 1;
#X obj 214 335 tgl 15 0 empty on_pdescriptors empty 17 7 0 10 -262144
-1 -1 1 1;
#X obj 200 395 tgl 15 0 empty on_pdescriptors empty 17 7 0 10 -262144
-1 -1 1 1;
#X obj 593 125 essentiaRT~ 1;
#X obj 681 145 route list;
#X obj 593 105 tabplay~ experiment;
#X obj 681 165 route mfcc.mean noisiness.mean loudness.mean centroid.mean
tempCentroid;
#X obj 681 245 pack s f f f f;
#X msg 681 265 set mfcc-\$1 noisiness-\$2 loudness-\$3 centroid-\$4
tempCentroid-\$5;
#X obj 681 205 l2s;
#X obj 593 57 bng 15 250 50 0 empty empty empty 17 7 0 10 -262144 -1
-1;
#X obj 681 425 print;
#X obj 681 305 l2s;
#X connect 0 0 1 0;
#X connect 1 0 19 0;
#X connect 1 1 28 0;
#X connect 3 0 5 0;
#X connect 5 0 4 0;
#X connect 8 0 7 0;
#X connect 11 0 10 0;
#X connect 14 0 13 0;
#X connect 17 0 16 0;
#X connect 19 0 3 0;
#X connect 19 0 8 0;
#X connect 19 0 11 0;
#X connect 19 0 14 0;
#X connect 19 0 17 0;
#X connect 20 0 3 1;
#X connect 20 0 21 0;
#X connect 21 0 3 1;
#X connect 22 0 8 1;
#X connect 23 0 11 1;
#X connect 24 0 14 1;
#X connect 25 0 17 1;
#X connect 26 2 27 0;
#X connect 27 0 29 0;
#X connect 28 0 26 0;
#X connect 29 0 32 0;
#X connect 29 1 30 1;
#X connect 29 2 30 2;
#X connect 29 3 30 3;
#X connect 29 4 30 4;
#X connect 30 0 31 0;
#X connect 31 0 35 0;
#X connect 32 0 30 0;
#X connect 33 0 28 0;
#X connect 35 0 34 0;
#X restore 5 472 pd sound_analysis;
#X symbolatom 5 32 39 0 0 0 - db_display -, f 39;
#X connect 5 0 4 0;
#X connect 7 0 8 0;
#X connect 12 0 13 0;
#X connect 24 0 25 0;
