#N canvas 69 78 1227 672 10;
#N canvas 1 567 378 200 setup 0;
#N canvas 69 78 1162 659 sound_stimuli 0;
#X obj 470 634 dac~;
#X obj 39 320 soundfiler;
#X obj 39 340 bang;
#X obj 209 470 f;
#X obj 209 490 + 1;
#X msg 227 450 0;
#X obj 247 420 delay 12;
#X obj 227 360 loadbang;
#N canvas 1161 601 283 303 sp_lb_ue 0;
#X obj 74 107 loadbang;
#X msg 74 132 1;
#X obj 141 107 r urn_empty;
#X msg 141 133 0;
#X obj 36 220 outlet;
#X obj 36 192 spigot;
#X obj 36 68 inlet;
#X connect 0 0 1 0;
#X connect 1 0 5 1;
#X connect 2 0 3 0;
#X connect 3 0 5 1;
#X connect 5 0 4 0;
#X connect 6 0 5 0;
#X restore 247 400 pd sp_lb_ue;
#X obj 247 380 r pn_1;
#X obj 39 11 r \$11-urn;
#X obj 209 510 s \$17-Rep;
#X obj 78 200 l2s;
#X msg 96 180 symbol;
#X obj 96 160 loadbang;
#X obj 39 220 symbol;
#X obj 39 280 makefilename %s.wav;
#X obj 39 260 l2s;
#X obj 39 240 pack s f;
#X msg 165 243 symbol;
#X obj 165 220 loadbang;
#X obj 92 220 r \$11-urn;
#X obj 149 340 r play_again;
#X obj 279 450 r play_loop;
#X obj 279 550 spigot;
#X obj 369 480 tgl 15 0 empty empty empty 0 -6 0 10 -262144 -1 -1 0
1;
#X obj 359 510 r loopoff;
#X msg 359 530 0;
#X msg 78 121;
#X obj 308 71 loadbang;
#X msg 308 91 set;
#X obj 78 31 r select_sdb;
#X obj 619 390 soundfiler;
#X obj 619 410 bang;
#X obj 739 241 l2s;
#X msg 759 221 symbol;
#X obj 759 201 loadbang;
#X obj 619 261 symbol;
#X obj 619 241 t b;
#X obj 619 350 makefilename %s.wav;
#X obj 619 330 l2s;
#X obj 619 281 pack s f;
#X msg 689 300 symbol;
#X obj 689 280 loadbang;
#N canvas 6 399 674 358 training_samples 0;
#X obj 62 45 r t01;
#X obj 102 45 r t02;
#X obj 142 45 r t03;
#X obj 182 45 r t04;
#X obj 222 45 r t05;
#X obj 262 45 r t06;
#X obj 302 45 r t07;
#X obj 342 45 r t08;
#X obj 382 45 r t09;
#X obj 422 45 r t10;
#X obj 62 146 outlet;
#X msg 62 79 1;
#X msg 102 79 2;
#X msg 262 79 7;
#X msg 302 79 3;
#X msg 342 79 6;
#X msg 382 79 4;
#X msg 421 78 5;
#X msg 142 79 21;
#X msg 182 79 30;
#X msg 222 79 33;
#X connect 0 0 11 0;
#X connect 1 0 12 0;
#X connect 2 0 18 0;
#X connect 3 0 19 0;
#X connect 4 0 20 0;
#X connect 5 0 13 0;
#X connect 6 0 14 0;
#X connect 7 0 15 0;
#X connect 8 0 16 0;
#X connect 9 0 17 0;
#X connect 11 0 10 0;
#X connect 12 0 10 0;
#X connect 13 0 10 0;
#X connect 14 0 10 0;
#X connect 15 0 10 0;
#X connect 16 0 10 0;
#X connect 17 0 10 0;
#X connect 18 0 10 0;
#X connect 19 0 10 0;
#X connect 20 0 10 0;
#X restore 619 11 pd training_samples;
#X obj 619 221 del 10;
#X obj 78 51 tof/folderpanel;
#X msg 39 300 read -resize \$1 experiment;
#X obj 39 580 tabplay~ experiment;
#X obj 139 600 table experiment;
#X msg 619 370 read -resize \$1 trial;
#X obj 619 430 tabplay~ trial;
#X obj 689 450 table trial;
#X obj 78 91 t b a;
#X obj 49 360 s snd_tab;
#X obj 39 31 t b;
#X obj 149 360 delay 400;
#X msg 78 71 set \$1/;
#X obj 148 91 s db_display;
#X obj 471 595 *~;
#X obj 471 614 hip~ 5;
#X obj 489 515 r volume;
#X obj 501 535 loadbang;
#X msg 501 555 0.85;
#X obj 501 575 s vol_init;
#X obj 619 450 s~ trial;
#X obj 471 495 r~ trial;
#X obj 39 600 s~ experiment;
#X obj 471 475 r~ experiment;
#X obj 279 480 metro 9551;
#X obj 148 71 iemlib/splitfilename;
#X connect 1 0 2 0;
#X connect 2 0 48 0;
#X connect 2 0 54 0;
#X connect 3 0 4 0;
#X connect 4 0 3 1;
#X connect 4 0 11 0;
#X connect 5 0 3 1;
#X connect 6 0 5 0;
#X connect 7 0 5 0;
#X connect 8 0 6 0;
#X connect 9 0 8 0;
#X connect 10 0 55 0;
#X connect 12 0 15 1;
#X connect 13 0 12 1;
#X connect 14 0 13 0;
#X connect 15 0 18 0;
#X connect 16 0 47 0;
#X connect 17 0 16 0;
#X connect 18 0 17 0;
#X connect 19 0 17 1;
#X connect 20 0 19 0;
#X connect 21 0 18 1;
#X connect 22 0 56 0;
#X connect 23 0 25 0;
#X connect 23 0 69 0;
#X connect 24 0 48 0;
#X connect 25 0 24 1;
#X connect 26 0 27 0;
#X connect 27 0 24 1;
#X connect 28 0 12 0;
#X connect 28 0 34 0;
#X connect 29 0 30 0;
#X connect 30 0 28 0;
#X connect 31 0 46 0;
#X connect 32 0 33 0;
#X connect 33 0 51 0;
#X connect 34 0 37 1;
#X connect 35 0 34 1;
#X connect 36 0 35 0;
#X connect 37 0 41 0;
#X connect 38 0 37 0;
#X connect 39 0 50 0;
#X connect 40 0 39 0;
#X connect 41 0 40 0;
#X connect 42 0 40 1;
#X connect 43 0 42 0;
#X connect 44 0 41 1;
#X connect 44 0 45 0;
#X connect 45 0 38 0;
#X connect 46 0 57 0;
#X connect 46 0 70 0;
#X connect 47 0 1 0;
#X connect 48 0 67 0;
#X connect 50 0 32 0;
#X connect 51 0 65 0;
#X connect 53 0 28 0;
#X connect 53 1 28 0;
#X connect 55 0 15 0;
#X connect 56 0 3 0;
#X connect 56 0 48 0;
#X connect 57 0 53 0;
#X connect 59 0 60 0;
#X connect 60 0 0 0;
#X connect 60 0 0 1;
#X connect 61 0 59 1;
#X connect 62 0 63 0;
#X connect 63 0 59 1;
#X connect 63 0 64 0;
#X connect 66 0 59 0;
#X connect 68 0 59 0;
#X connect 69 0 24 0;
#X connect 70 1 58 0;
#X restore 5 2 pd sound_stimuli;
#N canvas 588 78 767 498 sound_selector 0;
#X obj 8 127 timer;
#X msg 8 157 seed \$1;
#X obj 79 207 delay 100;
#X obj 8 367 + 1;
#X obj 47 367 s urn_empty;
#X obj 79 187 r pn_1;
#X obj 69 157 r sb_1;
#X obj 40 97 r start_button;
#X obj 8 397 s \$11-urn;
#X obj 200 137 r nmbr_of_trials;
#X obj 8 247 s urn_inlet;
#X obj 8 317 r urn_outlet0;
#X obj 47 347 r urn_outlet1;
#X obj 200 227 f;
#X obj 200 157 t b;
#X obj 218 197 r nmbr_of_trials;
#X obj 8 7 r nmbr_of_trials;
#X obj 8 37 t b;
#X msg 200 257 \; pd-define_urn_number obj 2 10 r urn_inlet \; pd-define_urn_number
obj 2 110 s urn_outlet0 \; pd-define_urn_number obj 34 80 s urn_outlet1
\; pd-define_urn_number obj 2 40 urn \$1 \; pd-define_urn_number connect
0 0 3 0 \; pd-define_urn_number connect 3 0 1 0 \; pd-define_urn_number
connect 3 1 2 0 \;;
#X obj 200 177 delay 2;
#X obj 8 67 delay 50;
#X obj 390 7 loadbang;
#X obj 436 97 s set_nmb_trials;
#X msg 436 77 0;
#X msg 413 127 \; pd-define_urn_number vis 1 \; pd-define_urn_number
clear \; pd-define_urn_number vis 0 \;;
#X obj 390 47 t b b b;
#N canvas 909 467 450 300 define_urn_number 0;
#X restore 199 31 pd define_urn_number;
#X msg 390 197 pd-sound_selector obj 200 7 pd define_urn_number \;
pd-define_urn_number vis 0 \;;
#X obj 400 27 r reset_all;
#X connect 0 0 1 0;
#X connect 1 0 10 0;
#X connect 2 0 10 0;
#X connect 3 0 8 0;
#X connect 5 0 2 0;
#X connect 6 0 10 0;
#X connect 7 0 0 1;
#X connect 9 0 14 0;
#X connect 11 0 3 0;
#X connect 12 0 4 0;
#X connect 13 0 18 0;
#X connect 14 0 19 0;
#X connect 15 0 13 1;
#X connect 16 0 17 0;
#X connect 17 0 20 0;
#X connect 19 0 13 0;
#X connect 20 0 0 0;
#X connect 21 0 25 0;
#X connect 23 0 22 0;
#X connect 25 0 27 0;
#X connect 25 1 24 0;
#X connect 25 2 23 0;
#X connect 28 0 25 0;
#X restore 5 22 pd sound_selector;
#N canvas 1 78 1303 626 settings 0;
#X obj 712 508 cnv 15 585 100 empty empty initial_message_to_name_field
20 12 1 13 -262130 -66577 0;
#X obj 718 532 loadbang;
#X obj 718 582 s r_subj_name \$1;
#X msg 718 562 set enter_here_your_name_and_press_<enter>;
#X obj 311 3 cnv 15 400 605 empty empty Buttons 20 12 1 13 -232576
-66577 0;
#X obj 558 347 f;
#X obj 588 347 + 1;
#X msg 576 317 1;
#X obj 558 417 + 1;
#X obj 488 517 spigot;
#X obj 488 377 delay 110;
#X msg 438 437 1;
#X msg 538 547 0;
#X obj 488 457 f \$1;
#X obj 528 467 r urn_empty;
#X msg 528 487 0;
#X obj 538 517 loadbang;
#X obj 576 297 loadbang;
#N canvas 1076 460 287 307 sp_lb_ue 0;
#X obj 74 107 loadbang;
#X msg 74 132 1;
#X obj 141 107 r urn_empty;
#X msg 141 133 0;
#X obj 36 220 outlet;
#X obj 36 192 spigot;
#X obj 36 68 inlet;
#X connect 0 0 1 0;
#X connect 1 0 5 1;
#X connect 2 0 3 0;
#X connect 3 0 5 1;
#X connect 5 0 4 0;
#X connect 6 0 5 0;
#X restore 558 267 pd sp_lb_ue;
#X obj 558 247 r pn_1;
#X obj 438 417 r sb_1;
#X obj 318 27 r play_next;
#X obj 318 267 spigot;
#X msg 368 217 1;
#X msg 408 217 0;
#X obj 358 307 delay 13;
#X obj 318 87 delay 400;
#X obj 428 187 loadbang;
#X obj 318 347 s pn_1;
#X obj 528 27 r start_button;
#X obj 528 47 delay 40;
#X obj 528 117 s sb_1;
#X obj 538 77 loadbang;
#X obj 368 117 r sb_1;
#X obj 408 167 delay 100;
#N canvas 623 77 638 690 take_a_rest 0;
#X obj 210 16 inlet;
#X obj 56 211 select;
#X obj 95 189 int;
#X obj 95 167 / 2;
#X obj 171 558 outlet;
#X obj 95 145 r nmbr_of_trials;
#X obj 238 208 r returntotimbreexperiment;
#X obj 10 122 r \$553-snd_number;
#X obj 10 145 moses 1;
#X msg 95 233 1;
#X msg 56 233 2;
#X obj 256 311 delay 4000;
#X obj 212 446 s loopoff;
#X msg 257 342 \; pd-take_a_rest_message vis 1 \;;
#X msg 238 237 \; pd-take_a_rest_message vis 0 \;;
#X obj 171 278 cyclone/gate 2;
#X connect 0 0 15 1;
#X connect 1 0 10 0;
#X connect 1 1 9 0;
#X connect 2 0 1 1;
#X connect 3 0 2 0;
#X connect 5 0 3 0;
#X connect 6 0 14 0;
#X connect 6 0 9 0;
#X connect 7 0 8 0;
#X connect 8 1 1 0;
#X connect 9 0 15 0;
#X connect 10 0 15 0;
#X connect 11 0 13 0;
#X connect 15 0 4 0;
#X connect 15 1 11 0;
#X connect 15 1 12 0;
#X coords 0 -1 1 1 85 20 1 10 10;
#X restore 318 47 pd take_a_rest;
#X obj 488 587 s \$553-snd_number;
#X obj 408 137 delay 2000;
#X obj 338 327 delay 2000;
#X obj 712 3 cnv 15 585 299 empty empty experiment 20 12 1 13 -4032
-66577 0;
#X obj 712 303 cnv 15 585 204 empty empty manage_visibility_of_frames
20 12 1 13 -204786 -66577 0;
#X obj 725 208 spigot;
#X obj 895 78 loadbang;
#X obj 855 133 tgl 15 0 empty empty empty 0 -6 0 10 -262144 -1 -1 0
1;
#X msg 895 103 0;
#X msg 855 103 1;
#X obj 855 48 r s_subj_name;
#X obj 955 153 loadbang;
#X obj 750 48 loadbang;
#X obj 770 68 key;
#X obj 770 88 select 10;
#X msg 748 338 \; pd-visual_experiment vis 1 \;;
#X obj 725 28 r tostartexperiment;
#X obj 725 268 delay 50;
#X msg 725 378 \; pd-tostartexperiment vis 0 \;;
#X obj 5 3 cnv 15 305 139 empty empty initialize 20 12 1 13 -261234
-66577 0;
#X msg 17 46 \; pd dsp 1;
#X obj 7 26 loadbang;
#X obj 965 308 r urn_empty;
#X obj 965 328 t b b;
#X obj 965 408 delay 2503;
#X msg 995 348 \; pd-visual_experiment vis 0 \; pd-thanks_message vis
1 \; pd dsp 0 \;;
#X obj 725 228 t b b b;
#X obj 769 248 s date;
#X obj 618 77 r reset_all;
#X obj 770 108 r reset_all;
#X obj 965 78 r reset_all;
#X msg 7 86 \; pd-pilot_experiment_differential.pd vis 1 \;;
#X msg 965 428 \; pd-pilot_experiment_differential.pd menuclose \;
;
#X obj 616 317 r reset_all;
#X obj 576 537 r reset_all;
#X obj 448 207 r reset_all;
#X obj 871 24 bng 15 250 50 0 empty empty empty 17 7 0 10 -262144 -1
-1;
#X obj 965 98 t b b;
#X obj 618 97 t b;
#X obj 616 337 t b;
#X obj 576 557 t b;
#X obj 725 128 iemlib/once;
#X obj 855 153 iemlib/once;
#X obj 528 97 iemlib/once;
#X connect 1 0 3 0;
#X connect 3 0 2 0;
#X connect 5 0 6 0;
#X connect 5 0 8 0;
#X connect 6 0 5 1;
#X connect 7 0 5 1;
#X connect 8 0 13 1;
#X connect 9 0 36 0;
#X connect 10 0 13 0;
#X connect 11 0 9 1;
#X connect 11 0 36 0;
#X connect 12 0 36 0;
#X connect 13 0 9 0;
#X connect 14 0 15 0;
#X connect 15 0 9 1;
#X connect 16 0 12 0;
#X connect 17 0 7 0;
#X connect 18 0 5 0;
#X connect 18 0 10 0;
#X connect 19 0 18 0;
#X connect 20 0 11 0;
#X connect 21 0 35 0;
#X connect 22 0 25 0;
#X connect 22 0 28 0;
#X connect 22 0 38 0;
#X connect 23 0 22 1;
#X connect 24 0 22 1;
#X connect 25 0 24 0;
#X connect 26 0 22 0;
#X connect 27 0 24 0;
#X connect 29 0 30 0;
#X connect 30 0 79 0;
#X connect 32 0 79 1;
#X connect 33 0 34 0;
#X connect 33 0 23 0;
#X connect 33 0 37 0;
#X connect 34 0 24 0;
#X connect 35 0 26 0;
#X connect 37 0 23 0;
#X connect 38 0 23 0;
#X connect 41 0 62 0;
#X connect 42 0 44 0;
#X connect 43 0 78 0;
#X connect 44 0 43 0;
#X connect 45 0 43 0;
#X connect 46 0 45 0;
#X connect 47 0 78 1;
#X connect 48 0 77 1;
#X connect 49 0 50 0;
#X connect 50 0 77 1;
#X connect 52 0 72 0;
#X connect 52 0 77 0;
#X connect 53 0 54 0;
#X connect 57 0 56 0;
#X connect 57 0 67 0;
#X connect 58 0 59 0;
#X connect 59 0 60 0;
#X connect 59 1 61 0;
#X connect 60 0 68 0;
#X connect 62 0 53 0;
#X connect 62 1 51 0;
#X connect 62 2 63 0;
#X connect 64 0 74 0;
#X connect 65 0 77 1;
#X connect 66 0 73 0;
#X connect 69 0 75 0;
#X connect 70 0 76 0;
#X connect 71 0 24 0;
#X connect 73 0 78 1;
#X connect 73 1 44 0;
#X connect 74 0 79 1;
#X connect 75 0 7 0;
#X connect 76 0 12 0;
#X connect 77 0 41 0;
#X connect 78 0 41 1;
#X connect 79 0 31 0;
#X restore 5 42 pd settings;
#N canvas 532 162 784 605 writing_and_saving 0;
#N canvas 1165 605 279 299 sp_lb_ue 0;
#X obj 74 107 loadbang;
#X msg 74 132 1;
#X obj 141 107 r urn_empty;
#X msg 141 133 0;
#X obj 36 220 outlet;
#X obj 36 192 spigot;
#X obj 36 68 inlet;
#X connect 0 0 1 0;
#X connect 1 0 5 1;
#X connect 2 0 3 0;
#X connect 3 0 5 1;
#X connect 5 0 4 0;
#X connect 6 0 5 0;
#X restore 7 22 pd sp_lb_ue;
#X obj 7 2 r pn_1;
#X obj 37 582 s paquete;
#X obj 77 62 r paquete;
#X obj 77 82 l2s;
#X obj 17 102 symbol \$1;
#X msg 257 202 clear;
#X obj 157 182 symbol \$1;
#X obj 157 292 textfile;
#X obj 157 2 r urn_empty;
#X obj 257 142 makefilename %s;
#X msg 157 202 write \$1.txt;
#X obj 257 122 l2s;
#X obj 257 2 r s_subj_name;
#X msg 275 102 symbol;
#X obj 275 82 loadbang;
#X obj 257 182 loadbang;
#X obj 157 52 delay 1000;
#X obj 17 42 delay 100;
#X obj 37 562 pack f s;
#X obj 7 422 l2s;
#X obj 57 422 r \$11-urn;
#X obj 37 442 f;
#X obj 37 522 delay 20;
#X obj 37 542 f;
#X obj 37 492 t b;
#X msg 257 62 list output-ID_ \$1;
#X msg 17 124 add \$1;
#X obj 434 122 l2s;
#X msg 434 102 ID-\$1;
#X obj 417 182 pack s s s s s;
#X obj 434 82 r s_subj_name;
#N canvas 1 78 450 300 years-experience 0;
#X obj 105 96 spigot;
#X obj 105 46 r years-music;
#X obj 165 66 r music-yes;
#X obj 165 87 tgl 15 0 empty empty empty 17 7 0 10 -262144 -1 -1 0
1;
#X obj 105 136 l2s;
#X msg 105 116 years-experience-\$1;
#X obj 135 176 l2s;
#X msg 135 156 years-experience-0;
#X obj 135 136 r music-no;
#X obj 105 227 l2s;
#X obj 175 176 loadbang;
#X obj 105 247 outlet;
#X obj 195 206 r reset_all;
#X obj 105 206 iemlib/once;
#X connect 0 0 5 0;
#X connect 1 0 0 0;
#X connect 2 0 3 0;
#X connect 3 0 0 1;
#X connect 4 0 13 0;
#X connect 5 0 4 0;
#X connect 6 0 13 0;
#X connect 7 0 6 0;
#X connect 9 0 11 0;
#X connect 10 0 13 1;
#X connect 12 0 13 1;
#X connect 13 0 9 0;
#X restore 512 162 pd years-experience;
#N canvas 639 177 450 300 date 0;
#X obj 163 162 pack f f f;
#X obj 163 112 date ------;
#X obj 163 181 l2s;
#X obj 163 92 r date;
#X obj 163 202 outlet;
#X obj 307 81 bng 15 250 50 0 empty empty empty 17 7 0 10 -262144 -1
-1;
#X connect 0 0 2 0;
#X connect 1 0 0 0;
#X connect 1 1 0 1;
#X connect 1 2 0 2;
#X connect 2 0 4 0;
#X connect 3 0 1 0;
#X connect 5 0 1 0;
#X restore 377 142 pd date;
#N canvas 1 78 450 300 music-experience 0;
#X obj 153 212 l2s;
#X msg 153 192 pro_experience-\$1;
#X msg 153 112 YES;
#X msg 193 112 NO;
#X obj 227 132 loadbang;
#X obj 153 172 l2s;
#X obj 153 72 r music-yes;
#X obj 193 92 r music-no;
#X obj 153 232 outlet;
#X obj 243 152 r reset_all;
#X obj 153 152 iemlib/once;
#X connect 0 0 8 0;
#X connect 1 0 0 0;
#X connect 2 0 10 0;
#X connect 3 0 10 0;
#X connect 4 0 10 1;
#X connect 5 0 1 0;
#X connect 6 0 2 0;
#X connect 7 0 3 0;
#X connect 9 0 10 1;
#X connect 10 0 5 0;
#X restore 488 142 pd music-experience;
#N canvas 1 77 450 300 subj_age 0;
#X obj 143 77 r s_subj_age;
#X msg 143 97 age-\$1;
#X obj 143 117 l2s;
#X obj 143 137 outlet;
#X connect 0 0 1 0;
#X connect 1 0 2 0;
#X connect 2 0 3 0;
#X restore 464 122 pd subj_age;
#X msg 417 227 add \$1;
#X obj 417 202 l2s;
#X obj 7 402 tabdump rating;
#X obj 7 382 t b b;
#X connect 0 0 18 0;
#X connect 0 0 39 0;
#X connect 1 0 0 0;
#X connect 3 0 4 0;
#X connect 4 0 5 1;
#X connect 5 0 27 0;
#X connect 6 0 8 0;
#X connect 7 0 11 0;
#X connect 9 0 17 0;
#X connect 10 0 7 1;
#X connect 11 0 8 0;
#X connect 12 0 10 0;
#X connect 13 0 26 0;
#X connect 14 0 12 1;
#X connect 15 0 14 0;
#X connect 16 0 6 0;
#X connect 17 0 7 0;
#X connect 18 0 5 0;
#X connect 19 0 2 0;
#X connect 20 0 19 1;
#X connect 21 0 22 1;
#X connect 22 0 24 1;
#X connect 22 0 25 0;
#X connect 23 0 24 0;
#X connect 24 0 19 0;
#X connect 25 0 23 0;
#X connect 26 0 12 0;
#X connect 27 0 8 0;
#X connect 28 0 30 1;
#X connect 29 0 28 0;
#X connect 30 0 37 0;
#X connect 31 0 29 0;
#X connect 32 0 30 4;
#X connect 33 0 30 0;
#X connect 34 0 30 3;
#X connect 35 0 30 2;
#X connect 36 0 8 0;
#X connect 37 0 36 0;
#X connect 38 0 20 0;
#X connect 39 0 38 0;
#X connect 39 1 22 0;
#X restore 5 62 pd writing_and_saving;
#N canvas 565 78 798 483 rating_sliders 0;
#X obj 366 445 s \$555-returnzero;
#X obj 406 375 loadbang;
#X obj 366 345 delay 150;
#X obj 366 265 r pn_1;
#N canvas 1673 606 275 295 sp_lb_ue 0;
#X obj 74 107 loadbang;
#X msg 74 132 1;
#X obj 141 107 r urn_empty;
#X msg 141 133 0;
#X obj 36 220 outlet;
#X obj 36 192 spigot;
#X obj 36 68 inlet;
#X connect 0 0 1 0;
#X connect 1 0 5 1;
#X connect 2 0 3 0;
#X connect 3 0 5 1;
#X connect 5 0 4 0;
#X connect 6 0 5 0;
#X restore 386 315 pd sp_lb_ue;
#X obj 386 295 r pn_1;
#X obj 26 5 r \$1-Scale1;
#X obj 136 5 r \$2-Scale2;
#X obj 246 5 r \$3-Scale3;
#X obj 26 115 r \$8-Scale8;
#X obj 686 5 r \$7-Scale7;
#X obj 576 5 r \$6-Scale6;
#X obj 466 5 r \$5-Scale5;
#X obj 356 5 r \$4-Scale4;
#X obj 136 115 r \$9-Scale9;
#X obj 246 115 r \$10-Scale10;
#X obj 356 115 r \$11-Scale11;
#X obj 466 115 r \$12-Scale12;
#X obj 576 115 r \$13-Scale13;
#X obj 26 65 pack f f;
#X obj 26 85 s index;
#X obj 22 305 r index;
#X obj 22 325 unpack f f;
#X msg 77 45 0;
#X obj 152 335 max;
#X obj 182 335 f;
#X msg 152 315 0;
#X obj 152 365 + 1;
#X obj 26 25 t f b;
#X obj 152 295 loadbang;
#X obj 136 65 pack f f;
#X obj 136 85 s index;
#X obj 136 25 t f b;
#X obj 246 65 pack f f;
#X obj 246 85 s index;
#X obj 246 25 t f b;
#X obj 356 65 pack f f;
#X obj 356 85 s index;
#X obj 356 25 t f b;
#X obj 466 65 pack f f;
#X obj 466 85 s index;
#X obj 466 25 t f b;
#X obj 576 65 pack f f;
#X obj 576 85 s index;
#X obj 576 25 t f b;
#X obj 686 65 pack f f;
#X obj 686 85 s index;
#X obj 686 25 t f b;
#X obj 26 175 pack f f;
#X obj 26 195 s index;
#X obj 26 135 t f b;
#X obj 136 175 pack f f;
#X obj 136 195 s index;
#X obj 136 135 t f b;
#X obj 246 175 pack f f;
#X obj 246 195 s index;
#X obj 246 135 t f b;
#X msg 187 45 1;
#X msg 297 45 2;
#X msg 407 45 3;
#X msg 517 45 4;
#X msg 627 45 5;
#X msg 737 45 6;
#X msg 79 155 7;
#X msg 187 155 8;
#X msg 297 155 9;
#X obj 356 175 pack f f;
#X obj 356 195 s index;
#X obj 356 135 t f b;
#X obj 466 175 pack f f;
#X obj 466 195 s index;
#X obj 466 135 t f b;
#X obj 576 175 pack f f;
#X obj 576 195 s index;
#X obj 576 135 t f b;
#X msg 407 155 10;
#X msg 517 155 11;
#X msg 627 155 12;
#X obj 22 355 tabwrite rating;
#X obj 22 375 table rating;
#X msg 152 385 \; rating resize \$1;
#X msg 366 405 3;
#X connect 1 0 81 0;
#X connect 2 0 81 0;
#X connect 3 0 2 0;
#X connect 4 0 2 0;
#X connect 5 0 4 0;
#X connect 6 0 28 0;
#X connect 7 0 32 0;
#X connect 8 0 35 0;
#X connect 9 0 50 0;
#X connect 10 0 47 0;
#X connect 11 0 44 0;
#X connect 12 0 41 0;
#X connect 13 0 38 0;
#X connect 14 0 53 0;
#X connect 15 0 56 0;
#X connect 16 0 68 0;
#X connect 17 0 71 0;
#X connect 18 0 74 0;
#X connect 19 0 20 0;
#X connect 21 0 22 0;
#X connect 22 0 78 0;
#X connect 22 1 24 0;
#X connect 22 1 78 1;
#X connect 23 0 19 1;
#X connect 24 0 25 0;
#X connect 24 0 27 0;
#X connect 25 0 24 1;
#X connect 26 0 24 1;
#X connect 26 0 80 0;
#X connect 27 0 80 0;
#X connect 28 0 19 0;
#X connect 28 1 23 0;
#X connect 29 0 26 0;
#X connect 30 0 31 0;
#X connect 32 0 30 0;
#X connect 32 1 57 0;
#X connect 33 0 34 0;
#X connect 35 0 33 0;
#X connect 35 1 58 0;
#X connect 36 0 37 0;
#X connect 38 0 36 0;
#X connect 38 1 59 0;
#X connect 39 0 40 0;
#X connect 41 0 39 0;
#X connect 41 1 60 0;
#X connect 42 0 43 0;
#X connect 44 0 42 0;
#X connect 44 1 61 0;
#X connect 45 0 46 0;
#X connect 47 0 45 0;
#X connect 47 1 62 0;
#X connect 48 0 49 0;
#X connect 50 0 48 0;
#X connect 50 1 63 0;
#X connect 51 0 52 0;
#X connect 53 0 51 0;
#X connect 53 1 64 0;
#X connect 54 0 55 0;
#X connect 56 0 54 0;
#X connect 56 1 65 0;
#X connect 57 0 30 1;
#X connect 58 0 33 1;
#X connect 59 0 36 1;
#X connect 60 0 39 1;
#X connect 61 0 42 1;
#X connect 62 0 45 1;
#X connect 63 0 48 1;
#X connect 64 0 51 1;
#X connect 65 0 54 1;
#X connect 66 0 67 0;
#X connect 68 0 66 0;
#X connect 68 1 75 0;
#X connect 69 0 70 0;
#X connect 71 0 69 0;
#X connect 71 1 76 0;
#X connect 72 0 73 0;
#X connect 74 0 72 0;
#X connect 74 1 77 0;
#X connect 75 0 66 1;
#X connect 76 0 69 1;
#X connect 77 0 72 1;
#X connect 81 0 0 0;
#X restore 5 82 pd rating_sliders;
#N canvas 367 78 534 511 reset_all 0;
#X obj 9 2 r reset_all;
#X msg 43 272 \; pd-define_urn_number vis 1 \; pd-define_urn_number
clear \; pd-define_urn_number vis 0 \;;
#X msg 94 92 \; pd-tostartexperiment vis 1 \; pd-tostartexperiment
editmode 1 \, mouse 184 22 0 0 \, mouseup 186 24 0 \, cut \, editmode
0 \; pd-tostartexperiment vis 0 \;;
#X msg 26 332 \; pd-define_urn_number clear \;;
#X msg 60 222 \; pd-pilot_experiment_differential.pd editmode 1 \,
mouse -201 199 0 0 \, mouseup -199 201 0 \, cut \, editmode 0 \;;
#X msg 77 172 \; pd-pilot_experiment_differential.pd editmode 1 \,
mouse -201 219 0 0 \, mouseup -199 221 0 \, cut \, editmode 0 \;;
#X obj 9 472 s logoff_experiment \$1;
#X obj 111 72 s r_subj_name \$1;
#X msg 111 52 set enter_here_your_name_and_press_<enter>;
#X msg 9 372 0;
#X obj 9 392 s age_init \$1;
#X obj 9 412 s years_init \$1;
#X obj 9 432 s yes_init \$1;
#X obj 9 452 s no_init \$1;
#X obj 9 32 t b b b b b b b;
#X connect 0 0 14 0;
#X connect 8 0 7 0;
#X connect 9 0 10 0;
#X connect 9 0 11 0;
#X connect 9 0 12 0;
#X connect 9 0 13 0;
#X connect 9 0 6 0;
#X connect 14 0 9 0;
#X connect 14 1 3 0;
#X connect 14 2 1 0;
#X connect 14 3 4 0;
#X connect 14 4 5 0;
#X connect 14 5 2 0;
#X connect 14 6 8 0;
#X restore 5 102 pd reset_all;
#N canvas 109 78 1220 689 thanks_message 0;
#X obj -13 -13 cnv 15 1500 1000 empty empty empty 100 100 0 24 -195568
-1 0;
#X text 132 147 Thanks for your participation!!;
#X text 124 125 This is the end of the experiment.;
#X restore 5 122 pd thanks_message;
#N canvas 30 78 1274 689 take_a_rest_message 0;
#X obj 3 1 cnv 15 1500 1000 empty rest1 empty 100 100 1 23 -162280
-1 0;
#X obj 588 373 bng 40 250 50 0 returntotimbreexperiment empty Press_to_Continue
-23 50 1 10 -260097 -244640 -1;
#X text 524 191 please take few minutes to relax;
#X text 458 162 You have reached the second half of the experiment
;
#X restore 5 142 pd take_a_rest_message;
#X restore 1016 364 pd setup;
#N canvas 1 78 366 200 interfaces 0;
#N canvas 65 78 1276 689 visual_training 0;
#X obj 1028 22 r close_visual_training;
#X msg 1028 42 \; pd-visual_training vis 0 \;;
#X obj 1042 581 bng 41 250 50 0 empty empty Play_next 50 20 1 13 -191407
-215465 -1;
#X obj 1042 401 bng 41 250 50 0 empty empty Play_again 50 20 1 12 -191407
-183351 -1;
#X text 1039 447 Plays the current sample again;
#X obj 2 1 cnv 15 1265 121 empty empty Rating-Session_(training) 461
37 1 27 -228856 -66577 0;
#X obj 1243 97 bng 23 250 50 0 close_visual_training empty empty 17
7 0 11 -258113 -1 -1;
#X obj 1042 481 tgl 41 0 empty empty Play_loop 50 20 1 13 -191407 -1
-1 0 1;
#X text 1039 527 Press to play the sample looped;
#X text 1039 547 Press again to stop looping.;
#X text 1040 627 Once you finished rating \,;
#X text 435 156 Soft;
#X text 36 155 Hard;
#X obj 68 217 hradio 51 1 0 7 empty empty empty 0 -8 0 10 -262144 -1
-1 0;
#X obj 68 297 hradio 51 1 0 7 empty empty empty 0 -8 0 10 -262144 -1
-1 0;
#X obj 68 377 hradio 51 1 0 7 empty empty empty 0 -8 0 10 -262144 -1
-1 0;
#X obj 68 457 hradio 51 1 0 7 empty empty empty 0 -8 0 10 -262144 -1
-1 0;
#X obj 68 537 hradio 51 1 0 7 empty empty empty 0 -8 0 10 -262144 -1
-1 0;
#X obj 598 604 hradio 51 1 0 7 empty empty empty 0 -8 0 10 -262144
-1 -1 0;
#X obj 68 617 hradio 51 1 0 7 empty empty empty 0 -8 0 10 -262144 -1
-1 0;
#X obj 598 154 hradio 51 1 0 7 empty empty empty 0 -8 0 10 -262144
-1 -1 0;
#X obj 598 244 hradio 51 1 0 7 empty empty empty 0 -8 0 10 -262144
-1 -1 0;
#X obj 598 334 hradio 51 1 0 7 empty empty empty 0 -8 0 10 -262144
-1 -1 0;
#X obj 598 424 hradio 51 1 0 7 empty empty empty 0 -8 0 10 -262144
-1 -1 0;
#X obj 598 514 hradio 51 1 0 7 empty empty empty 0 -8 0 10 -262144
-1 -1 0;
#X text 1 235 Colorfull;
#X text 435 236 Colorless;
#X text 436 316 Sharp;
#X text 36 315 Dull;
#X text 29 393 Heavy;
#X text 436 474 Simple;
#X text 15 473 Complex;
#X text 436 556 Warm;
#X text 36 555 Cold;
#X text 545 620 Compact;
#X text 965 619 Scattered;
#X text 436 636 Bright;
#X text 36 635 Dark;
#X text 966 170 Pure;
#X text 559 170 Mixed;
#X text 566 260 Weak;
#X text 966 260 Strong;
#X text 559 351 Empty;
#X text 966 349 Full;
#X text 552 440 Smooth;
#X text 966 439 Rough;
#X text 566 530 Thin;
#X text 965 529 Thick;
#X obj 1043 123 cnv 15 225 259 empty empty empty 20 12 0 14 -261234
-66577 0;
#X text 1042 181 Rate them according to the;
#X text 1042 121 These are the scales that are;
#X text 1042 141 going to be used to evaluate;
#X text 1042 161 the sound examples.;
#X text 1042 201 appropriateness of each scale;
#X text 1042 221 to each of excerpts heard.;
#X text 1043 281 are:;
#X text 1043 301 * Neutral;
#X text 1043 321 * Slightly;
#X text 1043 341 * Moderately;
#X text 1043 361 * Extermely;
#X obj 1006 11 tgl 59 0 empty empty empty 63 29 1 13 -258113 -1 -1
0 1;
#X text 1036 101 Close Rating Session Training;
#X text 1064 24 This is the Button to start;
#X text 1064 44 listening the stimuli;
#X obj 6 16 nbx 7 47 -1e+37 1e+37 0 0 empty empty Sequence_Of_The_Experiment
0 -8 1 13 -262144 -1 -1 0 256;
#X obj 206 16 nbx 7 47 -1e+37 1e+37 0 0 empty empty Number_Of_Trials
0 -8 1 13 -262144 -1 -1 0 256;
#X text 138 33 OF;
#X obj 5 65 cnv 15 165 57 empty empty empty 20 12 0 14 -261234 -66577
0;
#X text 4 65 This number indicates;
#X text 4 85 at what stage the;
#X text 4 105 experiment is.;
#X obj 205 65 cnv 15 199 57 empty empty empty 20 12 0 14 -261234 -66577
0;
#X text 204 65 This number indicates the;
#X text 204 85 the total number of stimuli.;
#X text 1043 261 The Four Intensity Qualifiers;
#X text 436 394 Lightweight;
#X text 1040 646 press to proceed to the next;
#X text 1040 666 sample;
#X obj 68 137 hradio 51 1 0 7 empty empty empty 0 -8 0 10 -262144 -1
-1 0;
#X text 749 139 Neutral;
#X text 219 122 Neutral;
#X text 219 202 Neutral;
#X text 219 282 Neutral;
#X text 219 362 Neutral;
#X text 219 442 Neutral;
#X text 219 522 Neutral;
#X text 219 602 Neutral;
#X text 749 229 Neutral;
#X text 749 319 Neutral;
#X text 749 409 Neutral;
#X text 749 499 Neutral;
#X text 749 589 Neutral;
#X connect 0 0 1 0;
#X restore 5 22 pd visual_training;
#N canvas 63 130 750 499 listening_training 0;
#X obj 495 402 r close_listening_training;
#X msg 495 422 \; pd-listening_training vis 0 \;;
#X obj 1 1 cnv 15 741 493 empty empty Training-->Listening_sounds 20
20 1 23 -166441 -262144 0;
#X obj 24 152 bng 40 250 50 0 t01 nothing_but_different1 Play_sample_1
50 20 1 12 -169046 -215465 -1;
#X obj 24 202 bng 40 250 50 0 t02 nothing_but_different2 Play_sample_2
50 20 1 12 -169046 -215465 -1;
#X obj 24 252 bng 40 250 50 0 t03 nothing_but_different3 Play_sample_3
50 20 1 12 -169046 -215465 -1;
#X obj 24 302 bng 40 250 50 0 t04 nothing_but_different4 Play_sample_4
50 20 1 12 -169046 -215465 -1;
#X obj 24 352 bng 40 250 50 0 t05 nothing_but_different5 Play_sample_5
50 20 1 12 -169046 -215465 -1;
#X obj 24 402 bng 40 250 50 0 t06 nothing_but_different6 Play_sample_6
50 20 1 12 -169046 -215465 -1;
#X obj 214 182 bng 40 250 50 0 t07 nothing_but_different7 Play_sample_7
50 20 1 12 -169046 -215465 -1;
#X obj 214 242 bng 40 250 50 0 t08 nothing_but_different8 Play_sample_8
50 20 1 12 -169046 -215465 -1;
#X obj 214 292 bng 40 250 50 0 t09 nothing_but_different9 Play_sample_9
50 20 1 12 -169046 -215465 -1;
#X obj 214 352 bng 40 250 50 0 t10 nothing_but_different10 Play_sample_10
50 20 1 12 -169046 -215465 -1;
#X obj 715 462 bng 23 250 50 0 close_listening_training empty empty
17 7 0 11 -258113 -1 -1;
#X obj 426 253 hsl 213 47 0 1 0 0 volume vol_init Volume 91 23 0 10
-261682 -1 -1 18020 1;
#X text 397 268 min;
#X text 642 268 max;
#X obj 423 303 nbx 5 37 -1e+37 1e+37 0 0 empty volume empty 0 -8 0
10 -261682 -1 -1 0.85 256;
#X text 421 230 Please \, consider to setup audio output level;
#X obj 19 59 cnv 15 419 61 empty empty empty 20 12 0 14 -261234 -66577
0;
#X text 19 58 This are the kind of samples that you will listen to
during the experiment.;
#X text 21 92 Listen a couple or all of them.;
#X text 487 466 Close Listening Session Training;
#X connect 0 0 1 0;
#X restore 5 42 pd listening_training;
#N canvas 527 169 820 598 interface_training 0;
#X msg 585 542 \; pd-interface_training vis 0 \;;
#X obj 585 522 r close_interface_training;
#X obj 2 2 cnv 15 801 151 empty empty Training-->Interface_Experiment
20 12 0 14 -228856 -66577 0;
#X symbolatom 254 96 38 0 0 0 Name:_ - -, f 38;
#X text 255 60 (don't use spaces between characters);
#X obj 1 132 cnv 15 800 450 empty researcher_gui empty 170 120 0 14
-191407 -1 0;
#X obj 377 514 bng 47 250 50 0 empty empty Press_to_Start -23 57 1
13 -191407 -244640 -1;
#X obj 802 133 cnv 1 1 450 empty empty empty 20 12 0 14 -1 -1 0;
#X obj 2 131 cnv 1 800 1 empty lines empty 20 12 0 14 -1 -262144 0
;
#X obj 1 132 cnv 1 1 450 empty empty empty 20 12 0 14 -1 -1 0;
#X obj 2 582 cnv 1 800 1 empty empty empty 20 12 0 14 -1 -1 0;
#X text 210 40 Please enter participant's ID in the square below;
#X obj 9 165 nbx 11 43 -1e+37 1e+37 0 0 empty empty empty 0 -8 1 13
-228856 -1 -1 0 256;
#X obj 59 275 tgl 47 0 empty empty NO 10 24 1 19 -228856 -1 -1 0 1
;
#X obj 9 275 tgl 47 0 empty empty YES 4 24 1 19 -228856 -1 -1 0 1;
#X obj 9 405 nbx 11 43 -1e+37 1e+37 0 0 empty empty empty 0 -8 1 13
-228856 -1 -1 0 256;
#X text 8 246 Do you have any professional music experience?;
#X text 8 366 If YES \, how long professional music experience do you
have?;
#X text 7 135 What is your age?;
#X obj 777 106 bng 23 250 50 0 close_interface_training empty empty
17 7 0 11 -258113 -1 -1;
#X text 526 110 To Close Interface Training Session;
#X text 8 386 (in years - an integer number);
#X text 222 386 If NO \, put number 0 below;
#X obj 630 167 cnv 15 171 157 empty empty empty 20 12 0 14 -261234
-66577 0;
#X text 629 175 This is the Interface to;
#X text 629 195 input your personal data;
#X text 629 215 like name \, age \, musical;
#X text 630 295 "Press_to_Start" button.;
#X text 629 235 experience and for how;
#X text 629 255 long if any. After this;
#X text 629 275 step press;
#X connect 1 0 0 0;
#X restore 5 2 pd interface_training;
#N canvas 33 78 1297 689 visual_experiment 0;
#X obj 1 91 cnv 15 1293 595 empty empty empty 20 12 0 14 -128992 -66577
0;
#X obj 1191 58 bang;
#X obj 1191 68 s start_button;
#X obj 1 1 cnv 15 1293 89 empty empty empty 20 12 0 14 -203904 -66577
0;
#X obj 6 26 nbx 7 47 -1e+37 1e+37 0 0 empty \$553-snd_number Sequence_Of_The_Experiment
0 -8 1 13 -262144 -1 -1 0 256;
#X obj 206 26 nbx 7 47 -1e+37 1e+37 0 0 empty nmbr_of_trials Number_Of_Trials
0 -8 1 13 -262144 -1 -1 0 256;
#X text 138 43 OF;
#X obj 1191 18 tgl 59 0 empty logoff_experiment To_Start_Experiment_Session
-191 29 1 13 -258113 -1 -1 0 1;
#X obj 68 126 hradio 51 1 0 7 \$1-Scale1 \$555-returnzero empty 0 -8
0 10 -262144 -1 -1 3;
#X text 436 144 Soft;
#X text 36 144 Hard;
#X obj 68 206 hradio 51 1 0 7 \$2-Scale2 \$555-returnzero empty 0 -8
0 10 -262144 -1 -1 3;
#X obj 68 286 hradio 51 1 0 7 \$3-Scale3 \$555-returnzero empty 0 -8
0 10 -262144 -1 -1 3;
#X obj 68 366 hradio 51 1 0 7 \$4-Scale4 \$555-returnzero empty 0 -8
0 10 -262144 -1 -1 3;
#X obj 68 446 hradio 51 1 0 7 \$5-Scale5 \$555-returnzero empty 0 -8
0 10 -262144 -1 -1 3;
#X obj 68 526 hradio 51 1 0 7 \$6-Scale6 \$555-returnzero empty 0 -8
0 10 -262144 -1 -1 3;
#X obj 592 594 hradio 51 1 0 7 \$13-Scale13 \$555-returnzero empty
0 -8 0 10 -262144 -1 -1 3;
#X obj 68 606 hradio 51 1 0 7 \$7-Scale7 \$555-returnzero empty 0 -8
0 10 -262144 -1 -1 3;
#X obj 592 144 hradio 51 1 0 7 \$8-Scale8 \$555-returnzero empty 0
-8 0 10 -262144 -1 -1 3;
#X obj 592 234 hradio 51 1 0 7 \$9-Scale9 \$555-returnzero empty 0
-8 0 10 -262144 -1 -1 3;
#X obj 592 324 hradio 51 1 0 7 \$10-Scale10 \$555-returnzero empty
0 -8 0 10 -262144 -1 -1 3;
#X obj 592 414 hradio 51 1 0 7 \$11-Scale11 \$555-returnzero empty
0 -8 0 10 -262144 -1 -1 3;
#X obj 592 504 hradio 51 1 0 7 \$12-Scale12 \$555-returnzero empty
0 -8 0 10 -262144 -1 -1 3;
#X text 1 224 Colorfull;
#X text 435 224 Colorless;
#X text 436 304 Sharp;
#X text 36 304 Dull;
#X text 29 384 Heavy;
#X text 436 464 Simple;
#X text 15 464 Complex;
#X text 436 544 Warm;
#X text 36 545 Cold;
#X text 539 614 Compact;
#X text 952 614 Scattered;
#X text 436 624 Bright;
#X text 36 624 Dark;
#X text 954 163 Pure;
#X text 553 163 Mixed;
#X text 560 253 Weak;
#X text 954 253 Strong;
#X text 553 342 Empty;
#X text 953 342 Full;
#X text 546 433 Smooth;
#X text 953 432 Rough;
#X text 560 522 Thin;
#X text 952 522 Thick;
#X obj 1031 387 cnv 15 263 289 empty empty empty 20 12 0 14 -261682
-66577 0;
#X obj 1042 587 bng 40 250 50 0 play_next next_example Play_next 50
20 1 13 -13381 -215465 -1;
#X obj 1042 397 bng 40 250 50 0 play_again nothing_but_take_away_the_slash
Play_again 50 20 1 12 -67108 -183351 -1;
#X text 1039 443 Plays the current sample again;
#X obj 1042 486 tgl 41 0 play_loop loop Play_Loop 49 19 1 13 -4032
-1 -1 0 1;
#X text 1039 533 Press to play the sample looped.;
#X text 1039 553 Press again to stop looping.;
#X text 1040 633 Once you finished rating \,;
#X text 1040 653 press to proceed to the next sample;
#X text 430 15 * Neutral;
#X text 430 35 * Slightly;
#X text 430 55 * Moderately;
#X text 430 75 * Extermely;
#X text 430 0 The Four Intensity Qualifiers are:;
#X text 436 384 Lightweight;
#X text 219 111 Neutral;
#X text 219 191 Neutral;
#X text 219 271 Neutral;
#X text 219 351 Neutral;
#X text 219 431 Neutral;
#X text 219 511 Neutral;
#X text 219 591 Neutral;
#X text 743 129 Neutral;
#X text 743 219 Neutral;
#X text 743 309 Neutral;
#X text 743 399 Neutral;
#X text 743 489 Neutral;
#X text 743 579 Neutral;
#X connect 1 0 2 0;
#X connect 7 0 1 0;
#X restore 5 82 pd visual_experiment;
#N canvas 522 78 827 595 tostartexperiment 0;
#X obj 1 1 cnv 15 801 151 empty empty empty 20 12 0 14 -204786 -66577
0;
#X symbolatom 255 74 38 0 0 0 Name:_ r_subj_name s_subj_name, f 38
;
#X text 256 38 (don't use spaces between characters);
#X obj 2 110 cnv 15 800 450 empty researcher_gui empty 170 120 0 14
-166441 -1 0;
#X obj 378 492 bng 47 250 50 0 tostartexperiment empty Press_to_Start
-23 57 1 13 -227203 -244640 -1;
#X obj 803 111 cnv 1 1 450 empty empty empty 20 12 0 14 -1 -1 0;
#X obj 3 109 cnv 1 800 1 empty lines empty 20 12 0 14 -1 -262144 0
;
#X obj 2 110 cnv 1 1 450 empty empty empty 20 12 0 14 -1 -1 0;
#X obj 4 561 cnv 1 800 1 empty empty empty 20 12 0 14 -1 -1 0;
#X text 211 18 Please enter participant's ID in the square below;
#X obj 10 143 nbx 11 43 -1e+37 1e+37 0 0 s_subj_age age_init empty
0 -8 1 13 -261682 -1 -1 0 256;
#X obj 60 233 tgl 47 0 music-no no_init NO 10 24 1 19 -159808 -1 -1
0 1;
#X obj 10 233 tgl 47 0 music-yes yes_init YES 4 24 1 19 -159808 -1
-1 0 1;
#X obj 10 333 nbx 11 43 -1e+37 1e+37 0 0 years-music years_init empty
0 -8 1 13 -261234 -1 -1 0 256;
#X text 9 314 (in years);
#X text 9 204 Do you have any professional music experience?;
#X text 9 294 If YES \, how long professional music experience do you
have?;
#X text 9 114 What is your age?;
#X restore 5 62 pd tostartexperiment;
#X restore 1016 464 pd interfaces;
#X msg 806 454 \; pd-visual_training vis 1 \;;
#X obj 806 434 r open_visual_training;
#X obj 806 494 r open_listening_training;
#X msg 806 514 \; pd-listening_training vis 1 \;;
#X obj 806 374 r open_interface_training;
#X msg 806 394 \; pd-interface_training vis 1 \;;
#X obj 1016 544 r open_experiment;
#X msg 1016 564 \; pd-tostartexperiment vis 1 \;;
#X msg 1016 404 \; pd-setup vis 1 \;;
#X obj 1016 383 r open_setup;
#X obj 1016 484 r open_interfaces;
#X msg 1016 504 \; pd-interfaces vis 1 \;;
#X obj 2 3 cnv 15 1217 657 empty empty Pilot-Experiment 541 12 1 23
-262130 -66577 0;
#X obj 1 58 cnv 15 399 603 empty empty Settings 20 12 1 17 -191407
-66577 0;
#X obj 16 157 bng 23 250 50 0 select_sdb empty Select_Sound_DataBase
29 11 1 17 -4160 -1 -1;
#X floatatom 16 247 5 0 0 1 Number_of_Audio_Samples empty_nas nmbr_of_trials
, f 5;
#X symbolatom 16 207 53 0 0 0 - db_display -, f 53;
#X obj 401 58 cnv 15 399 603 empty empty Training 20 12 1 17 -204786
-66577 0;
#X obj 446 247 bng 23 250 50 0 open_visual_training empty Rating_Session
29 11 1 17 -203904 -1 -1;
#X obj 446 337 bng 23 250 50 0 open_listening_training empty Listening_Session
29 11 1 17 -203904 -1 -1;
#X obj 446 157 bng 23 250 50 0 open_interface_training empty Interface_Session
29 11 1 17 -203904 -1 -1;
#X obj 800 58 cnv 15 419 301 empty empty Experiment 20 12 1 17 -261234
-66577 0;
#X obj 896 157 bng 37 250 50 0 open_experiment empty Start 41 17 1
17 -4160 -1 -1;
#X obj 800 360 cnv 15 419 301 empty empty empty 20 12 0 14 -86277 -66577
0;
#X obj 806 577 bng 19 250 50 0 reset_all empty Reset_and_clear_duplicates!
29 9 0 10 -232576 -260097 -1;
#X obj 806 603 bng 19 250 50 0 open_setup empty To_Open_Setup 29 9
1 13 -232576 -1 -1;
#X obj 806 633 bng 19 250 50 0 open_interfaces empty To_Open_Interfaces
29 9 1 13 -232576 -1 -1;
#X text 517 30 Using Semantic Diffential Ratings;
#X connect 3 0 2 0;
#X connect 4 0 5 0;
#X connect 6 0 7 0;
#X connect 8 0 9 0;
#X connect 11 0 10 0;
#X connect 12 0 13 0;
